<svg width="1167" height="167" viewBox="0 0 1167 167" fill="none" xmlns="http://www.w3.org/2000/svg">
<g opacity="0.04">
<rect y="99.9863" width="42.8498" height="36.4914" transform="rotate(-90 0 99.9863)" fill="white"/>
<mask id="mask0_11084_239647" style="mask-type:alpha" maskUnits="userSpaceOnUse" x="1" y="63" width="89" height="104">
<rect x="1.25488" y="167" width="103.554" height="88.1876" transform="rotate(-90 1.25488 167)" fill="#FFBB9C"/>
</mask>
<g mask="url(#mask0_11084_239647)">
<rect width="4.36973" height="44.7725" transform="matrix(0.648361 -0.761333 0.648361 0.761333 -11.4143 143.625)" fill="#80ACFF"/>
<rect width="4.36973" height="44.7725" transform="matrix(0.648361 -0.761333 0.648361 0.761333 -18.0042 148.387)" fill="#80ACFF"/>
<rect width="4.36973" height="75.1021" transform="matrix(0.648361 -0.761333 0.648361 0.761333 -13.1387 128.51)" fill="#80ACFF"/>
<rect width="4.36973" height="75.1021" transform="matrix(0.648361 -0.761333 0.648361 0.761333 -8.88086 120.535)" fill="#80ACFF"/>
<rect width="4.36973" height="109.384" transform="matrix(0.648361 -0.761333 0.648361 0.761333 -14.4172 101.535)" fill="#80ACFF"/>
<rect width="4.36973" height="109.384" transform="matrix(0.648361 -0.761333 0.648361 0.761333 -8.88086 94.4336)" fill="#80ACFF"/>
<rect width="4.36973" height="137.582" transform="matrix(0.648361 -0.761333 0.648361 0.761333 -11.9434 77.75)" fill="#80ACFF"/>
<rect width="4.36973" height="143.65" transform="matrix(0.648361 -0.761333 0.648361 0.761333 -9.27002 67.1562)" fill="#80ACFF"/>
<rect width="4.36973" height="143.65" transform="matrix(0.648361 -0.761333 0.648361 0.761333 -3.30688 61.2051)" fill="#80ACFF"/>
<rect width="4.36973" height="143.65" transform="matrix(0.648361 -0.761333 0.648361 0.761333 1.25488 53.4688)" fill="#80ACFF"/>
<rect width="4.36973" height="143.65" transform="matrix(0.648361 -0.761333 0.648361 0.761333 4.29761 43.9473)" fill="#80ACFF"/>
<rect width="4.36973" height="143.65" transform="matrix(0.648361 -0.761333 0.648361 0.761333 9.36548 35.6152)" fill="#80ACFF"/>
<rect width="4.36973" height="143.65" transform="matrix(0.648361 -0.761333 0.648361 0.761333 13.9241 28.4727)" fill="#80ACFF"/>
<rect width="4.36973" height="143.65" transform="matrix(0.648361 -0.761333 0.648361 0.761333 20.5166 22.5215)" fill="#80ACFF"/>
<rect width="4.36973" height="143.65" transform="matrix(0.648361 -0.761333 0.648361 0.761333 28.115 17.1641)" fill="#80ACFF"/>
<rect width="4.36973" height="143.65" transform="matrix(0.648361 -0.761333 0.648361 0.761333 34.1985 10.6191)" fill="#80ACFF"/>
</g>
<mask id="mask1_11084_239647" style="mask-type:alpha" maskUnits="userSpaceOnUse" x="458" y="63" width="89" height="104">
<rect x="458.629" y="167" width="103.554" height="88.1876" transform="rotate(-90 458.629 167)" fill="#FFBB9C"/>
</mask>
<g mask="url(#mask1_11084_239647)">
<rect width="4.36973" height="44.7725" transform="matrix(0.648361 -0.761333 0.648361 0.761333 445.957 143.625)" fill="#80ACFF"/>
<rect width="4.36973" height="44.7725" transform="matrix(0.648361 -0.761333 0.648361 0.761333 439.37 148.387)" fill="#80ACFF"/>
<rect width="4.36973" height="75.1021" transform="matrix(0.648361 -0.761333 0.648361 0.761333 444.232 128.51)" fill="#80ACFF"/>
<rect width="4.36973" height="75.1021" transform="matrix(0.648361 -0.761333 0.648361 0.761333 448.49 120.535)" fill="#80ACFF"/>
<rect width="4.36973" height="109.384" transform="matrix(0.648361 -0.761333 0.648361 0.761333 442.954 101.535)" fill="#80ACFF"/>
<rect width="4.36973" height="109.384" transform="matrix(0.648361 -0.761333 0.648361 0.761333 448.49 94.4336)" fill="#80ACFF"/>
<rect width="4.36973" height="137.582" transform="matrix(0.648361 -0.761333 0.648361 0.761333 445.431 77.75)" fill="#80ACFF"/>
<rect width="4.36973" height="143.65" transform="matrix(0.648361 -0.761333 0.648361 0.761333 448.105 67.1562)" fill="#80ACFF"/>
<rect width="4.36973" height="143.65" transform="matrix(0.648361 -0.761333 0.648361 0.761333 454.067 61.2051)" fill="#80ACFF"/>
<rect width="4.36973" height="143.65" transform="matrix(0.648361 -0.761333 0.648361 0.761333 458.626 53.4688)" fill="#80ACFF"/>
<rect width="4.36973" height="143.65" transform="matrix(0.648361 -0.761333 0.648361 0.761333 461.668 43.9473)" fill="#80ACFF"/>
<rect width="4.36973" height="143.65" transform="matrix(0.648361 -0.761333 0.648361 0.761333 466.736 35.6152)" fill="#80ACFF"/>
<rect width="4.36973" height="143.65" transform="matrix(0.648361 -0.761333 0.648361 0.761333 471.298 28.4727)" fill="#80ACFF"/>
<rect width="4.36973" height="143.65" transform="matrix(0.648361 -0.761333 0.648361 0.761333 477.887 22.5215)" fill="#80ACFF"/>
<rect width="4.36973" height="143.65" transform="matrix(0.648361 -0.761333 0.648361 0.761333 485.489 17.1641)" fill="#80ACFF"/>
<rect width="4.36973" height="143.65" transform="matrix(0.648361 -0.761333 0.648361 0.761333 491.569 10.6191)" fill="#80ACFF"/>
</g>
<mask id="mask2_11084_239647" style="mask-type:alpha" maskUnits="userSpaceOnUse" x="915" y="63" width="90" height="104">
<rect x="915.999" y="167" width="103.554" height="88.1876" transform="rotate(-90 915.999 167)" fill="#FFBB9C"/>
</mask>
<g mask="url(#mask2_11084_239647)">
<rect width="4.36973" height="44.7725" transform="matrix(0.648361 -0.761333 0.648361 0.761333 903.326 143.625)" fill="#80ACFF"/>
<rect width="4.36973" height="44.7725" transform="matrix(0.648361 -0.761333 0.648361 0.761333 896.74 148.387)" fill="#80ACFF"/>
<rect width="4.36973" height="75.1021" transform="matrix(0.648361 -0.761333 0.648361 0.761333 901.602 128.51)" fill="#80ACFF"/>
<rect width="4.36973" height="75.1021" transform="matrix(0.648361 -0.761333 0.648361 0.761333 905.863 120.535)" fill="#80ACFF"/>
<rect width="4.36973" height="109.384" transform="matrix(0.648361 -0.761333 0.648361 0.761333 900.323 101.535)" fill="#80ACFF"/>
<rect width="4.36973" height="109.384" transform="matrix(0.648361 -0.761333 0.648361 0.761333 905.863 94.4336)" fill="#80ACFF"/>
<rect width="4.36973" height="137.582" transform="matrix(0.648361 -0.761333 0.648361 0.761333 902.802 77.752)" fill="#80ACFF"/>
<rect width="4.36973" height="143.65" transform="matrix(0.648361 -0.761333 0.648361 0.761333 905.475 67.1562)" fill="#80ACFF"/>
<rect width="4.36973" height="143.65" transform="matrix(0.648361 -0.761333 0.648361 0.761333 911.434 61.2051)" fill="#80ACFF"/>
<rect width="4.36973" height="143.65" transform="matrix(0.648361 -0.761333 0.648361 0.761333 915.999 53.4688)" fill="#80ACFF"/>
<rect width="4.36973" height="143.65" transform="matrix(0.648361 -0.761333 0.648361 0.761333 919.038 43.9473)" fill="#80ACFF"/>
<rect width="4.36973" height="143.65" transform="matrix(0.648361 -0.761333 0.648361 0.761333 924.106 35.6152)" fill="#80ACFF"/>
<rect width="4.36973" height="143.65" transform="matrix(0.648361 -0.761333 0.648361 0.761333 928.668 28.4727)" fill="#80ACFF"/>
<rect width="4.36973" height="143.65" transform="matrix(0.648361 -0.761333 0.648361 0.761333 935.257 22.5215)" fill="#80ACFF"/>
<rect width="4.36973" height="143.65" transform="matrix(0.648361 -0.761333 0.648361 0.761333 942.859 17.1641)" fill="#80ACFF"/>
<rect width="4.36973" height="143.65" transform="matrix(0.648361 -0.761333 0.648361 0.761333 948.939 10.6191)" fill="#80ACFF"/>
</g>
<mask id="mask3_11084_239647" style="mask-type:alpha" maskUnits="userSpaceOnUse" x="299" y="63" width="89" height="104">
<rect x="299.502" y="166.576" width="103.554" height="88.1876" transform="rotate(-90 299.502 166.576)" fill="#FFBB9C"/>
</mask>
<g mask="url(#mask3_11084_239647)">
<rect width="4.36973" height="44.7725" transform="matrix(0.648361 -0.761333 0.648361 0.761333 286.833 143.201)" fill="#80ACFF"/>
<rect width="4.36973" height="44.7725" transform="matrix(0.648361 -0.761333 0.648361 0.761333 280.243 147.961)" fill="#80ACFF"/>
<rect width="4.36973" height="75.1021" transform="matrix(0.648361 -0.761333 0.648361 0.761333 285.105 128.086)" fill="#80ACFF"/>
<rect width="4.36973" height="75.1021" transform="matrix(0.648361 -0.761333 0.648361 0.761333 289.366 120.111)" fill="#80ACFF"/>
<rect width="4.36973" height="109.384" transform="matrix(0.648361 -0.761333 0.648361 0.761333 283.827 101.109)" fill="#80ACFF"/>
<rect width="4.36973" height="109.384" transform="matrix(0.648361 -0.761333 0.648361 0.761333 289.366 94.0098)" fill="#80ACFF"/>
<rect width="4.36973" height="137.582" transform="matrix(0.648361 -0.761333 0.648361 0.761333 286.307 77.3242)" fill="#80ACFF"/>
<rect width="4.36973" height="143.65" transform="matrix(0.648361 -0.761333 0.648361 0.761333 288.977 66.7324)" fill="#80ACFF"/>
<rect width="4.36973" height="143.65" transform="matrix(0.648361 -0.761333 0.648361 0.761333 294.94 60.7793)" fill="#80ACFF"/>
<rect width="4.36973" height="143.65" transform="matrix(0.648361 -0.761333 0.648361 0.761333 299.502 53.0449)" fill="#80ACFF"/>
<rect width="4.36973" height="143.65" transform="matrix(0.648361 -0.761333 0.648361 0.761333 302.542 43.5234)" fill="#80ACFF"/>
<rect width="4.36973" height="143.65" transform="matrix(0.648361 -0.761333 0.648361 0.761333 307.609 35.1895)" fill="#80ACFF"/>
<rect width="4.36973" height="143.65" transform="matrix(0.648361 -0.761333 0.648361 0.761333 312.171 28.0469)" fill="#80ACFF"/>
<rect width="4.36973" height="143.65" transform="matrix(0.648361 -0.761333 0.648361 0.761333 318.76 22.0957)" fill="#80ACFF"/>
<rect width="4.36973" height="143.65" transform="matrix(0.648361 -0.761333 0.648361 0.761333 326.363 16.7402)" fill="#80ACFF"/>
<rect width="4.36973" height="143.65" transform="matrix(0.648361 -0.761333 0.648361 0.761333 332.442 10.1953)" fill="#80ACFF"/>
</g>
<mask id="mask4_11084_239647" style="mask-type:alpha" maskUnits="userSpaceOnUse" x="756" y="63" width="90" height="104">
<rect x="756.872" y="166.576" width="103.554" height="88.1876" transform="rotate(-90 756.872 166.576)" fill="#FFBB9C"/>
</mask>
<g mask="url(#mask4_11084_239647)">
<rect width="4.36973" height="44.7725" transform="matrix(0.648361 -0.761333 0.648361 0.761333 744.199 143.201)" fill="#80ACFF"/>
<rect width="4.36973" height="44.7725" transform="matrix(0.648361 -0.761333 0.648361 0.761333 737.61 147.961)" fill="#80ACFF"/>
<rect width="4.36973" height="75.1021" transform="matrix(0.648361 -0.761333 0.648361 0.761333 742.475 128.086)" fill="#80ACFF"/>
<rect width="4.36973" height="75.1021" transform="matrix(0.648361 -0.761333 0.648361 0.761333 746.733 120.111)" fill="#80ACFF"/>
<rect width="4.36973" height="109.384" transform="matrix(0.648361 -0.761333 0.648361 0.761333 741.197 101.109)" fill="#80ACFF"/>
<rect width="4.36973" height="109.384" transform="matrix(0.648361 -0.761333 0.648361 0.761333 746.733 94.0098)" fill="#80ACFF"/>
<rect width="4.36973" height="137.582" transform="matrix(0.648361 -0.761333 0.648361 0.761333 743.674 77.3242)" fill="#80ACFF"/>
<rect width="4.36973" height="143.65" transform="matrix(0.648361 -0.761333 0.648361 0.761333 746.347 66.7324)" fill="#80ACFF"/>
<rect width="4.36973" height="143.65" transform="matrix(0.648361 -0.761333 0.648361 0.761333 752.307 60.7793)" fill="#80ACFF"/>
<rect width="4.36973" height="143.65" transform="matrix(0.648361 -0.761333 0.648361 0.761333 756.869 53.0469)" fill="#80ACFF"/>
<rect width="4.36973" height="143.65" transform="matrix(0.648361 -0.761333 0.648361 0.761333 759.911 43.5234)" fill="#80ACFF"/>
<rect width="4.36973" height="143.65" transform="matrix(0.648361 -0.761333 0.648361 0.761333 764.979 35.1895)" fill="#80ACFF"/>
<rect width="4.36973" height="143.65" transform="matrix(0.648361 -0.761333 0.648361 0.761333 769.541 28.0469)" fill="#80ACFF"/>
<rect width="4.36973" height="143.65" transform="matrix(0.648361 -0.761333 0.648361 0.761333 776.13 22.0957)" fill="#80ACFF"/>
<rect width="4.36973" height="143.65" transform="matrix(0.648361 -0.761333 0.648361 0.761333 783.732 16.7402)" fill="#80ACFF"/>
<rect width="4.36973" height="143.65" transform="matrix(0.648361 -0.761333 0.648361 0.761333 789.812 10.1953)" fill="#80ACFF"/>
</g>
<rect x="228.578" y="83.3184" width="83.319" height="70.9555" transform="rotate(-90 228.578 83.3184)" fill="#272833"/>
<rect x="685.948" y="83.3203" width="83.319" height="70.9555" transform="rotate(-90 685.948 83.3203)" fill="#272833"/>
<rect x="157.623" y="166.639" width="83.319" height="70.9555" transform="rotate(-90 157.623 166.639)" fill="#0050C8"/>
<rect x="614.994" y="166.639" width="83.319" height="70.9555" transform="rotate(-90 614.994 166.639)" fill="#0050C8"/>
<rect x="1072.37" y="166.639" width="83.319" height="70.9555" transform="rotate(-90 1072.37 166.639)" fill="#0050C8"/>
<rect x="89.2004" y="83.3184" width="83.319" height="70.9555" transform="rotate(-90 89.2004 83.3184)" fill="#0050C8"/>
<rect x="546.572" y="83.3203" width="83.319" height="70.9555" transform="rotate(-90 546.572 83.3203)" fill="#0050C8"/>
<rect x="1003.94" y="83.3203" width="83.319" height="70.9555" transform="rotate(-90 1003.94 83.3203)" fill="#0050C8"/>
<rect x="387.673" y="83.3184" width="83.319" height="70.9555" transform="rotate(-90 387.673 83.3184)" fill="white"/>
<rect x="845.046" y="83.3203" width="83.319" height="70.9555" transform="rotate(-90 845.046 83.3203)" fill="white"/>
<ellipse cx="124.678" cy="41.6615" rx="13.6881" ry="11.657" transform="rotate(-90 124.678 41.6615)" fill="white"/>
<ellipse cx="582.05" cy="41.6615" rx="13.6881" ry="11.657" transform="rotate(-90 582.05 41.6615)" fill="white"/>
<ellipse cx="1039.42" cy="41.6615" rx="13.6881" ry="11.657" transform="rotate(-90 1039.42 41.6615)" fill="white"/>
<ellipse cx="183.724" cy="33.0292" rx="5.05865" ry="4.30802" transform="rotate(-90 183.724 33.0292)" fill="#80ACFF"/>
<ellipse cx="641.095" cy="33.0292" rx="5.05865" ry="4.30802" transform="rotate(-90 641.095 33.0292)" fill="#80ACFF"/>
<ellipse cx="1098.47" cy="33.0292" rx="5.05865" ry="4.30802" transform="rotate(-90 1098.47 33.0292)" fill="#80ACFF"/>
<ellipse cx="183.724" cy="5.05853" rx="5.05865" ry="4.30802" transform="rotate(-90 183.724 5.05853)" fill="#80ACFF"/>
<ellipse cx="641.095" cy="5.05853" rx="5.05865" ry="4.30802" transform="rotate(-90 641.095 5.05853)" fill="#80ACFF"/>
<ellipse cx="1098.47" cy="5.05853" rx="5.05865" ry="4.30802" transform="rotate(-90 1098.47 5.05853)" fill="#80ACFF"/>
<ellipse opacity="0.5" cx="228.438" cy="82.554" rx="27.9714" ry="23.8208" transform="rotate(-90 228.438 82.554)" fill="white"/>
<ellipse opacity="0.5" cx="685.81" cy="82.554" rx="27.9714" ry="23.8208" transform="rotate(-90 685.81 82.554)" fill="white"/>
<ellipse opacity="0.5" cx="1143.18" cy="82.554" rx="27.9714" ry="23.8208" transform="rotate(-90 1143.18 82.554)" fill="white"/>
</g>
</svg>
