<svg width="19" height="17" viewBox="0 0 19 17" fill="none" xmlns="http://www.w3.org/2000/svg">
<circle cx="11.9628" cy="7.74016" r="7.03704" fill="#B3CDFF"/>
<g clip-path="url(#clip0_9610_207376)">
<path d="M8.44575 3.12939C9.48959 3.12939 10.51 3.43893 11.3779 4.01886C12.2458 4.59879 12.9223 5.42307 13.3218 6.38745C13.7212 7.35184 13.8258 8.41303 13.6221 9.43682C13.4185 10.4606 12.9158 11.401 12.1777 12.1391C11.4396 12.8772 10.4992 13.3799 9.47539 13.5835C8.4516 13.7872 7.39042 13.6827 6.42603 13.2832C5.46164 12.8837 4.63736 12.2073 4.05743 11.3393C3.47751 10.4714 3.16797 9.45102 3.16797 8.40717" stroke="#1E0A3C" stroke-linecap="round" stroke-linejoin="round"/>
<path d="M16.1438 10.2197C15.9796 10.919 15.7223 11.593 15.3789 12.2239" stroke="#1E0A3C" stroke-linecap="round" stroke-linejoin="round"/>
<path d="M13.9424 14.0957C13.4223 14.5911 12.8419 15.019 12.2148 15.3694" stroke="#1E0A3C" stroke-linecap="round" stroke-linejoin="round"/>
<path d="M9.14453 0.525879C9.86014 0.589274 10.5636 0.750762 11.2352 1.0058" stroke="#1E0A3C" stroke-linecap="round" stroke-linejoin="round"/>
<path d="M13.293 2.15674C13.8627 2.59424 14.3676 3.11026 14.7926 3.6894" stroke="#1E0A3C" stroke-linecap="round" stroke-linejoin="round"/>
<path d="M15.9023 5.77051C16.1477 6.44573 16.2932 7.15313 16.3344 7.87036" stroke="#1E0A3C" stroke-linecap="round" stroke-linejoin="round"/>
<path d="M10.029 16.1656C9.01012 16.3735 7.9603 16.3787 6.93945 16.1809C5.91859 15.9831 4.94669 15.5862 4.07924 15.0128C2.32734 13.8548 1.10722 12.0482 0.687292 9.99059C0.267366 7.93295 0.682032 5.79278 1.84007 4.04088C2.99811 2.28897 4.80465 1.06885 6.86229 0.648926" stroke="#1E0A3C" stroke-linecap="round" stroke-linejoin="round"/>
</g>
<defs>
<clipPath id="clip0_9610_207376">
<rect width="16.8889" height="16.8889" fill="white"/>
</clipPath>
</defs>
</svg>
