<svg width="24" height="24" viewBox="0 0 24 24" fill="none" xmlns="http://www.w3.org/2000/svg">
<circle cx="12" cy="12" r="12" fill="#F9F9F9"/>
<path fill-rule="evenodd" clip-rule="evenodd" d="M17.0005 7.96282C16.6256 7.58791 16.0177 7.58791 15.6428 7.96282L12.4816 11.124L9.32046 7.96282C8.94556 7.58791 8.33772 7.58791 7.96282 7.96282C7.58791 8.33772 7.58791 8.94556 7.96282 9.32046L11.124 12.4816L7.96282 15.6428C7.58791 16.0177 7.58791 16.6256 7.96282 17.0005C8.33772 17.3754 8.94556 17.3754 9.32046 17.0005L12.4816 13.8393L15.6428 17.0005C16.0177 17.3754 16.6256 17.3754 17.0005 17.0005C17.3754 16.6256 17.3754 16.0177 17.0005 15.6428L13.8393 12.4816L17.0005 9.32046C17.3754 8.94556 17.3754 8.33772 17.0005 7.96282Z" fill="#051033" fill-opacity="0.01"/>
<mask id="mask0_3571_128581" style="mask-type:alpha" maskUnits="userSpaceOnUse" x="7" y="7" width="11" height="11">
<path fill-rule="evenodd" clip-rule="evenodd" d="M17.0005 7.96282C16.6256 7.58791 16.0177 7.58791 15.6428 7.96282L12.4816 11.124L9.32046 7.96282C8.94556 7.58791 8.33772 7.58791 7.96282 7.96282C7.58791 8.33772 7.58791 8.94556 7.96282 9.32046L11.124 12.4816L7.96282 15.6428C7.58791 16.0177 7.58791 16.6256 7.96282 17.0005C8.33772 17.3754 8.94556 17.3754 9.32046 17.0005L12.4816 13.8393L15.6428 17.0005C16.0177 17.3754 16.6256 17.3754 17.0005 17.0005C17.3754 16.6256 17.3754 16.0177 17.0005 15.6428L13.8393 12.4816L17.0005 9.32046C17.3754 8.94556 17.3754 8.33772 17.0005 7.96282Z" fill="white"/>
</mask>
<g mask="url(#mask0_3571_128581)">
<path fill-rule="evenodd" clip-rule="evenodd" d="M0.960938 0.960938H24.0009V24.0009H0.960938V0.960938Z" fill="#182C4F"/>
</g>
</svg>
