<svg width="12" height="13" viewBox="0 0 12 13" fill="currentColor" xmlns="http://www.w3.org/2000/svg">
<path d="M6.00923 0.126411H6C2.68615 0.126411 0 2.8105 0 6.1218C0 9.42387 2.68615 12.1172 6 12.1172C9.30462 12.108 12 9.42387 12 6.1218C11.9908 2.8105 9.30462 0.126411 6 0.117188L6.00923 0.126411ZM8.88923 3.95424C9.19385 4.1756 9.24923 4.60912 9.01846 4.92272L6.33231 8.49228V8.48306C5.86154 9.09182 4.98462 9.20251 4.36615 8.7321C4.32 8.6952 4.27385 8.65831 4.22769 8.61219L2.84308 7.22864L2.83385 7.21942C2.55692 6.94271 2.55692 6.50919 2.83385 6.24079C3.10154 5.96407 3.53539 5.96407 3.81323 6.24079L4.82862 7.25539L4.81939 7.24617C4.99477 7.42141 5.29015 7.42142 5.46554 7.23694C5.47477 7.21849 5.49323 7.20005 5.50246 7.1816L7.85631 4.0271H7.84708C8.06861 3.72272 8.50246 3.65816 8.80708 3.87952L8.88923 3.95424Z" fill="currentColor"/>
</svg>
