<svg width="26" height="26" viewBox="0 0 26 26" fill="none" xmlns="http://www.w3.org/2000/svg">
<path fill-rule="evenodd" clip-rule="evenodd" d="M13 0C5.8318 0 0 5.8318 0 13C0 20.1682 5.8318 26 13 26C20.1682 26 26 20.1682 26 13C26 5.8318 20.1682 0 13 0ZM12.9996 23.4001C7.26531 23.4001 2.59961 18.7344 2.59961 13.0001C2.59961 7.26576 7.26531 2.60006 12.9996 2.60006C18.7339 2.60006 23.3996 7.26576 23.3996 13.0001C23.3996 18.7344 18.7339 23.4001 12.9996 23.4001ZM15.981 9.48079L11.7001 13.7617L10.0192 12.0808C9.51093 11.5725 8.68933 11.5725 8.18103 12.0808C7.67273 12.5891 7.67273 13.4107 8.18103 13.919L10.781 16.519C11.0345 16.7725 11.3673 16.8999 11.7001 16.8999C12.0329 16.8999 12.3657 16.7725 12.6192 16.519L17.8192 11.319C18.3275 10.8107 18.3275 9.98909 17.8192 9.48079C17.3109 8.97249 16.4893 8.97249 15.981 9.48079Z" fill="#CDCED9"/>
<mask id="mask0_1061_111428" style="mask-type:alpha" maskUnits="userSpaceOnUse" x="0" y="0" width="26" height="26">
<path fill-rule="evenodd" clip-rule="evenodd" d="M13 0C5.8318 0 0 5.8318 0 13C0 20.1682 5.8318 26 13 26C20.1682 26 26 20.1682 26 13C26 5.8318 20.1682 0 13 0ZM12.9996 23.4001C7.26531 23.4001 2.59961 18.7344 2.59961 13.0001C2.59961 7.26576 7.26531 2.60006 12.9996 2.60006C18.7339 2.60006 23.3996 7.26576 23.3996 13.0001C23.3996 18.7344 18.7339 23.4001 12.9996 23.4001ZM15.981 9.48079L11.7001 13.7617L10.0192 12.0808C9.51093 11.5725 8.68933 11.5725 8.18103 12.0808C7.67273 12.5891 7.67273 13.4107 8.18103 13.919L10.781 16.519C11.0345 16.7725 11.3673 16.8999 11.7001 16.8999C12.0329 16.8999 12.3657 16.7725 12.6192 16.519L17.8192 11.319C18.3275 10.8107 18.3275 9.98909 17.8192 9.48079C17.3109 8.97249 16.4893 8.97249 15.981 9.48079Z" fill="white"/>
</mask>
<g mask="url(#mask0_1061_111428)">
</g>
</svg>
