<svg width="32" height="33" viewBox="0 0 32 33" fill="none" xmlns="http://www.w3.org/2000/svg">
<path d="M26.6666 28.167H5.33331C4.80289 28.167 4.29417 27.9563 3.9191 27.5813C3.54403 27.2062 3.33331 26.6974 3.33331 26.167C3.33331 25.6366 3.54403 25.1278 3.9191 24.7527C4.29417 24.3777 4.80289 24.167 5.33331 24.167H26.6666C27.197 24.167 27.7058 24.3777 28.0809 24.7527C28.456 25.1278 28.6666 25.6366 28.6666 26.167C28.6666 26.6974 28.456 27.2062 28.0809 27.5813C27.7058 27.9563 27.197 28.167 26.6666 28.167Z" fill="#E3E3E3"/>
<path d="M26.6667 24.1667H5.33335C5.06773 24.1556 4.80271 24.1998 4.55503 24.2963C4.30733 24.393 4.08239 24.5399 3.89441 24.7278C3.70643 24.9158 3.55951 25.1407 3.46293 25.3884C3.36636 25.6362 3.32223 25.9011 3.33335 26.1667H28.652C28.664 25.9022 28.6209 25.638 28.5256 25.3908C28.4303 25.1438 28.2848 24.9191 28.0981 24.7311C27.9116 24.5432 27.688 24.396 27.4416 24.2988C27.1952 24.2016 26.9313 24.1567 26.6667 24.1667Z" fill="white"/>
<path d="M26 24.167L28.96 12.7923L23.8253 17.7003C23.7612 17.7617 23.6856 17.8097 23.6027 17.8413C23.5199 17.873 23.4316 17.8879 23.3429 17.885C23.2543 17.8822 23.1671 17.8617 23.0864 17.8247C23.0057 17.7877 22.9333 17.735 22.8733 17.6697L16 10.167L9.13201 17.6617C9.07157 17.7274 8.99853 17.7805 8.91722 17.8174C8.83592 17.8545 8.74801 17.8747 8.6587 17.8771C8.56941 17.8794 8.48054 17.8638 8.3974 17.8311C8.31425 17.7985 8.2385 17.7495 8.17468 17.687L3.13068 12.779L6.00001 24.167H26Z" fill="#FFEF5E"/>
<path d="M16 10.167L9.13201 17.6617C9.07157 17.7274 8.99853 17.7805 8.91722 17.8174C8.83592 17.8545 8.74801 17.8747 8.6587 17.8771C8.56941 17.8794 8.48054 17.8638 8.3974 17.8311C8.31425 17.7985 8.2385 17.7495 8.17468 17.687L3.13068 12.779L6.00001 24.167H16V10.167Z" fill="#FFF9BF"/>
<path d="M16 10.1663C17.4728 10.1663 18.6666 8.97243 18.6666 7.49967C18.6666 6.02691 17.4728 4.83301 16 4.83301C14.5272 4.83301 13.3333 6.02691 13.3333 7.49967C13.3333 8.97243 14.5272 10.1663 16 10.1663Z" fill="#FF808C"/>
<path d="M14.1147 9.38545C13.6289 8.88251 13.3601 8.2089 13.3663 7.50971C13.3723 6.81051 13.6527 6.14169 14.1472 5.64726C14.6416 5.15285 15.3104 4.87239 16.0096 4.86631C16.7088 4.86023 17.3824 5.12902 17.8853 5.61478L14.1147 9.38545Z" fill="#FFBFC5"/>
<path d="M26 24.167L28.96 12.7923L23.8253 17.7003C23.7612 17.7617 23.6856 17.8097 23.6027 17.8413C23.5199 17.873 23.4316 17.8879 23.3429 17.885C23.2543 17.8822 23.1671 17.8617 23.0864 17.8247C23.0057 17.7877 22.9333 17.735 22.8733 17.6697L16 10.167L9.13201 17.6617C9.07157 17.7274 8.99853 17.7805 8.91722 17.8174C8.83592 17.8545 8.74801 17.8747 8.6587 17.8771C8.56941 17.8794 8.48054 17.8638 8.3974 17.8311C8.31425 17.7985 8.2385 17.7495 8.17468 17.687L3.13068 12.779L6.00001 24.167" stroke="#191919" stroke-linecap="round" stroke-linejoin="round"/>
<path d="M16 10.1663C17.4728 10.1663 18.6666 8.97243 18.6666 7.49967C18.6666 6.02691 17.4728 4.83301 16 4.83301C14.5272 4.83301 13.3333 6.02691 13.3333 7.49967C13.3333 8.97243 14.5272 10.1663 16 10.1663Z" stroke="#191919" stroke-linecap="round" stroke-linejoin="round"/>
<path d="M2.66669 12.833C3.77126 12.833 4.66669 11.9376 4.66669 10.833C4.66669 9.72843 3.77126 8.83301 2.66669 8.83301C1.56211 8.83301 0.666687 9.72843 0.666687 10.833C0.666687 11.9376 1.56211 12.833 2.66669 12.833Z" fill="#FF808C" stroke="#191919" stroke-linecap="round" stroke-linejoin="round"/>
<path d="M29.3333 12.833C30.4378 12.833 31.3333 11.9376 31.3333 10.833C31.3333 9.72843 30.4378 8.83301 29.3333 8.83301C28.2288 8.83301 27.3333 9.72843 27.3333 10.833C27.3333 11.9376 28.2288 12.833 29.3333 12.833Z" fill="#FF808C" stroke="#191919" stroke-linecap="round" stroke-linejoin="round"/>
<path d="M26.6666 28.167H5.33331C4.80289 28.167 4.29417 27.9563 3.9191 27.5813C3.54403 27.2062 3.33331 26.6974 3.33331 26.167C3.33331 25.6366 3.54403 25.1278 3.9191 24.7527C4.29417 24.3777 4.80289 24.167 5.33331 24.167H26.6666C27.197 24.167 27.7058 24.3777 28.0809 24.7527C28.456 25.1278 28.6666 25.6366 28.6666 26.167C28.6666 26.6974 28.456 27.2062 28.0809 27.5813C27.7058 27.9563 27.197 28.167 26.6666 28.167Z" stroke="#191919" stroke-linecap="round" stroke-linejoin="round"/>
</svg>
