<svg width="24" height="25" viewBox="0 0 24 25" fill="none" xmlns="http://www.w3.org/2000/svg">
<rect y="0.5" width="24" height="24" rx="2" fill="#E6EDFF"/>
<path d="M6.66667 6.77778C6.17575 6.77778 5.77778 7.17575 5.77778 7.66667C5.77778 8.15759 6.17575 8.55556 6.66667 8.55556H8.44444C8.93536 8.55556 9.33333 8.15759 9.33333 7.66667C9.33333 7.17575 8.93536 6.77778 8.44444 6.77778H6.66667ZM15.6667 6.77778C15.1144 6.77778 14.6667 7.22549 14.6667 7.77778V11.1111C14.6667 11.6634 15.1144 12.1111 15.6667 12.1111H17.2222C17.7745 12.1111 18.2222 11.6634 18.2222 11.1111V7.77778C18.2222 7.22549 17.7745 6.77778 17.2222 6.77778H15.6667ZM6.77778 13.8889C6.22549 13.8889 5.77778 14.3366 5.77778 14.8889V18.2222C5.77778 18.7745 6.22549 19.2222 6.77778 19.2222H8.33333C8.88562 19.2222 9.33333 18.7745 9.33333 18.2222V14.8889C9.33333 14.3366 8.88562 13.8889 8.33333 13.8889H6.77778ZM15.5556 17.4444C15.0646 17.4444 14.6667 17.8424 14.6667 18.3333C14.6667 18.8243 15.0646 19.2222 15.5556 19.2222H17.3333C17.8243 19.2222 18.2222 18.8243 18.2222 18.3333C18.2222 17.8424 17.8243 17.4444 17.3333 17.4444H15.5556ZM4 6C4 5.44772 4.44771 5 5 5H10.1111C10.6634 5 11.1111 5.44772 11.1111 6V9.33333C11.1111 9.88562 10.6634 10.3333 10.1111 10.3333H5C4.44771 10.3333 4 9.88562 4 9.33333V6ZM12.8889 6C12.8889 5.44772 13.3366 5 13.8889 5H19C19.5523 5 20 5.44772 20 6V12.8889C20 13.4412 19.5523 13.8889 19 13.8889H13.8889C13.3366 13.8889 12.8889 13.4412 12.8889 12.8889V6ZM4 13.1111C4 12.5588 4.44771 12.1111 5 12.1111H10.1111C10.6634 12.1111 11.1111 12.5588 11.1111 13.1111V20C11.1111 20.5523 10.6634 21 10.1111 21H5C4.44771 21 4 20.5523 4 20V13.1111ZM12.8889 16.6667C12.8889 16.1144 13.3366 15.6667 13.8889 15.6667H19C19.5523 15.6667 20 16.1144 20 16.6667V20C20 20.5523 19.5523 21 19 21H13.8889C13.3366 21 12.8889 20.5523 12.8889 20V16.6667Z" fill="#0050C8"/>
</svg>
