<svg width="56" height="56" viewBox="0 0 56 56" fill="none" xmlns="http://www.w3.org/2000/svg">
<rect width="56" height="56" rx="28" fill="#F0F5FF"/>
<path d="M30.6668 17.9995H18.6664C18.2982 17.9995 17.9997 18.298 17.9997 18.6662V32C17.9997 32.3682 18.2982 32.6667 18.6664 32.6667H30.6668C31.035 32.6667 31.3335 32.3682 31.3335 32V18.6662C31.3335 18.298 31.035 17.9995 30.6668 17.9995Z" stroke="#0050C8" stroke-width="1.33338" stroke-linecap="round" stroke-linejoin="round"/>
<path d="M31.3335 28.6665H17.9997" stroke="#0050C8" stroke-width="1.33338" stroke-linecap="round" stroke-linejoin="round"/>
<path d="M34.0046 22.8716L37.5443 24.0512C37.6274 24.0789 37.7042 24.1227 37.7703 24.1801C37.8364 24.2375 37.8906 24.3074 37.9297 24.3857C37.9689 24.464 37.9922 24.5493 37.9983 24.6367C38.0045 24.724 37.9934 24.8117 37.9657 24.8948L33.7495 37.5441C33.7218 37.6272 33.678 37.704 33.6206 37.7701C33.5632 37.8362 33.4933 37.8904 33.415 37.9295C33.3367 37.9687 33.2514 37.992 33.164 37.9981C33.0767 38.0043 32.989 37.9932 32.9059 37.9655L23.3376 34.776" stroke="#0050C8" stroke-width="1.33338" stroke-linecap="round" stroke-linejoin="round"/>
<path d="M21.9998 28.6666L25.6888 23.3935C25.8047 23.2274 25.9569 23.09 26.1339 22.9915C26.3108 22.893 26.5078 22.8362 26.71 22.8252C26.9122 22.8142 27.1143 22.8495 27.3008 22.9282C27.4874 23.007 27.6535 23.1272 27.7867 23.2797L31.3335 27.3332" stroke="#0050C8" stroke-width="1.33338" stroke-linecap="round" stroke-linejoin="round"/>
<path d="M21.8336 23.334C22.6623 23.334 23.3341 22.6622 23.3341 21.8335C23.3341 21.0048 22.6623 20.333 21.8336 20.333C21.0049 20.333 20.3331 21.0048 20.3331 21.8335C20.3331 22.6622 21.0049 23.334 21.8336 23.334Z" stroke="#0050C8" stroke-width="1.33338" stroke-linecap="round" stroke-linejoin="round"/>
</svg>
