<svg width="20" height="20" viewBox="0 0 20 20" fill="none" xmlns="http://www.w3.org/2000/svg">
<g clip-path="url(#clip0_14352_51874)">
<path d="M0.625 19.375V0.625" stroke="#804C00" stroke-width="1.5" stroke-linecap="round" stroke-linejoin="round"/>
<path d="M0.625 14.7566L3.25333 13.9482C4.34209 13.613 5.48984 13.514 6.61993 13.6577C7.75002 13.8014 8.83645 14.1845 9.80667 14.7816C10.7535 15.3651 11.8114 15.7452 12.9131 15.8975C14.0148 16.0499 15.1362 15.9712 16.2058 15.6666L18.695 14.9549C18.8909 14.8989 19.0633 14.7806 19.186 14.6179C19.3087 14.4552 19.375 14.257 19.375 14.0532V4.28072C19.3749 4.13565 19.3411 3.9926 19.2763 3.86278C19.2116 3.73297 19.1176 3.61994 19.0018 3.53257C18.886 3.44519 18.7516 3.38586 18.609 3.35922C18.4664 3.33258 18.3195 3.33937 18.18 3.37905L16.2058 3.94322C15.1365 4.24864 14.0153 4.32813 12.9136 4.17663C11.8119 4.02513 10.7538 3.64595 9.80667 3.06322C8.83645 2.4662 7.75002 2.08304 6.61993 1.93934C5.48984 1.79564 4.34209 1.89469 3.25333 2.22989L0.625 3.03739" stroke="#804C00" stroke-width="1.5" stroke-linecap="round" stroke-linejoin="round"/>
</g>
<defs>
<clipPath id="clip0_14352_51874">
<rect width="20" height="20" fill="white"/>
</clipPath>
</defs>
</svg>
