<svg width="41" height="40" viewBox="0 0 41 40" fill="none" xmlns="http://www.w3.org/2000/svg">
<path fill-rule="evenodd" clip-rule="evenodd" d="M8 35.0003H36.3333C37.714 35.0003 38.8333 33.881 38.8333 32.5003V14.167C38.8333 12.7863 37.714 11.667 36.3333 11.667H18.8333L14.5656 7.39922C14.0967 6.93038 13.4608 6.66699 12.7978 6.66699H8C6.61929 6.66699 5.5 7.78628 5.5 9.16699V32.5003C5.5 33.881 6.61929 35.0003 8 35.0003Z" fill="#D1822C"/>
<path fill-rule="evenodd" clip-rule="evenodd" d="M4.6665 31.6663H32.9998C34.3805 31.6663 35.4998 30.5471 35.4998 29.1663V10.833C35.4998 9.4523 34.3805 8.33301 32.9998 8.33301H15.4998L11.2321 4.06524C10.7632 3.5964 10.1273 3.33301 9.4643 3.33301H4.6665C3.28579 3.33301 2.1665 4.4523 2.1665 5.83301V29.1663C2.1665 30.5471 3.28579 31.6663 4.6665 31.6663Z" fill="#F3B357"/>
<path fill-rule="evenodd" clip-rule="evenodd" d="M24.5606 22.509H21.2998V25.8551C21.2998 26.3154 20.9267 26.6885 20.4664 26.6885H18.761C18.3007 26.6885 17.9276 26.3154 17.9276 25.8551V22.509H14.6668C14.2066 22.509 13.8335 22.1359 13.8335 21.6757C13.8335 21.4785 13.9034 21.2877 14.0308 21.1372L18.9777 15.2944C19.2751 14.9432 19.8009 14.8995 20.1522 15.1969C20.1873 15.2267 20.2199 15.2593 20.2497 15.2944L25.1966 21.1372C25.494 21.4885 25.4503 22.0143 25.099 22.3117C24.9486 22.4391 24.7578 22.509 24.5606 22.509Z" fill="#EB9B2C"/>
</svg>
