<svg width="1048" height="74" viewBox="0 0 1048 74" fill="none" xmlns="http://www.w3.org/2000/svg">
<g opacity="0.1">
<rect x="-33" y="19.4248" width="34.8961" height="34.8961" transform="rotate(-90 -33 19.4248)" fill="white"/>
<mask id="mask0_10883_230670" style="mask-type:alpha" maskUnits="userSpaceOnUse" x="-32" y="-11" width="85" height="86">
<rect x="-31.8008" y="74.001" width="84.3323" height="84.3323" transform="rotate(-90 -31.8008 74.001)" fill="#FFBB9C"/>
</mask>
<g mask="url(#mask0_10883_230670)">
<rect x="-45.5664" y="42.6553" width="3.83153" height="65.8522" transform="rotate(-45 -45.5664 42.6553)" fill="#80ACFF"/>
<rect x="-41.4922" y="36.1606" width="3.83153" height="65.8522" transform="rotate(-45 -41.4922 36.1606)" fill="#80ACFF"/>
<rect x="-46.7891" y="20.687" width="3.83153" height="95.9119" transform="rotate(-45 -46.7891 20.687)" fill="#80ACFF"/>
<rect x="-41.4922" y="14.9058" width="3.83153" height="95.9119" transform="rotate(-45 -41.4922 14.9058)" fill="#80ACFF"/>
<rect x="-44.4219" y="1.31787" width="3.83153" height="120.637" transform="rotate(-45 -44.4219 1.31787)" fill="#80ACFF"/>
<rect x="-41.8633" y="-7.30957" width="3.83153" height="125.958" transform="rotate(-45 -41.8633 -7.30957)" fill="#80ACFF"/>
<rect x="-36.1602" y="-12.1558" width="3.83153" height="125.958" transform="rotate(-45 -36.1602 -12.1558)" fill="#80ACFF"/>
<rect x="-31.8008" y="-18.457" width="3.83153" height="125.958" transform="rotate(-45 -31.8008 -18.457)" fill="#80ACFF"/>
<rect x="-28.8906" y="-26.2119" width="3.83153" height="125.958" transform="rotate(-45 -28.8906 -26.2119)" fill="#80ACFF"/>
<rect x="-24.043" y="-32.9971" width="3.83153" height="125.958" transform="rotate(-45 -24.043 -32.9971)" fill="#80ACFF"/>
<rect x="-19.6836" y="-38.8125" width="3.83153" height="125.958" transform="rotate(-45 -19.6836 -38.8125)" fill="#80ACFF"/>
<rect x="-13.3789" y="-43.6606" width="3.83153" height="125.958" transform="rotate(-45 -13.3789 -43.6606)" fill="#80ACFF"/>
<rect x="-6.11328" y="-48.0225" width="3.83153" height="125.958" transform="rotate(-45 -6.11328 -48.0225)" fill="#80ACFF"/>
<rect x="-0.296875" y="-53.3525" width="3.83153" height="125.958" transform="rotate(-45 -0.296875 -53.3525)" fill="#80ACFF"/>
</g>
<mask id="mask1_10883_230670" style="mask-type:alpha" maskUnits="userSpaceOnUse" x="405" y="-11" width="85" height="86">
<rect x="405.578" y="74.001" width="84.3323" height="84.3323" transform="rotate(-90 405.578 74.001)" fill="#FFBB9C"/>
</mask>
<g mask="url(#mask1_10883_230670)">
<rect x="393.461" y="54.9653" width="3.83153" height="39.2581" transform="rotate(-45 393.461 54.9653)" fill="#80ACFF"/>
<rect x="387.16" y="58.8433" width="3.83153" height="39.2581" transform="rotate(-45 387.16 58.8433)" fill="#80ACFF"/>
<rect x="391.812" y="42.6553" width="3.83153" height="65.8522" transform="rotate(-45 391.812 42.6553)" fill="#80ACFF"/>
<rect x="395.883" y="36.1606" width="3.83153" height="65.8522" transform="rotate(-45 395.883 36.1606)" fill="#80ACFF"/>
<rect x="390.586" y="20.687" width="3.83153" height="95.9119" transform="rotate(-45 390.586 20.687)" fill="#80ACFF"/>
<rect x="395.883" y="14.9058" width="3.83153" height="95.9119" transform="rotate(-45 395.883 14.9058)" fill="#80ACFF"/>
<rect x="392.957" y="1.31787" width="3.83153" height="120.637" transform="rotate(-45 392.957 1.31787)" fill="#80ACFF"/>
<rect x="395.516" y="-7.30957" width="3.83153" height="125.958" transform="rotate(-45 395.516 -7.30957)" fill="#80ACFF"/>
<rect x="401.215" y="-12.1558" width="3.83153" height="125.958" transform="rotate(-45 401.215 -12.1558)" fill="#80ACFF"/>
<rect x="405.578" y="-18.457" width="3.83153" height="125.958" transform="rotate(-45 405.578 -18.457)" fill="#80ACFF"/>
<rect x="408.484" y="-26.2119" width="3.83153" height="125.958" transform="rotate(-45 408.484 -26.2119)" fill="#80ACFF"/>
<rect x="413.332" y="-32.9971" width="3.83153" height="125.958" transform="rotate(-45 413.332 -32.9971)" fill="#80ACFF"/>
<rect x="417.691" y="-38.8125" width="3.83153" height="125.958" transform="rotate(-45 417.691 -38.8125)" fill="#80ACFF"/>
<rect x="423.996" y="-43.6606" width="3.83153" height="125.958" transform="rotate(-45 423.996 -43.6606)" fill="#80ACFF"/>
<rect x="431.266" y="-48.0225" width="3.83153" height="125.958" transform="rotate(-45 431.266 -48.0225)" fill="#80ACFF"/>
<rect x="437.082" y="-53.3525" width="3.83153" height="125.958" transform="rotate(-45 437.082 -53.3525)" fill="#80ACFF"/>
</g>
<mask id="mask2_10883_230670" style="mask-type:alpha" maskUnits="userSpaceOnUse" x="842" y="-11" width="86" height="86">
<rect x="842.953" y="74.001" width="84.3323" height="84.3323" transform="rotate(-90 842.953 74.001)" fill="#FFBB9C"/>
</mask>
<g mask="url(#mask2_10883_230670)">
<rect x="830.836" y="54.9653" width="3.83153" height="39.2581" transform="rotate(-45 830.836 54.9653)" fill="#80ACFF"/>
<rect x="824.535" y="58.8433" width="3.83153" height="39.2581" transform="rotate(-45 824.535 58.8433)" fill="#80ACFF"/>
<rect x="829.188" y="42.6553" width="3.83153" height="65.8522" transform="rotate(-45 829.188 42.6553)" fill="#80ACFF"/>
<rect x="833.262" y="36.1606" width="3.83153" height="65.8522" transform="rotate(-45 833.262 36.1606)" fill="#80ACFF"/>
<rect x="827.961" y="20.687" width="3.83153" height="95.9119" transform="rotate(-45 827.961 20.687)" fill="#80ACFF"/>
<rect x="833.262" y="14.9058" width="3.83153" height="95.9119" transform="rotate(-45 833.262 14.9058)" fill="#80ACFF"/>
<rect x="830.332" y="1.31787" width="3.83153" height="120.637" transform="rotate(-45 830.332 1.31787)" fill="#80ACFF"/>
<rect x="832.891" y="-7.30957" width="3.83153" height="125.958" transform="rotate(-45 832.891 -7.30957)" fill="#80ACFF"/>
<rect x="838.59" y="-12.1558" width="3.83153" height="125.958" transform="rotate(-45 838.59 -12.1558)" fill="#80ACFF"/>
<rect x="842.953" y="-18.457" width="3.83153" height="125.958" transform="rotate(-45 842.953 -18.457)" fill="#80ACFF"/>
<rect x="845.859" y="-26.2119" width="3.83153" height="125.958" transform="rotate(-45 845.859 -26.2119)" fill="#80ACFF"/>
<rect x="850.707" y="-32.9971" width="3.83153" height="125.958" transform="rotate(-45 850.707 -32.9971)" fill="#80ACFF"/>
<rect x="855.066" y="-38.8125" width="3.83153" height="125.958" transform="rotate(-45 855.066 -38.8125)" fill="#80ACFF"/>
<rect x="861.371" y="-43.6606" width="3.83153" height="125.958" transform="rotate(-45 861.371 -43.6606)" fill="#80ACFF"/>
<rect x="868.641" y="-48.0225" width="3.83153" height="125.958" transform="rotate(-45 868.641 -48.0225)" fill="#80ACFF"/>
<rect x="874.457" y="-53.3525" width="3.83153" height="125.958" transform="rotate(-45 874.457 -53.3525)" fill="#80ACFF"/>
</g>
<mask id="mask3_10883_230670" style="mask-type:alpha" maskUnits="userSpaceOnUse" x="253" y="-11" width="85" height="85">
<rect x="253.406" y="73.6572" width="84.3323" height="84.3323" transform="rotate(-90 253.406 73.6572)" fill="#FFBB9C"/>
</mask>
<g mask="url(#mask3_10883_230670)">
<rect x="241.289" y="54.6216" width="3.83153" height="39.2581" transform="rotate(-45 241.289 54.6216)" fill="#80ACFF"/>
<rect x="234.988" y="58.4985" width="3.83153" height="39.2581" transform="rotate(-45 234.988 58.4985)" fill="#80ACFF"/>
<rect x="239.641" y="42.311" width="3.83153" height="65.8522" transform="rotate(-45 239.641 42.311)" fill="#80ACFF"/>
<rect x="243.715" y="35.8169" width="3.83153" height="65.8522" transform="rotate(-45 243.715 35.8169)" fill="#80ACFF"/>
<rect x="238.414" y="20.3418" width="3.83153" height="95.9119" transform="rotate(-45 238.414 20.3418)" fill="#80ACFF"/>
<rect x="243.715" y="14.5615" width="3.83153" height="95.9119" transform="rotate(-45 243.715 14.5615)" fill="#80ACFF"/>
<rect x="240.789" y="0.972656" width="3.83153" height="120.637" transform="rotate(-45 240.789 0.972656)" fill="#80ACFF"/>
<rect x="243.344" y="-7.65381" width="3.83153" height="125.958" transform="rotate(-45 243.344 -7.65381)" fill="#80ACFF"/>
<rect x="249.047" y="-12.5" width="3.83153" height="125.958" transform="rotate(-45 249.047 -12.5)" fill="#80ACFF"/>
<rect x="253.406" y="-18.8003" width="3.83153" height="125.958" transform="rotate(-45 253.406 -18.8003)" fill="#80ACFF"/>
<rect x="256.312" y="-26.5557" width="3.83153" height="125.958" transform="rotate(-45 256.312 -26.5557)" fill="#80ACFF"/>
<rect x="261.16" y="-33.3423" width="3.83153" height="125.958" transform="rotate(-45 261.16 -33.3423)" fill="#80ACFF"/>
<rect x="265.52" y="-39.1577" width="3.83153" height="125.958" transform="rotate(-45 265.52 -39.1577)" fill="#80ACFF"/>
<rect x="271.824" y="-44.0039" width="3.83153" height="125.958" transform="rotate(-45 271.824 -44.0039)" fill="#80ACFF"/>
<rect x="279.094" y="-48.3662" width="3.83153" height="125.958" transform="rotate(-45 279.094 -48.3662)" fill="#80ACFF"/>
<rect x="284.91" y="-53.6963" width="3.83153" height="125.958" transform="rotate(-45 284.91 -53.6963)" fill="#80ACFF"/>
</g>
<mask id="mask4_10883_230670" style="mask-type:alpha" maskUnits="userSpaceOnUse" x="690" y="-11" width="86" height="85">
<rect x="690.781" y="73.6572" width="84.3323" height="84.3323" transform="rotate(-90 690.781 73.6572)" fill="#FFBB9C"/>
</mask>
<g mask="url(#mask4_10883_230670)">
<rect x="678.664" y="54.6216" width="3.83153" height="39.2581" transform="rotate(-45 678.664 54.6216)" fill="#80ACFF"/>
<rect x="672.359" y="58.4985" width="3.83153" height="39.2581" transform="rotate(-45 672.359 58.4985)" fill="#80ACFF"/>
<rect x="677.016" y="42.311" width="3.83153" height="65.8522" transform="rotate(-45 677.016 42.311)" fill="#80ACFF"/>
<rect x="681.086" y="35.8169" width="3.83153" height="65.8522" transform="rotate(-45 681.086 35.8169)" fill="#80ACFF"/>
<rect x="675.789" y="20.3418" width="3.83153" height="95.9119" transform="rotate(-45 675.789 20.3418)" fill="#80ACFF"/>
<rect x="681.086" y="14.5615" width="3.83153" height="95.9119" transform="rotate(-45 681.086 14.5615)" fill="#80ACFF"/>
<rect x="678.16" y="0.972656" width="3.83153" height="120.637" transform="rotate(-45 678.16 0.972656)" fill="#80ACFF"/>
<rect x="680.715" y="-7.65381" width="3.83153" height="125.958" transform="rotate(-45 680.715 -7.65381)" fill="#80ACFF"/>
<rect x="686.418" y="-12.5" width="3.83153" height="125.958" transform="rotate(-45 686.418 -12.5)" fill="#80ACFF"/>
<rect x="690.781" y="-18.8003" width="3.83153" height="125.958" transform="rotate(-45 690.781 -18.8003)" fill="#80ACFF"/>
<rect x="693.688" y="-26.5557" width="3.83153" height="125.958" transform="rotate(-45 693.688 -26.5557)" fill="#80ACFF"/>
<rect x="698.535" y="-33.3423" width="3.83153" height="125.958" transform="rotate(-45 698.535 -33.3423)" fill="#80ACFF"/>
<rect x="702.895" y="-39.1577" width="3.83153" height="125.958" transform="rotate(-45 702.895 -39.1577)" fill="#80ACFF"/>
<rect x="709.199" y="-44.0039" width="3.83153" height="125.958" transform="rotate(-45 709.199 -44.0039)" fill="#80ACFF"/>
<rect x="716.469" y="-48.3662" width="3.83153" height="125.958" transform="rotate(-45 716.469 -48.3662)" fill="#80ACFF"/>
<rect x="722.285" y="-53.6963" width="3.83153" height="125.958" transform="rotate(-45 722.285 -53.6963)" fill="#80ACFF"/>
</g>
<rect x="185.586" y="5.854" width="67.8536" height="67.8536" transform="rotate(-90 185.586 5.854)" fill="#272833"/>
<rect x="622.961" y="5.854" width="67.8536" height="67.8536" transform="rotate(-90 622.961 5.854)" fill="#272833"/>
<rect x="117.73" y="73.7085" width="67.8536" height="67.8536" transform="rotate(-90 117.73 73.7085)" fill="#0050C8"/>
<rect x="555.105" y="73.709" width="67.8536" height="67.8536" transform="rotate(-90 555.105 73.709)" fill="#0050C8"/>
<rect x="992.484" y="73.7085" width="67.8536" height="67.8536" transform="rotate(-90 992.484 73.7085)" fill="#0050C8"/>
<rect x="52.3008" y="5.854" width="67.8536" height="67.8536" transform="rotate(-90 52.3008 5.854)" fill="#0050C8"/>
<rect x="489.676" y="5.854" width="67.8536" height="67.8536" transform="rotate(-90 489.676 5.854)" fill="#0050C8"/>
<rect x="927.055" y="5.854" width="67.8536" height="67.8536" transform="rotate(-90 927.055 5.854)" fill="#0050C8"/>
<rect x="337.723" y="5.854" width="67.8536" height="67.8536" transform="rotate(-90 337.723 5.854)" fill="white"/>
<rect x="775.102" y="5.854" width="67.8536" height="67.8536" transform="rotate(-90 775.102 5.854)" fill="white"/>
<circle opacity="0.5" cx="185.451" cy="5.22987" r="22.7794" transform="rotate(-90 185.451 5.22987)" fill="white"/>
<circle opacity="0.5" cx="622.83" cy="5.22987" r="22.7794" transform="rotate(-90 622.83 5.22987)" fill="white"/>
<circle opacity="0.5" cx="1060.2" cy="5.22987" r="22.7794" transform="rotate(-90 1060.2 5.22987)" fill="white"/>
</g>
</svg>
