<svg width="13" height="17" viewBox="0 0 13 17" fill="none" xmlns="http://www.w3.org/2000/svg">
<path d="M11.5004 6.25C11.5317 4.89127 11.023 3.57557 10.0857 2.59141C9.14836 1.60724 7.85903 1.03494 6.50039 1C5.14175 1.03494 3.85242 1.60724 2.91512 2.59141C1.97782 3.57557 1.46905 4.89127 1.50039 6.25C1.48315 7.40321 1.85019 8.52937 2.54364 9.45095C3.23709 10.3725 4.21752 11.0371 5.33039 11.34L4.86372 12.2733C4.82567 12.3496 4.80772 12.4343 4.81159 12.5194C4.81546 12.6045 4.84101 12.6872 4.88582 12.7597C4.93064 12.8321 4.99322 12.8919 5.06765 12.9334C5.14207 12.9749 5.22585 12.9967 5.31106 12.9967H7.69239C7.77759 12.9967 7.86138 12.9749 7.9358 12.9334C8.01022 12.8919 8.07281 12.8321 8.11762 12.7597C8.16244 12.6872 8.18799 12.6045 8.19186 12.5194C8.19572 12.4343 8.17778 12.3496 8.13972 12.2733L7.67306 11.34C8.78543 11.0366 9.76526 10.3718 10.4582 9.45029C11.1511 8.52875 11.5178 7.40286 11.5004 6.25V6.25Z" stroke="#9F1F17" stroke-width="1.5" stroke-linecap="round" stroke-linejoin="round"/>
<path d="M6.5 13V14C6.5 14.2652 6.60536 14.5196 6.79289 14.7071C6.98043 14.8946 7.23478 15 7.5 15H8.5C8.76522 15 9.01957 14.8946 9.20711 14.7071C9.39464 14.5196 9.5 14.2652 9.5 14C9.5 13.7348 9.60536 13.4804 9.79289 13.2929C9.98043 13.1054 10.2348 13 10.5 13C10.7652 13 11.0196 13.1054 11.2071 13.2929C11.3946 13.4804 11.5 13.7348 11.5 14V16" stroke="#9F1F17" stroke-width="1.5" stroke-linecap="round" stroke-linejoin="round"/>
</svg>
