<svg width="24" height="24" viewBox="0 0 24 24" fill="none" xmlns="http://www.w3.org/2000/svg">
<path d="M21.207 4.5C21.3946 4.68749 21.4999 4.9418 21.5 5.207V22.5C21.5 22.7652 21.3946 23.0196 21.2071 23.2071C21.0196 23.3946 20.7652 23.5 20.5 23.5H3.5C3.23478 23.5 2.98043 23.3946 2.79289 23.2071C2.60536 23.0196 2.5 22.7652 2.5 22.5V1.5C2.5 1.23478 2.60536 0.98043 2.79289 0.792893C2.98043 0.605357 3.23478 0.5 3.5 0.5H16.793C17.0582 0.500057 17.3125 0.605451 17.5 0.793L21.207 4.5Z" stroke="#323130" stroke-linecap="round" stroke-linejoin="round"/>
<path d="M6 7.77148L7.083 8.85348C7.13428 8.90481 7.19612 8.94436 7.26421 8.96938C7.33231 8.99441 7.40504 9.00432 7.47735 8.99842C7.54966 8.99252 7.61983 8.97096 7.68297 8.93522C7.74611 8.89949 7.80072 8.85044 7.843 8.79149L10 5.77148" stroke="#323130" stroke-linecap="round" stroke-linejoin="round"/>
<path d="M13.5 7.5H17.5" stroke="#323130" stroke-linecap="round" stroke-linejoin="round"/>
<path d="M6 12.7715L7.083 13.8535C7.13428 13.9048 7.19612 13.9444 7.26421 13.9694C7.33231 13.9944 7.40504 14.0043 7.47735 13.9984C7.54966 13.9925 7.61983 13.971 7.68297 13.9352C7.74611 13.8995 7.80072 13.8504 7.843 13.7915L10 10.7715" stroke="#323130" stroke-linecap="round" stroke-linejoin="round"/>
<path d="M13.5 12.5H17.5" stroke="#323130" stroke-linecap="round" stroke-linejoin="round"/>
<path d="M6 17.7705L7.083 18.8525C7.13428 18.9038 7.19612 18.9434 7.26421 18.9684C7.33231 18.9934 7.40504 19.0033 7.47735 18.9974C7.54966 18.9915 7.61983 18.97 7.68297 18.9342C7.74611 18.8985 7.80072 18.8495 7.843 18.7905L10 15.7705" stroke="#323130" stroke-linecap="round" stroke-linejoin="round"/>
<path d="M13.5 17.5H17.5" stroke="#323130" stroke-linecap="round" stroke-linejoin="round"/>
</svg>
