<svg width="24" height="24" viewBox="0 0 24 24" fill="none" xmlns="http://www.w3.org/2000/svg">
<path d="M11.75 7C12.8546 7 13.75 6.10457 13.75 5C13.75 3.89543 12.8546 3 11.75 3C10.6454 3 9.75 3.89543 9.75 5C9.75 6.10457 10.6454 7 11.75 7Z" fill="#6B6C7E"/>
<path d="M11.75 13.75C12.8546 13.75 13.75 12.8546 13.75 11.75C13.75 10.6454 12.8546 9.75 11.75 9.75C10.6454 9.75 9.75 10.6454 9.75 11.75C9.75 12.8546 10.6454 13.75 11.75 13.75Z" fill="#6B6C7E"/>
<path d="M11.75 20.5C12.8546 20.5 13.75 19.6046 13.75 18.5C13.75 17.3954 12.8546 16.5 11.75 16.5C10.6454 16.5 9.75 17.3954 9.75 18.5C9.75 19.6046 10.6454 20.5 11.75 20.5Z" fill="#6B6C7E"/>
</svg>
