<svg width="24" height="24" viewBox="0 0 24 24" fill="none" xmlns="http://www.w3.org/2000/svg">
<circle cx="12" cy="12" r="12" fill="#806B00"/>
<path d="M11.5013 10.888C12.7093 10.936 13.5933 11.2 14.1533 11.68C14.7213 12.16 15.0053 12.812 15.0053 13.636C15.0053 14.004 14.9413 14.344 14.8133 14.656C14.6933 14.968 14.5053 15.236 14.2493 15.46C14.0013 15.684 13.6853 15.86 13.3013 15.988C12.9173 16.116 12.4613 16.18 11.9333 16.18C11.7253 16.18 11.5133 16.164 11.2973 16.132C11.0813 16.1 10.8813 16.06 10.6973 16.012C10.5133 15.964 10.3493 15.916 10.2053 15.868C10.0613 15.82 9.95728 15.78 9.89328 15.748L10.1093 14.776C10.2453 14.84 10.4653 14.924 10.7693 15.028C11.0813 15.132 11.4613 15.184 11.9093 15.184C12.2693 15.184 12.5693 15.144 12.8093 15.064C13.0573 14.984 13.2573 14.876 13.4093 14.74C13.5613 14.604 13.6693 14.448 13.7333 14.272C13.8053 14.088 13.8413 13.896 13.8413 13.696C13.8413 13.392 13.7893 13.124 13.6853 12.892C13.5813 12.652 13.3973 12.452 13.1333 12.292C12.8693 12.132 12.5173 12.012 12.0773 11.932C11.6373 11.844 11.0813 11.8 10.4093 11.8C10.4573 11.408 10.4933 11.04 10.5173 10.696C10.5493 10.352 10.5773 10.016 10.6013 9.688C10.6253 9.36 10.6453 9.036 10.6613 8.716C10.6773 8.388 10.6933 8.044 10.7093 7.684H14.7173V8.632H11.6813C11.6733 8.752 11.6613 8.916 11.6453 9.124C11.6293 9.324 11.6133 9.536 11.5973 9.76C11.5813 9.976 11.5653 10.188 11.5493 10.396C11.5333 10.604 11.5173 10.768 11.5013 10.888Z" fill="#F5F7FA"/>
</svg>
