<svg width="24" height="24" viewBox="0 0 24 24" fill="none" xmlns="http://www.w3.org/2000/svg">
<circle cx="12" cy="12" r="12" fill="#276680"/>
<path d="M9.59328 13.12C9.74528 12.768 9.95328 12.36 10.2173 11.896C10.4813 11.424 10.7773 10.94 11.1053 10.444C11.4413 9.948 11.7973 9.46 12.1733 8.98C12.5573 8.5 12.9413 8.068 13.3253 7.684H14.3933V12.964H15.3773V13.876H14.3933V16H13.3133V13.876H9.59328V13.12ZM13.3133 9.004C13.0733 9.26 12.8293 9.548 12.5813 9.868C12.3413 10.18 12.1053 10.508 11.8733 10.852C11.6413 11.196 11.4213 11.548 11.2133 11.908C11.0133 12.268 10.8333 12.62 10.6733 12.964H13.3133V9.004Z" fill="#F5F7FA"/>
</svg>
