<svg width="24" height="24" viewBox="0 0 24 24" fill="none" xmlns="http://www.w3.org/2000/svg">
<circle cx="12" cy="12" r="12" fill="#9F1F17"/>
<path d="M14.7173 9.808C14.7173 10.096 14.6573 10.376 14.5373 10.648C14.4253 10.912 14.2733 11.176 14.0813 11.44C13.8893 11.696 13.6733 11.952 13.4333 12.208C13.1933 12.456 12.9533 12.7 12.7133 12.94C12.5773 13.076 12.4173 13.236 12.2333 13.42C12.0573 13.604 11.8893 13.796 11.7293 13.996C11.5693 14.196 11.4333 14.388 11.3213 14.572C11.2173 14.756 11.1653 14.916 11.1653 15.052H14.9933V16H9.95328C9.94528 15.952 9.94128 15.904 9.94128 15.856C9.94128 15.808 9.94128 15.764 9.94128 15.724C9.94128 15.348 10.0013 15 10.1213 14.68C10.2493 14.352 10.4133 14.044 10.6133 13.756C10.8133 13.468 11.0373 13.196 11.2853 12.94C11.5333 12.684 11.7773 12.436 12.0173 12.196C12.2173 12.004 12.4053 11.816 12.5813 11.632C12.7653 11.44 12.9253 11.252 13.0613 11.068C13.2053 10.876 13.3173 10.68 13.3973 10.48C13.4853 10.28 13.5293 10.068 13.5293 9.844C13.5293 9.604 13.4893 9.4 13.4093 9.232C13.3373 9.064 13.2373 8.924 13.1093 8.812C12.9813 8.7 12.8293 8.62 12.6533 8.572C12.4853 8.516 12.3053 8.488 12.1133 8.488C11.8813 8.488 11.6693 8.52 11.4773 8.584C11.2853 8.648 11.1133 8.724 10.9613 8.812C10.8093 8.892 10.6813 8.98 10.5773 9.076C10.4733 9.164 10.3933 9.232 10.3373 9.28L9.78528 8.488C9.85728 8.408 9.96528 8.312 10.1093 8.2C10.2533 8.08 10.4253 7.968 10.6253 7.864C10.8253 7.76 11.0493 7.672 11.2973 7.6C11.5453 7.528 11.8133 7.492 12.1013 7.492C12.9733 7.492 13.6253 7.696 14.0573 8.104C14.4973 8.504 14.7173 9.072 14.7173 9.808Z" fill="#F5F7FA"/>
</svg>
