<svg width="24" height="24" viewBox="0 0 24 24" fill="none" xmlns="http://www.w3.org/2000/svg">
<circle cx="12" cy="12" r="12" fill="#804C00"/>
<path d="M11.8253 15.184C12.5373 15.184 13.0453 15.044 13.3493 14.764C13.6613 14.484 13.8173 14.108 13.8173 13.636C13.8173 13.332 13.7533 13.076 13.6253 12.868C13.4973 12.66 13.3293 12.496 13.1213 12.376C12.9133 12.248 12.6693 12.16 12.3893 12.112C12.1173 12.056 11.8373 12.028 11.5493 12.028H11.2613V11.116H11.6573C11.8573 11.116 12.0613 11.096 12.2693 11.056C12.4853 11.016 12.6813 10.944 12.8573 10.84C13.0333 10.736 13.1773 10.596 13.2893 10.42C13.4013 10.236 13.4573 10.008 13.4573 9.736C13.4573 9.512 13.4173 9.32 13.3373 9.16C13.2573 9 13.1493 8.868 13.0133 8.764C12.8853 8.66 12.7333 8.588 12.5573 8.548C12.3893 8.5 12.2093 8.476 12.0173 8.476C11.6333 8.476 11.3053 8.532 11.0333 8.644C10.7693 8.756 10.5453 8.872 10.3613 8.992L9.92928 8.14C10.0253 8.076 10.1453 8.008 10.2893 7.936C10.4413 7.856 10.6093 7.784 10.7933 7.72C10.9773 7.656 11.1733 7.604 11.3813 7.564C11.5973 7.516 11.8213 7.492 12.0533 7.492C12.4933 7.492 12.8733 7.548 13.1933 7.66C13.5133 7.764 13.7773 7.916 13.9853 8.116C14.1933 8.308 14.3493 8.54 14.4533 8.812C14.5573 9.076 14.6093 9.364 14.6093 9.676C14.6093 10.108 14.4853 10.48 14.2373 10.792C13.9893 11.096 13.6893 11.328 13.3373 11.488C13.5533 11.552 13.7613 11.644 13.9613 11.764C14.1613 11.884 14.3333 12.036 14.4773 12.22C14.6293 12.404 14.7493 12.616 14.8373 12.856C14.9333 13.096 14.9813 13.364 14.9813 13.66C14.9813 14.02 14.9173 14.356 14.7893 14.668C14.6693 14.972 14.4773 15.236 14.2133 15.46C13.9573 15.684 13.6333 15.86 13.2413 15.988C12.8493 16.116 12.3853 16.18 11.8493 16.18C11.6413 16.18 11.4253 16.164 11.2013 16.132C10.9853 16.1 10.7813 16.06 10.5893 16.012C10.3973 15.964 10.2293 15.916 10.0853 15.868C9.94128 15.82 9.83728 15.78 9.77328 15.748L9.98928 14.776C10.1253 14.84 10.3493 14.924 10.6613 15.028C10.9813 15.132 11.3693 15.184 11.8253 15.184Z" fill="#F5F7FA"/>
</svg>
