<svg width="29" height="28" viewBox="0 0 29 28" fill="none" xmlns="http://www.w3.org/2000/svg">
<circle cx="15" cy="14" r="14" fill="#FFEBCC"/>
<g clip-path="url(#clip0_14352_51872)">
<path d="M0.625 24.375V5.625" stroke="#804C00" stroke-width="1.5" stroke-linecap="round" stroke-linejoin="round"/>
<path d="M0.625 19.7566L3.25333 18.9482C4.34209 18.613 5.48984 18.514 6.61993 18.6577C7.75002 18.8014 8.83645 19.1845 9.80667 19.7816C10.7535 20.3651 11.8114 20.7452 12.9131 20.8975C14.0148 21.0499 15.1362 20.9712 16.2058 20.6666L18.695 19.9549C18.8909 19.8989 19.0633 19.7806 19.186 19.6179C19.3087 19.4552 19.375 19.257 19.375 19.0532V9.28072C19.3749 9.13565 19.3411 8.9926 19.2763 8.86278C19.2116 8.73297 19.1176 8.61994 19.0018 8.53257C18.886 8.44519 18.7516 8.38586 18.609 8.35922C18.4664 8.33258 18.3195 8.33937 18.18 8.37905L16.2058 8.94322C15.1365 9.24864 14.0153 9.32813 12.9136 9.17663C11.8119 9.02513 10.7538 8.64595 9.80667 8.06322C8.83645 7.4662 7.75002 7.08304 6.61993 6.93934C5.48984 6.79564 4.34209 6.89469 3.25333 7.22989L0.625 8.03739" stroke="#804C00" stroke-width="1.5" stroke-linecap="round" stroke-linejoin="round"/>
</g>
<defs>
<clipPath id="clip0_14352_51872">
<rect width="20" height="20" fill="white" transform="translate(0 5)"/>
</clipPath>
</defs>
</svg>
