<svg width="24" height="24" viewBox="0 0 24 24" fill="none" xmlns="http://www.w3.org/2000/svg">
<path d="M12 11.25C13.7604 11.25 15.1875 9.82291 15.1875 8.0625C15.1875 6.30209 13.7604 4.875 12 4.875C10.2396 4.875 8.8125 6.30209 8.8125 8.0625C8.8125 9.82291 10.2396 11.25 12 11.25Z" stroke="black" stroke-linecap="round" stroke-linejoin="round"/>
<path d="M18 17.625C17.6158 16.3251 16.8241 15.1848 15.7429 14.3739C14.6617 13.5631 13.3489 13.125 12 13.125C10.6511 13.125 9.33826 13.5631 8.25709 14.3739C7.17591 15.1848 6.38424 16.3251 6 17.625" stroke="black" stroke-linecap="round" stroke-linejoin="round"/>
<path d="M18.3675 12.9376C19.6608 12.9376 20.7093 11.8882 20.7093 10.5938C20.7093 9.29934 19.6608 8.25 18.3675 8.25C17.0741 8.25 16.0256 9.29934 16.0256 10.5938C16.0256 11.8882 17.0741 12.9376 18.3675 12.9376Z" stroke="black" stroke-linecap="round" stroke-linejoin="round"/>
<path d="M22.7755 17.6253C22.4932 16.6695 21.9115 15.831 21.1172 15.2348C20.3229 14.6385 19.3583 14.3164 18.3673 14.3164C17.667 14.3164 16.98 14.4772 16.3569 14.7819" stroke="black" stroke-linecap="round" stroke-linejoin="round"/>
<path d="M5.53315 12.9376C4.23978 12.9376 3.1913 11.8882 3.1913 10.5938C3.1913 9.29936 4.23978 8.25 5.53315 8.25C6.82652 8.25 7.875 9.29936 7.875 10.5938C7.875 11.8882 6.82652 12.9376 5.53315 12.9376Z" stroke="black" stroke-linecap="round" stroke-linejoin="round"/>
<path d="M1.12513 17.6253C1.40744 16.6695 1.98908 15.831 2.78341 15.2348C3.57775 14.6385 4.54228 14.3164 5.53332 14.3164C6.23358 14.3164 6.9206 14.4772 7.5437 14.7819" stroke="black" stroke-linecap="round" stroke-linejoin="round"/>
</svg>
