<svg width="25" height="24" viewBox="0 0 25 24" fill="none" xmlns="http://www.w3.org/2000/svg">
<path d="M17.6667 11C16.3811 11 15.1244 11.3812 14.0555 12.0954C12.9866 12.8097 12.1534 13.8248 11.6615 15.0126C11.1695 16.2003 11.0408 17.5072 11.2916 18.7681C11.5424 20.029 12.1615 21.1872 13.0705 22.0962C13.9795 23.0052 15.1377 23.6243 16.3986 23.8751C17.6595 24.1259 18.9664 23.9972 20.1541 23.5052C21.3419 23.0132 22.357 22.1801 23.0712 21.1112C23.7855 20.0423 24.1667 18.7856 24.1667 17.5C24.164 15.7769 23.4784 14.1251 22.26 12.9067C21.0415 11.6883 19.3898 11.0026 17.6667 11ZM21.3767 16.18L18.2267 20.38C18.0689 20.5864 17.8689 20.7568 17.6401 20.8799C17.4112 21.003 17.1588 21.076 16.8996 21.094C16.6404 21.112 16.3803 21.0745 16.1367 20.9842C15.8931 20.8938 15.6715 20.7526 15.4867 20.57L13.8667 19C13.773 18.907 13.6986 18.7964 13.6478 18.6746C13.597 18.5527 13.5709 18.422 13.5709 18.29C13.5709 18.158 13.597 18.0273 13.6478 17.9054C13.6986 17.7836 13.773 17.673 13.8667 17.58C14.0541 17.3937 14.3075 17.2892 14.5717 17.2892C14.8359 17.2892 15.0893 17.3937 15.2767 17.58L16.5467 18.85C16.5729 18.8756 16.6043 18.8951 16.6389 18.9072C16.6735 18.9193 16.7103 18.9237 16.7467 18.92C16.7826 18.9193 16.8177 18.9098 16.8491 18.8924C16.8805 18.8749 16.9071 18.8501 16.9267 18.82L19.7767 15C19.9358 14.7878 20.1727 14.6476 20.4353 14.6101C20.5653 14.5915 20.6977 14.5987 20.8249 14.6313C20.9521 14.6639 21.0716 14.7212 21.1767 14.8C21.2817 14.8788 21.3703 14.9775 21.4372 15.0905C21.5041 15.2035 21.5481 15.3286 21.5666 15.4586C21.5852 15.5886 21.578 15.721 21.5454 15.8482C21.5128 15.9754 21.4555 16.0949 21.3767 16.2V16.18Z" fill="#5ACA75"/>
<path d="M7.16669 10C8.15559 10 9.12229 9.70676 9.94454 9.15735C10.7668 8.60794 11.4076 7.82705 11.7861 6.91342C12.1645 5.99979 12.2635 4.99446 12.0706 4.02455C11.8777 3.05465 11.4015 2.16373 10.7022 1.46447C10.003 0.765206 9.11204 0.289002 8.14214 0.0960759C7.17223 -0.0968503 6.1669 0.00216642 5.25327 0.380605C4.33964 0.759043 3.55875 1.39991 3.00934 2.22215C2.45993 3.0444 2.16669 4.0111 2.16669 5C2.16669 6.32609 2.69347 7.59785 3.63115 8.53554C4.56884 9.47322 5.8406 10 7.16669 10ZM4.26669 4.26C4.28709 4.18403 4.32478 4.11381 4.37682 4.05483C4.42887 3.99585 4.49385 3.9497 4.56669 3.92C4.63557 3.88784 4.71067 3.87117 4.78669 3.87117C4.86271 3.87117 4.9378 3.88784 5.00669 3.92C6.09158 4.60495 7.34385 4.97856 8.62669 5C8.93786 4.99657 9.2485 4.97319 9.55669 4.93C9.63272 4.92028 9.70996 4.92781 9.78267 4.95205C9.85538 4.97629 9.9217 5.01661 9.97669 5.07C10.0338 5.12265 10.0773 5.18837 10.1034 5.26152C10.1296 5.33468 10.1375 5.41308 10.1267 5.49C10.0041 6.23335 9.60625 6.90336 9.01229 7.36685C8.41834 7.83034 7.67174 8.05339 6.92087 7.99166C6.17001 7.92992 5.46986 7.58793 4.95958 7.03366C4.4493 6.47938 4.16625 5.7534 4.16669 5C4.16843 4.75009 4.20204 4.50142 4.26669 4.26Z" fill="#0050C8"/>
<path d="M11.6067 12.0005C11.5977 11.931 11.5732 11.8644 11.5352 11.8056C11.4971 11.7467 11.4464 11.6972 11.3867 11.6605C10.1924 10.8954 8.80499 10.4861 7.38667 10.4805C5.76502 10.4829 4.18725 11.0074 2.88691 11.9764C1.58656 12.9454 0.632757 14.3072 0.166668 15.8605C0.144933 15.935 0.140847 16.0135 0.154733 16.0899C0.168618 16.1663 0.200094 16.2384 0.246668 16.3005C0.292102 16.3638 0.352262 16.4151 0.421952 16.4499C0.491643 16.4847 0.568768 16.5021 0.646667 16.5005H9.30667C9.42388 16.502 9.53778 16.4615 9.62768 16.3863C9.71758 16.3111 9.77754 16.2061 9.79667 16.0905C10.0422 14.7425 10.6273 13.4794 11.4967 12.4205C11.5482 12.3649 11.5851 12.2975 11.6043 12.2243C11.6235 12.151 11.6243 12.0741 11.6067 12.0005Z" fill="#0050C8"/>
</svg>
