<svg width="69" height="18" viewBox="0 0 69 18" fill="none" xmlns="http://www.w3.org/2000/svg">
<path d="M4.022 1.4C5.834 1.4 7.22 1.73 8.18 2.39C9.152 3.05 9.638 4.082 9.638 5.486C9.638 6.218 9.506 6.848 9.242 7.376C8.99 7.892 8.618 8.318 8.126 8.654C7.634 8.978 7.034 9.218 6.326 9.374C5.618 9.53 4.808 9.608 3.896 9.608H2.762V14H0.494V1.706C1.022 1.586 1.604 1.508 2.24 1.472C2.888 1.424 3.482 1.4 4.022 1.4ZM4.184 3.362C3.608 3.362 3.134 3.38 2.762 3.416V7.664H3.86C4.952 7.664 5.792 7.514 6.38 7.214C6.968 6.902 7.262 6.32 7.262 5.468C7.262 5.06 7.184 4.718 7.028 4.442C6.872 4.166 6.656 3.95 6.38 3.794C6.104 3.638 5.774 3.53 5.39 3.47C5.018 3.398 4.616 3.362 4.184 3.362ZM19.7984 9.284C19.7984 10.028 19.6904 10.706 19.4744 11.318C19.2584 11.93 18.9524 12.452 18.5564 12.884C18.1604 13.316 17.6804 13.652 17.1164 13.892C16.5644 14.132 15.9524 14.252 15.2804 14.252C14.6084 14.252 13.9964 14.132 13.4444 13.892C12.8924 13.652 12.4184 13.316 12.0224 12.884C11.6264 12.452 11.3144 11.93 11.0864 11.318C10.8704 10.706 10.7624 10.028 10.7624 9.284C10.7624 8.54 10.8704 7.868 11.0864 7.268C11.3144 6.656 11.6264 6.134 12.0224 5.702C12.4304 5.27 12.9104 4.94 13.4624 4.712C14.0144 4.472 14.6204 4.352 15.2804 4.352C15.9404 4.352 16.5464 4.472 17.0984 4.712C17.6624 4.94 18.1424 5.27 18.5384 5.702C18.9344 6.134 19.2404 6.656 19.4564 7.268C19.6844 7.868 19.7984 8.54 19.7984 9.284ZM17.5664 9.284C17.5664 8.348 17.3624 7.61 16.9544 7.07C16.5584 6.518 16.0004 6.242 15.2804 6.242C14.5604 6.242 13.9964 6.518 13.5884 7.07C13.1924 7.61 12.9944 8.348 12.9944 9.284C12.9944 10.232 13.1924 10.982 13.5884 11.534C13.9964 12.086 14.5604 12.362 15.2804 12.362C16.0004 12.362 16.5584 12.086 16.9544 11.534C17.3624 10.982 17.5664 10.232 17.5664 9.284ZM25.3183 14.18C24.6703 14.168 24.1303 14.096 23.6983 13.964C23.2783 13.832 22.9423 13.646 22.6903 13.406C22.4383 13.154 22.2583 12.848 22.1503 12.488C22.0543 12.116 22.0063 11.696 22.0063 11.228V0.391999L24.1843 0.0319996V10.814C24.1843 11.078 24.2023 11.3 24.2383 11.48C24.2863 11.66 24.3643 11.816 24.4723 11.948C24.5803 12.068 24.7243 12.164 24.9043 12.236C25.0963 12.296 25.3363 12.344 25.6243 12.38L25.3183 14.18ZM30.662 14.18C30.014 14.168 29.474 14.096 29.042 13.964C28.622 13.832 28.286 13.646 28.034 13.406C27.782 13.154 27.602 12.848 27.494 12.488C27.398 12.116 27.35 11.696 27.35 11.228V0.391999L29.528 0.0319996V10.814C29.528 11.078 29.546 11.3 29.582 11.48C29.63 11.66 29.708 11.816 29.816 11.948C29.924 12.068 30.068 12.164 30.248 12.236C30.44 12.296 30.68 12.344 30.968 12.38L30.662 14.18ZM32.8378 14V1.526H40.8477V3.452H35.1058V6.53H40.2178V8.42H35.1058V12.074H41.2798V14H32.8378ZM46.5886 12.47C47.2606 12.47 47.7706 12.434 48.1186 12.362V9.95C47.9986 9.914 47.8246 9.878 47.5966 9.842C47.3686 9.806 47.1166 9.788 46.8406 9.788C46.6006 9.788 46.3546 9.806 46.1026 9.842C45.8626 9.878 45.6406 9.944 45.4366 10.04C45.2446 10.136 45.0886 10.274 44.9686 10.454C44.8486 10.622 44.7886 10.838 44.7886 11.102C44.7886 11.618 44.9506 11.978 45.2746 12.182C45.5986 12.374 46.0366 12.47 46.5886 12.47ZM46.4086 4.352C47.1286 4.352 47.7346 4.442 48.2266 4.622C48.7186 4.802 49.1086 5.054 49.3966 5.378C49.6966 5.702 49.9066 6.098 50.0266 6.566C50.1586 7.022 50.2246 7.526 50.2246 8.078V13.784C49.8886 13.856 49.3786 13.94 48.6946 14.036C48.0226 14.144 47.2606 14.198 46.4086 14.198C45.8446 14.198 45.3286 14.144 44.8606 14.036C44.3926 13.928 43.9906 13.754 43.6546 13.514C43.3306 13.274 43.0726 12.962 42.8806 12.578C42.7006 12.194 42.6106 11.72 42.6106 11.156C42.6106 10.616 42.7126 10.16 42.9166 9.788C43.1326 9.416 43.4206 9.116 43.7806 8.888C44.1406 8.648 44.5546 8.48 45.0226 8.384C45.5026 8.276 46.0006 8.222 46.5166 8.222C46.7566 8.222 47.0086 8.24 47.2726 8.276C47.5366 8.3 47.8186 8.348 48.1186 8.42V8.06C48.1186 7.808 48.0886 7.568 48.0286 7.34C47.9686 7.112 47.8606 6.914 47.7046 6.746C47.5606 6.566 47.3626 6.428 47.1106 6.332C46.8706 6.236 46.5646 6.188 46.1926 6.188C45.6886 6.188 45.2266 6.224 44.8066 6.296C44.3866 6.368 44.0446 6.452 43.7806 6.548L43.5106 4.784C43.7866 4.688 44.1886 4.592 44.7166 4.496C45.2446 4.4 45.8086 4.352 46.4086 4.352ZM55.2499 12.434C55.8259 12.434 56.2459 12.368 56.5099 12.236C56.7739 12.092 56.9059 11.852 56.9059 11.516C56.9059 11.204 56.7619 10.946 56.4739 10.742C56.1979 10.538 55.7359 10.316 55.0879 10.076C54.6919 9.932 54.3259 9.782 53.9899 9.626C53.6659 9.458 53.3839 9.266 53.1439 9.05C52.9039 8.834 52.7119 8.576 52.5679 8.276C52.4359 7.964 52.3699 7.586 52.3699 7.142C52.3699 6.278 52.6879 5.6 53.3239 5.108C53.9599 4.604 54.8239 4.352 55.9159 4.352C56.4679 4.352 56.9959 4.406 57.4999 4.514C58.0039 4.61 58.3819 4.706 58.6339 4.802L58.2379 6.566C57.9979 6.458 57.6919 6.362 57.3199 6.278C56.9479 6.182 56.5159 6.134 56.0239 6.134C55.5799 6.134 55.2199 6.212 54.9439 6.368C54.6679 6.512 54.5299 6.74 54.5299 7.052C54.5299 7.208 54.5539 7.346 54.6019 7.466C54.6619 7.586 54.7579 7.7 54.8899 7.808C55.0219 7.904 55.1959 8.006 55.4119 8.114C55.6279 8.21 55.8919 8.312 56.2039 8.42C56.7199 8.612 57.1579 8.804 57.5179 8.996C57.8779 9.176 58.1719 9.386 58.3999 9.626C58.6399 9.854 58.8139 10.118 58.9219 10.418C59.0299 10.718 59.0839 11.078 59.0839 11.498C59.0839 12.398 58.7479 13.082 58.0759 13.55C57.4159 14.006 56.4679 14.234 55.2319 14.234C54.4039 14.234 53.7379 14.162 53.2339 14.018C52.7299 13.886 52.3759 13.778 52.1719 13.694L52.5499 11.876C52.8739 12.008 53.2579 12.134 53.7019 12.254C54.1579 12.374 54.6739 12.434 55.2499 12.434ZM68.8044 4.586C67.8324 8.162 66.7044 11.402 65.4204 14.306C65.1804 14.846 64.9344 15.308 64.6824 15.692C64.4304 16.076 64.1484 16.394 63.8364 16.646C63.5244 16.898 63.1764 17.078 62.7924 17.186C62.4084 17.306 61.9644 17.366 61.4604 17.366C61.1244 17.366 60.7884 17.33 60.4524 17.258C60.1284 17.186 59.8824 17.108 59.7144 17.024L60.1104 15.278C60.5424 15.446 60.9684 15.53 61.3884 15.53C61.9524 15.53 62.3904 15.392 62.7024 15.116C63.0264 14.852 63.3084 14.438 63.5484 13.874C62.8644 12.554 62.2044 11.114 61.5684 9.554C60.9444 7.994 60.3864 6.338 59.8944 4.586H62.2164C62.3364 5.09 62.4804 5.636 62.6484 6.224C62.8284 6.812 63.0204 7.412 63.2244 8.024C63.4284 8.624 63.6444 9.224 63.8724 9.824C64.1004 10.424 64.3284 10.982 64.5564 11.498C64.9404 10.43 65.3004 9.296 65.6364 8.096C65.9724 6.884 66.2784 5.714 66.5544 4.586H68.8044Z" fill="#0050C8"/>
</svg>
