<svg width="24" height="24" viewBox="0 0 24 24" fill="none" xmlns="http://www.w3.org/2000/svg">
<g clip-path="url(#clip0_5759_60266)">
<path d="M12.5889 5.10891L13.8709 7.74991H16.3659C16.4923 7.74419 16.6173 7.77778 16.7238 7.84603C16.8303 7.91429 16.913 8.01387 16.9606 8.13107C17.0082 8.24827 17.0183 8.37734 16.9895 8.50051C16.9608 8.62369 16.8945 8.73492 16.7999 8.81891L14.6339 11.0819L15.8339 13.8429C15.887 13.9692 15.899 14.109 15.8683 14.2426C15.8376 14.3761 15.7658 14.4966 15.6629 14.5871C15.56 14.6776 15.4313 14.7336 15.295 14.747C15.1586 14.7604 15.0215 14.7306 14.9029 14.6619L11.9999 13.0279L9.09993 14.6619C8.98139 14.7306 8.84426 14.7604 8.7079 14.747C8.57154 14.7336 8.44284 14.6776 8.33996 14.5871C8.23708 14.4966 8.16523 14.3761 8.13454 14.2426C8.10385 14.109 8.11588 13.9692 8.16893 13.8429L9.36893 11.0819L7.19993 8.81891C7.1055 8.73503 7.03935 8.62399 7.01053 8.50102C6.98171 8.37805 6.99164 8.24917 7.03897 8.13207C7.08629 8.01497 7.16868 7.91538 7.27484 7.84696C7.38101 7.77854 7.50574 7.74464 7.63193 7.74991H10.1319L11.4169 5.10891C11.4731 5.0021 11.5573 4.91266 11.6606 4.85026C11.7639 4.78786 11.8823 4.75488 12.0029 4.75488C12.1236 4.75488 12.242 4.78786 12.3452 4.85026C12.4485 4.91266 12.5328 5.0021 12.5889 5.10891V5.10891Z" stroke="#323130" stroke-linecap="round" stroke-linejoin="round"/>
<path d="M17.9921 13.7518L19.0221 11.5368C19.0669 11.4503 19.1345 11.3779 19.2177 11.3273C19.3008 11.2767 19.3963 11.25 19.4936 11.25C19.5909 11.25 19.6864 11.2767 19.7695 11.3273C19.8527 11.3779 19.9203 11.4503 19.9651 11.5368L20.9921 13.7518H22.9921C23.093 13.7477 23.1926 13.775 23.2774 13.8297C23.3622 13.8844 23.428 13.964 23.4658 14.0576C23.5037 14.1511 23.5118 14.2541 23.4889 14.3524C23.466 14.4507 23.4134 14.5395 23.3381 14.6068L21.6001 16.3158L22.5621 18.5248C22.6046 18.6259 22.6141 18.7379 22.5894 18.8448C22.5648 18.9517 22.5071 19.0481 22.4246 19.1204C22.3421 19.1927 22.239 19.2373 22.1298 19.2477C22.0206 19.2582 21.9108 19.2341 21.8161 19.1788L19.4911 17.8718L17.1671 19.1788C17.0724 19.2341 16.9626 19.2582 16.8534 19.2477C16.7442 19.2373 16.6411 19.1927 16.5586 19.1204C16.4761 19.0481 16.4184 18.9517 16.3938 18.8448C16.3691 18.7379 16.3787 18.6259 16.4211 18.5248L16.9721 17.2588" stroke="#323130" stroke-linecap="round" stroke-linejoin="round"/>
<path d="M7.03193 17.2708L7.57793 18.5248C7.62038 18.6259 7.62995 18.7379 7.60527 18.8448C7.5806 18.9517 7.52294 19.0481 7.44044 19.1204C7.35795 19.1927 7.25481 19.2373 7.1456 19.2477C7.0364 19.2582 6.92667 19.2341 6.83193 19.1788L4.50693 17.8718L2.18293 19.1788C2.0882 19.2341 1.97847 19.2582 1.86927 19.2477C1.76006 19.2373 1.65692 19.1927 1.57442 19.1204C1.49193 19.0481 1.43427 18.9517 1.4096 18.8448C1.38492 18.7379 1.39449 18.6259 1.43693 18.5248L2.39993 16.3158L0.662934 14.6068C0.587329 14.5399 0.534252 14.4513 0.510982 14.3532C0.487712 14.255 0.49539 14.152 0.532961 14.0583C0.570533 13.9647 0.636158 13.8849 0.720837 13.83C0.805516 13.7752 0.905101 13.7478 1.00593 13.7518H3.00593L4.03593 11.5368C4.0807 11.4503 4.14835 11.3779 4.2315 11.3273C4.31466 11.2767 4.41011 11.25 4.50743 11.25C4.60476 11.25 4.70021 11.2767 4.78336 11.3273C4.86652 11.3779 4.93417 11.4503 4.97893 11.5368L6.00593 13.7518" stroke="#323130" stroke-linecap="round" stroke-linejoin="round"/>
</g>
<defs>
<clipPath id="clip0_5759_60266">
<rect width="24" height="24" fill="white"/>
</clipPath>
</defs>
</svg>
