<svg width="16" height="17" viewBox="0 0 16 17" fill="none" xmlns="http://www.w3.org/2000/svg">
<g clip-path="url(#clip0_11117_232007)">
<path d="M4.66659 7.83301V9.16634H11.3333V7.83301H4.66659ZM7.99992 1.83301C4.31992 1.83301 1.33325 4.81967 1.33325 8.49967C1.33325 12.1797 4.31992 15.1663 7.99992 15.1663C11.6799 15.1663 14.6666 12.1797 14.6666 8.49967C14.6666 4.81967 11.6799 1.83301 7.99992 1.83301ZM7.99992 13.833C5.05992 13.833 2.66659 11.4397 2.66659 8.49967C2.66659 5.55967 5.05992 3.16634 7.99992 3.16634C10.9399 3.16634 13.3333 5.55967 13.3333 8.49967C13.3333 11.4397 10.9399 13.833 7.99992 13.833Z" fill="#DA1414"/>
</g>
<defs>
<clipPath id="clip0_11117_232007">
<rect width="16" height="16" fill="white" transform="translate(0 0.5)"/>
</clipPath>
</defs>
</svg>
