<svg width="24" height="24" viewBox="0 0 24 24" fill="none" xmlns="http://www.w3.org/2000/svg">
<path d="M21.207 4.5C21.3946 4.68749 21.4999 4.9418 21.5 5.207V22.5C21.5 22.7652 21.3946 23.0196 21.2071 23.2071C21.0196 23.3946 20.7652 23.5 20.5 23.5H3.5C3.23478 23.5 2.98043 23.3946 2.79289 23.2071C2.60536 23.0196 2.5 22.7652 2.5 22.5V1.5C2.5 1.23478 2.60536 0.98043 2.79289 0.792893C2.98043 0.605357 3.23478 0.5 3.5 0.5H16.793C17.0582 0.500057 17.3125 0.605451 17.5 0.793L21.207 4.5Z" stroke="#323130" stroke-linecap="round" stroke-linejoin="round"/>
<path d="M7 12.9557L9.7075 15.6368C9.8357 15.7639 9.99029 15.8619 10.1605 15.9239C10.3308 15.986 10.5126 16.0105 10.6934 15.9959C10.8742 15.9813 11.0496 15.9278 11.2074 15.8393C11.3653 15.7508 11.5018 15.6292 11.6075 15.4831L17 8" stroke="#323130" stroke-linecap="round" stroke-linejoin="round"/>
</svg>
