<svg width="45" height="53" viewBox="0 0 45 53" fill="none" xmlns="http://www.w3.org/2000/svg">
<path fill-rule="evenodd" clip-rule="evenodd" d="M34.5874 0.836914H1.60331C1.01891 0.836914 0.545166 1.31066 0.545166 1.89506V50.5698C0.545166 51.7386 1.49266 52.6861 2.66146 52.6861H42.8711C44.0399 52.6861 44.9874 51.7386 44.9874 50.5698V11.2368C44.9874 10.6756 44.7644 10.1373 44.3675 9.74039L36.0839 1.45676C35.687 1.05988 35.1487 0.836914 34.5874 0.836914ZM33.3477 13.5347V2.95321L43.4001 13.5347H33.3477ZM41.8129 31.5232V28.3487H3.71961V31.5232H41.8129ZM31.2314 36.8139H3.71961V33.6395H31.2314V36.8139ZM31.2314 42.1047V38.9302H3.71961V42.1047H31.2314ZM41.8129 26.2324H3.71961V23.058H41.8129V26.2324ZM41.8129 20.9417V17.7673H3.71961V20.9417H41.8129Z" fill="#A7A9BC"/>
</svg>
