<svg width="14" height="14" viewBox="0 0 14 14" fill="none" xmlns="http://www.w3.org/2000/svg">
<path d="M11.1246 2.87405V0.999271V0.999048V2.87405ZM11.1246 2.87405H12.9996H12.9996C13.1035 2.87406 13.2051 2.9049 13.2914 2.96266C13.3778 3.02041 13.445 3.10249 13.4847 3.1985M11.1246 2.87405L8.47461 2.59927V4.78167L7.48906 5.76722C7.22781 5.66346 6.93949 5.6452 6.66598 5.71645C6.3635 5.79525 6.09862 5.97844 5.91816 6.23364C5.73769 6.48885 5.65325 6.79964 5.67977 7.11108C5.70629 7.42252 5.84206 7.71456 6.06308 7.93558C6.2841 8.1566 6.57614 8.29237 6.88758 8.31888C7.19902 8.3454 7.50981 8.26097 7.76501 8.0805C8.02022 7.90003 8.20341 7.63515 8.2822 7.33268C8.35345 7.05917 8.33519 6.77084 8.23143 6.5096L9.21699 5.52405H11.3994H11.3996V5.39905M11.3996 5.39905C11.4522 5.39914 11.5042 5.38887 11.5528 5.36883C11.6014 5.34879 11.6456 5.31937 11.6828 5.28225L13.2828 3.68225C13.3387 3.62627 13.3768 3.55496 13.3921 3.47735C13.4075 3.39975 13.3995 3.31932 13.3692 3.24625M11.3996 5.39905H9.16521H11.3996ZM13.3692 3.24625L13.4847 3.1985M13.3692 3.24625L13.4847 3.19833C13.4847 3.19838 13.4847 3.19844 13.4847 3.1985M13.3692 3.24625L13.4847 3.1985M13.2041 4.97229L13.1409 4.77859L12.9968 4.92266L12.3496 5.56986L12.2998 5.6197L12.3166 5.68815C12.6027 6.84922 12.5007 8.07202 12.0264 9.1697C11.552 10.2674 10.7313 11.1796 9.68971 11.7669C8.64809 12.3542 7.44283 12.5844 6.25809 12.4222C5.07334 12.2601 3.97427 11.7145 3.1288 10.8688C2.28333 10.0232 1.73796 8.92402 1.57602 7.73925C1.41408 6.55447 1.64448 5.34926 2.23202 4.30776C2.81955 3.26626 3.7319 2.44575 4.82968 1.9716C5.92745 1.49745 7.15026 1.39574 8.31129 1.68201L8.37974 1.69889L8.4296 1.64904L9.076 1.00264L9.21996 0.858673L9.02644 0.795431C7.71627 0.36728 6.30416 0.365022 4.99263 0.788981C3.68109 1.21294 2.5375 2.04134 1.72585 3.15538C0.9142 4.26942 0.476183 5.61187 0.474614 6.99023C0.473044 8.36858 0.908003 9.71203 1.71712 10.8279C2.52623 11.9438 3.66793 12.7748 4.97849 13.2017C6.28906 13.6287 7.70117 13.6296 9.01231 13.2045C10.3235 12.7793 11.4663 11.9499 12.2769 10.8351C13.0875 9.72029 13.5243 8.37743 13.5246 6.99907V6.99905C13.5246 6.29213 13.4121 5.61026 13.2041 4.97229ZM11.0421 6.17407L11.0217 6.07405H10.9196H10.0988H9.93747L9.97777 6.23027C10.1462 6.88335 10.0953 7.5737 9.83288 8.195C9.57043 8.81629 9.11098 9.33407 8.52532 9.66857C7.93966 10.0031 7.26026 10.1357 6.59178 10.0462C5.9233 9.95656 5.30282 9.64967 4.8259 9.17275C4.34899 8.69584 4.0421 8.07536 3.95251 7.40688C3.86291 6.7384 3.99558 6.059 4.33009 5.47334C4.66459 4.88767 5.18236 4.42823 5.80366 4.16577C6.42495 3.90332 7.11531 3.85241 7.76838 4.02088L7.92461 4.06119V3.89985V3.07905V2.97697L7.82459 2.95657C6.95581 2.77939 6.05306 2.88685 5.25016 3.26304C4.44725 3.63923 3.78693 4.26411 3.36707 5.04507C2.94721 5.82602 2.79017 6.72148 2.91921 7.5987C3.04825 8.47592 3.45651 9.28822 4.08347 9.91518C4.71044 10.5421 5.52273 10.9504 6.39996 11.0795C7.27718 11.2085 8.17264 11.0514 8.95359 10.6316C9.73454 10.2117 10.3594 9.5514 10.7356 8.7485C11.1118 7.9456 11.2193 7.04285 11.0421 6.17407ZM10.5996 3.92405H11.7322L11.1822 4.47405H9.52461V2.81642L10.0746 2.26642V3.39905C10.0746 3.53829 10.1299 3.67182 10.2284 3.77028C10.3268 3.86874 10.4604 3.92405 10.5996 3.92405Z" fill="#6B6C7E" stroke="#6B6C7E" stroke-width="0.25"/>
</svg>
