<svg width="57" height="56" viewBox="0 0 57 56" fill="none" xmlns="http://www.w3.org/2000/svg">
<rect x="0.5" width="56" height="56" rx="28" fill="#F0F5FF"/>
<path d="M31.1669 18H19.1664C18.7982 18 18.4998 18.2985 18.4998 18.6667V32.0005C18.4998 32.3687 18.7982 32.6672 19.1664 32.6672H31.1669C31.5351 32.6672 31.8336 32.3687 31.8336 32.0005V18.6667C31.8336 18.2985 31.5351 18 31.1669 18Z" stroke="#0050C8" stroke-width="1.33338" stroke-linecap="round" stroke-linejoin="round"/>
<path d="M31.8336 28.667H18.4998" stroke="#0050C8" stroke-width="1.33338" stroke-linecap="round" stroke-linejoin="round"/>
<path d="M34.5047 22.8721L38.0444 24.0517C38.1274 24.0794 38.2042 24.1232 38.2704 24.1806C38.3365 24.238 38.3907 24.3078 38.4298 24.3862C38.4689 24.4645 38.4922 24.5498 38.4984 24.6371C38.5046 24.7245 38.4935 24.8122 38.4657 24.8953L34.2496 37.5446C34.2219 37.6277 34.1781 37.7045 34.1207 37.7706C34.0633 37.8367 33.9934 37.8909 33.9151 37.93C33.8367 37.9691 33.7515 37.9925 33.6641 37.9986C33.5768 38.0048 33.489 37.9937 33.406 37.966L23.8376 34.7765" stroke="#0050C8" stroke-width="1.33338" stroke-linecap="round" stroke-linejoin="round"/>
<path d="M22.4999 28.6666L26.1889 23.3935C26.3048 23.2274 26.457 23.09 26.6339 22.9915C26.8109 22.893 27.0079 22.8362 27.2101 22.8252C27.4123 22.8142 27.6143 22.8495 27.8009 22.9282C27.9874 23.007 28.1536 23.1272 28.2868 23.2797L31.8336 27.3332" stroke="#0050C8" stroke-width="1.33338" stroke-linecap="round" stroke-linejoin="round"/>
<path d="M22.3336 23.334C23.1623 23.334 23.8341 22.6622 23.8341 21.8335C23.8341 21.0048 23.1623 20.333 22.3336 20.333C21.5049 20.333 20.8331 21.0048 20.8331 21.8335C20.8331 22.6622 21.5049 23.334 22.3336 23.334Z" stroke="#0050C8" stroke-width="1.33338" stroke-linecap="round" stroke-linejoin="round"/>
</svg>
