<svg width="33" height="32" viewBox="0 0 33 32" fill="none" xmlns="http://www.w3.org/2000/svg">
<circle cx="18" cy="16" r="14" fill="#FFF8CC"/>
<path d="M9.75 7.0625C9.75 7.92445 10.0924 8.7511 10.7019 9.3606C11.3114 9.97009 12.138 10.3125 13 10.3125C13.862 10.3125 14.6886 9.97009 15.2981 9.3606C15.9076 8.7511 16.25 7.92445 16.25 7.0625C16.25 6.20055 15.9076 5.3739 15.2981 4.7644C14.6886 4.15491 13.862 3.8125 13 3.8125C12.138 3.8125 11.3114 4.15491 10.7019 4.7644C10.0924 5.3739 9.75 6.20055 9.75 7.0625V7.0625Z" stroke="#806B00" stroke-linecap="round" stroke-linejoin="round"/>
<path d="M18.6875 17.625C18.6875 16.1166 18.0883 14.6699 17.0217 13.6033C15.9551 12.5367 14.5084 11.9375 13 11.9375C11.4916 11.9375 10.0449 12.5367 8.97833 13.6033C7.91172 14.6699 7.3125 16.1166 7.3125 17.625V20.0625H9.75L10.5625 28.1875H15.4375L16.25 20.0625H18.6875V17.625Z" stroke="#806B00" stroke-linecap="round" stroke-linejoin="round"/>
</svg>
