<svg width="24" height="25" viewBox="0 0 24 25" fill="none" xmlns="http://www.w3.org/2000/svg">
<rect y="0.5" width="24" height="24" rx="2" fill="#FFE0ED"/>
<path d="M19.1677 11.8943C19.2544 11.8943 19.3376 11.8597 19.399 11.7981C19.4603 11.7366 19.4948 11.6531 19.4948 11.566C19.4948 9.82459 18.8055 8.1545 17.5786 6.92314C16.3516 5.69177 14.6875 5 12.9524 5C12.8656 5 12.7824 5.03459 12.7211 5.09616C12.6597 5.15772 12.6252 5.24123 12.6252 5.3283V11.2377C12.6252 11.4118 12.6942 11.5788 12.8169 11.702C12.9396 11.8251 13.106 11.8943 13.2795 11.8943H19.1677Z" fill="#9F4167"/>
<path d="M19.6725 13.061H13.4509C13.3551 13.0511 13.2585 13.0719 13.175 13.1205C13.0916 13.169 13.0254 13.2428 12.986 13.3313C12.9523 13.4228 12.9474 13.5226 12.972 13.6169C12.9966 13.7113 13.0495 13.7958 13.1235 13.8588L17.5244 18.2831C17.5542 18.3142 17.5898 18.3389 17.6291 18.3559C17.6685 18.3729 17.7108 18.3818 17.7537 18.382C17.7966 18.3825 17.8392 18.374 17.8787 18.357C17.9181 18.3399 17.9536 18.3148 17.9829 18.2831C18.6245 17.643 19.1333 16.8808 19.4796 16.0409C19.8259 15.201 20.0028 14.3001 20 13.3907C20 13.3032 19.9655 13.2194 19.9041 13.1576C19.8427 13.0957 19.7594 13.061 19.6725 13.061Z" fill="#9F4167"/>
<path d="M11.1984 20.9982C12.0906 20.9965 12.9736 20.817 13.7962 20.4702C14.6188 20.1234 15.3646 19.6161 15.9903 18.9778C16.0209 18.9474 16.0452 18.9111 16.0618 18.8711C16.0784 18.8311 16.0869 18.7883 16.0869 18.745C16.0869 18.7017 16.0784 18.6588 16.0618 18.6188C16.0452 18.5789 16.0209 18.5426 15.9903 18.5121L11.6037 14.104C11.5277 14.0125 11.4799 13.9008 11.4664 13.7825V7.5442C11.4664 7.45721 11.432 7.37379 11.3707 7.31228C11.3094 7.25077 11.2262 7.21622 11.1395 7.21622C10.2129 7.17981 9.28843 7.33203 8.42195 7.66369C7.55546 7.99535 6.76486 8.4996 6.09777 9.14604C5.43069 9.79249 4.90093 10.5678 4.54041 11.4251C4.1799 12.2825 3.99609 13.2042 4.00006 14.1348C4.00404 15.0653 4.19571 15.9855 4.56354 16.8397C4.93136 17.6939 5.46773 18.4646 6.14031 19.1053C6.81289 19.746 7.60778 20.2434 8.47706 20.5676C9.34635 20.8918 10.272 21.0361 11.1984 20.9917V20.9982Z" fill="#9F4167"/>
</svg>
