<svg width="39" height="39" viewBox="0 0 39 39" fill="none" xmlns="http://www.w3.org/2000/svg">
<rect width="39" height="39" rx="4.875" fill="#4F6BED"/>
<path d="M11.6237 15.6105C11.829 15.9652 12.0577 16.3992 12.3097 16.9125C12.5617 17.4258 12.8183 17.9672 13.0797 18.5365C13.341 19.0965 13.5977 19.6705 13.8497 20.2585C14.111 20.8372 14.349 21.3738 14.5637 21.8685C14.7783 21.3738 15.0117 20.8372 15.2637 20.2585C15.5157 19.6705 15.7723 19.0965 16.0337 18.5365C16.295 17.9672 16.5517 17.4258 16.8037 16.9125C17.0557 16.3992 17.2843 15.9652 17.4897 15.6105H19.0857C19.1697 16.3198 19.249 17.0758 19.3237 17.8785C19.3983 18.6718 19.4637 19.4885 19.5197 20.3285C19.585 21.1592 19.641 21.9992 19.6877 22.8485C19.7437 23.6885 19.7903 24.5098 19.8277 25.3125H18.0917C18.0543 24.1832 18.0077 23.0212 17.9517 21.8265C17.905 20.6318 17.8303 19.4745 17.7277 18.3545C17.625 18.5692 17.5037 18.8258 17.3637 19.1245C17.2237 19.4232 17.0743 19.7498 16.9157 20.1045C16.757 20.4498 16.5937 20.8092 16.4257 21.1825C16.267 21.5558 16.1083 21.9198 15.9497 22.2745C15.8003 22.6198 15.6603 22.9465 15.5297 23.2545C15.399 23.5532 15.287 23.8098 15.1937 24.0245H13.8777C13.7843 23.8098 13.6723 23.5485 13.5417 23.2405C13.411 22.9325 13.2663 22.6058 13.1077 22.2605C12.9583 21.9058 12.7997 21.5418 12.6317 21.1685C12.473 20.7952 12.3143 20.4358 12.1557 20.0905C11.997 19.7452 11.8477 19.4232 11.7077 19.1245C11.5677 18.8165 11.4463 18.5598 11.3437 18.3545C11.241 19.4745 11.1617 20.6318 11.1057 21.8265C11.059 23.0212 11.017 24.1832 10.9797 25.3125H9.24366C9.28099 24.5098 9.32299 23.6792 9.36966 22.8205C9.42566 21.9618 9.48166 21.1125 9.53766 20.2725C9.60299 19.4232 9.67299 18.6018 9.74766 17.8085C9.82232 17.0152 9.90166 16.2825 9.98566 15.6105H11.6237ZM27.6787 25.3125C27.436 24.9392 27.156 24.5472 26.8387 24.1365C26.5214 23.7258 26.1854 23.3292 25.8307 22.9465C25.4854 22.5638 25.126 22.1998 24.7527 21.8545C24.3794 21.5092 24.0107 21.2105 23.6467 20.9585V25.3125H21.8827V15.6105H23.6467V19.6145C23.9547 19.3065 24.2767 18.9798 24.6127 18.6345C24.9487 18.2798 25.28 17.9252 25.6067 17.5705C25.9427 17.2065 26.26 16.8565 26.5587 16.5205C26.8574 16.1845 27.128 15.8812 27.3707 15.6105H29.4847C29.1767 15.9652 28.85 16.3338 28.5047 16.7165C28.1594 17.0992 27.8047 17.4865 27.4407 17.8785C27.0767 18.2612 26.708 18.6438 26.3347 19.0265C25.9707 19.4092 25.6114 19.7732 25.2567 20.1185C25.6487 20.4172 26.0454 20.7672 26.4467 21.1685C26.8574 21.5605 27.2587 21.9852 27.6507 22.4425C28.0427 22.8905 28.416 23.3618 28.7707 23.8565C29.1347 24.3418 29.466 24.8272 29.7647 25.3125H27.6787Z" fill="white"/>
</svg>
