<svg width="936" height="67" viewBox="0 0 936 67" fill="none" xmlns="http://www.w3.org/2000/svg">
<g opacity="0.1">
<rect x="-33" y="11.425" width="34.8961" height="34.8961" transform="rotate(-90 -33 11.425)" fill="white"/>
<mask id="mask0_10853_230189" style="mask-type:alpha" maskUnits="userSpaceOnUse" x="-32" y="-19" width="85" height="86">
<rect x="-31.8008" y="66.0012" width="84.3323" height="84.3323" transform="rotate(-90 -31.8008 66.0012)" fill="#FFBB9C"/>
</mask>
<g mask="url(#mask0_10853_230189)">
<rect x="-45.5645" y="34.6555" width="3.83153" height="65.8522" transform="rotate(-45 -45.5645 34.6555)" fill="#80ACFF"/>
<rect x="-41.4922" y="28.1609" width="3.83153" height="65.8522" transform="rotate(-45 -41.4922 28.1609)" fill="#80ACFF"/>
<rect x="-46.7891" y="12.6873" width="3.83153" height="95.9119" transform="rotate(-45 -46.7891 12.6873)" fill="#80ACFF"/>
<rect x="-41.4922" y="6.90601" width="3.83153" height="95.9119" transform="rotate(-45 -41.4922 6.90601)" fill="#80ACFF"/>
<rect x="-44.4199" y="-6.68188" width="3.83153" height="120.637" transform="rotate(-45 -44.4199 -6.68188)" fill="#80ACFF"/>
<rect x="-41.8652" y="-15.3093" width="3.83153" height="125.958" transform="rotate(-45 -41.8652 -15.3093)" fill="#80ACFF"/>
<rect x="-36.1621" y="-20.1555" width="3.83153" height="125.958" transform="rotate(-45 -36.1621 -20.1555)" fill="#80ACFF"/>
<rect x="-31.8008" y="-26.4568" width="3.83153" height="125.958" transform="rotate(-45 -31.8008 -26.4568)" fill="#80ACFF"/>
<rect x="-28.8906" y="-34.2117" width="3.83153" height="125.958" transform="rotate(-45 -28.8906 -34.2117)" fill="#80ACFF"/>
<rect x="-24.0449" y="-40.9968" width="3.83153" height="125.958" transform="rotate(-45 -24.0449 -40.9968)" fill="#80ACFF"/>
<rect x="-19.6836" y="-46.8123" width="3.83153" height="125.958" transform="rotate(-45 -19.6836 -46.8123)" fill="#80ACFF"/>
<rect x="-13.3809" y="-51.6604" width="3.83153" height="125.958" transform="rotate(-45 -13.3809 -51.6604)" fill="#80ACFF"/>
<rect x="-6.11328" y="-56.0222" width="3.83153" height="125.958" transform="rotate(-45 -6.11328 -56.0222)" fill="#80ACFF"/>
<rect x="-0.296875" y="-61.3523" width="3.83153" height="125.958" transform="rotate(-45 -0.296875 -61.3523)" fill="#80ACFF"/>
</g>
<mask id="mask1_10853_230189" style="mask-type:alpha" maskUnits="userSpaceOnUse" x="405" y="-19" width="85" height="86">
<rect x="405.578" y="66.0012" width="84.3323" height="84.3323" transform="rotate(-90 405.578 66.0012)" fill="#FFBB9C"/>
</mask>
<g mask="url(#mask1_10853_230189)">
<rect x="393.459" y="46.9656" width="3.83153" height="39.2581" transform="rotate(-45 393.459 46.9656)" fill="#80ACFF"/>
<rect x="387.16" y="50.8435" width="3.83153" height="39.2581" transform="rotate(-45 387.16 50.8435)" fill="#80ACFF"/>
<rect x="391.812" y="34.6555" width="3.83153" height="65.8522" transform="rotate(-45 391.812 34.6555)" fill="#80ACFF"/>
<rect x="395.883" y="28.1609" width="3.83153" height="65.8522" transform="rotate(-45 395.883 28.1609)" fill="#80ACFF"/>
<rect x="390.588" y="12.6873" width="3.83153" height="95.9119" transform="rotate(-45 390.588 12.6873)" fill="#80ACFF"/>
<rect x="395.883" y="6.90601" width="3.83153" height="95.9119" transform="rotate(-45 395.883 6.90601)" fill="#80ACFF"/>
<rect x="392.959" y="-6.68188" width="3.83153" height="120.637" transform="rotate(-45 392.959 -6.68188)" fill="#80ACFF"/>
<rect x="395.514" y="-15.3093" width="3.83153" height="125.958" transform="rotate(-45 395.514 -15.3093)" fill="#80ACFF"/>
<rect x="401.215" y="-20.1555" width="3.83153" height="125.958" transform="rotate(-45 401.215 -20.1555)" fill="#80ACFF"/>
<rect x="405.576" y="-26.4568" width="3.83153" height="125.958" transform="rotate(-45 405.576 -26.4568)" fill="#80ACFF"/>
<rect x="408.484" y="-34.2117" width="3.83153" height="125.958" transform="rotate(-45 408.484 -34.2117)" fill="#80ACFF"/>
<rect x="413.332" y="-40.9968" width="3.83153" height="125.958" transform="rotate(-45 413.332 -40.9968)" fill="#80ACFF"/>
<rect x="417.693" y="-46.8123" width="3.83153" height="125.958" transform="rotate(-45 417.693 -46.8123)" fill="#80ACFF"/>
<rect x="423.994" y="-51.6604" width="3.83153" height="125.958" transform="rotate(-45 423.994 -51.6604)" fill="#80ACFF"/>
<rect x="431.264" y="-56.0222" width="3.83153" height="125.958" transform="rotate(-45 431.264 -56.0222)" fill="#80ACFF"/>
<rect x="437.08" y="-61.3523" width="3.83153" height="125.958" transform="rotate(-45 437.08 -61.3523)" fill="#80ACFF"/>
</g>
<mask id="mask2_10853_230189" style="mask-type:alpha" maskUnits="userSpaceOnUse" x="842" y="-19" width="86" height="86">
<rect x="842.955" y="66.0012" width="84.3323" height="84.3323" transform="rotate(-90 842.955 66.0012)" fill="#FFBB9C"/>
</mask>
<g mask="url(#mask2_10853_230189)">
<rect x="830.838" y="46.9656" width="3.83153" height="39.2581" transform="rotate(-45 830.838 46.9656)" fill="#80ACFF"/>
<rect x="824.537" y="50.8435" width="3.83153" height="39.2581" transform="rotate(-45 824.537 50.8435)" fill="#80ACFF"/>
<rect x="829.189" y="34.6555" width="3.83153" height="65.8522" transform="rotate(-45 829.189 34.6555)" fill="#80ACFF"/>
<rect x="833.262" y="28.1609" width="3.83153" height="65.8522" transform="rotate(-45 833.262 28.1609)" fill="#80ACFF"/>
<rect x="827.965" y="12.6873" width="3.83153" height="95.9119" transform="rotate(-45 827.965 12.6873)" fill="#80ACFF"/>
<rect x="833.262" y="6.90601" width="3.83153" height="95.9119" transform="rotate(-45 833.262 6.90601)" fill="#80ACFF"/>
<rect x="830.334" y="-6.68188" width="3.83153" height="120.637" transform="rotate(-45 830.334 -6.68188)" fill="#80ACFF"/>
<rect x="832.891" y="-15.3093" width="3.83153" height="125.958" transform="rotate(-45 832.891 -15.3093)" fill="#80ACFF"/>
<rect x="838.59" y="-20.1555" width="3.83153" height="125.958" transform="rotate(-45 838.59 -20.1555)" fill="#80ACFF"/>
<rect x="842.955" y="-26.4568" width="3.83153" height="125.958" transform="rotate(-45 842.955 -26.4568)" fill="#80ACFF"/>
<rect x="845.861" y="-34.2117" width="3.83153" height="125.958" transform="rotate(-45 845.861 -34.2117)" fill="#80ACFF"/>
<rect x="850.709" y="-40.9968" width="3.83153" height="125.958" transform="rotate(-45 850.709 -40.9968)" fill="#80ACFF"/>
<rect x="855.07" y="-46.8123" width="3.83153" height="125.958" transform="rotate(-45 855.07 -46.8123)" fill="#80ACFF"/>
<rect x="861.371" y="-51.6604" width="3.83153" height="125.958" transform="rotate(-45 861.371 -51.6604)" fill="#80ACFF"/>
<rect x="868.641" y="-56.0222" width="3.83153" height="125.958" transform="rotate(-45 868.641 -56.0222)" fill="#80ACFF"/>
<rect x="874.457" y="-61.3523" width="3.83153" height="125.958" transform="rotate(-45 874.457 -61.3523)" fill="#80ACFF"/>
</g>
<mask id="mask3_10853_230189" style="mask-type:alpha" maskUnits="userSpaceOnUse" x="253" y="-19" width="85" height="85">
<rect x="253.408" y="65.6575" width="84.3323" height="84.3323" transform="rotate(-90 253.408 65.6575)" fill="#FFBB9C"/>
</mask>
<g mask="url(#mask3_10853_230189)">
<rect x="241.291" y="46.6218" width="3.83153" height="39.2581" transform="rotate(-45 241.291 46.6218)" fill="#80ACFF"/>
<rect x="234.99" y="50.4988" width="3.83153" height="39.2581" transform="rotate(-45 234.99 50.4988)" fill="#80ACFF"/>
<rect x="239.643" y="34.3113" width="3.83153" height="65.8522" transform="rotate(-45 239.643 34.3113)" fill="#80ACFF"/>
<rect x="243.715" y="27.8171" width="3.83153" height="65.8522" transform="rotate(-45 243.715 27.8171)" fill="#80ACFF"/>
<rect x="238.418" y="12.342" width="3.83153" height="95.9119" transform="rotate(-45 238.418 12.342)" fill="#80ACFF"/>
<rect x="243.715" y="6.56177" width="3.83153" height="95.9119" transform="rotate(-45 243.715 6.56177)" fill="#80ACFF"/>
<rect x="240.791" y="-7.0271" width="3.83153" height="120.637" transform="rotate(-45 240.791 -7.0271)" fill="#80ACFF"/>
<rect x="243.344" y="-15.6536" width="3.83153" height="125.958" transform="rotate(-45 243.344 -15.6536)" fill="#80ACFF"/>
<rect x="249.047" y="-20.4998" width="3.83153" height="125.958" transform="rotate(-45 249.047 -20.4998)" fill="#80ACFF"/>
<rect x="253.408" y="-26.8" width="3.83153" height="125.958" transform="rotate(-45 253.408 -26.8)" fill="#80ACFF"/>
<rect x="256.314" y="-34.5554" width="3.83153" height="125.958" transform="rotate(-45 256.314 -34.5554)" fill="#80ACFF"/>
<rect x="261.162" y="-41.342" width="3.83153" height="125.958" transform="rotate(-45 261.162 -41.342)" fill="#80ACFF"/>
<rect x="265.523" y="-47.1575" width="3.83153" height="125.958" transform="rotate(-45 265.523 -47.1575)" fill="#80ACFF"/>
<rect x="271.824" y="-52.0037" width="3.83153" height="125.958" transform="rotate(-45 271.824 -52.0037)" fill="#80ACFF"/>
<rect x="279.094" y="-56.366" width="3.83153" height="125.958" transform="rotate(-45 279.094 -56.366)" fill="#80ACFF"/>
<rect x="284.91" y="-61.696" width="3.83153" height="125.958" transform="rotate(-45 284.91 -61.696)" fill="#80ACFF"/>
</g>
<mask id="mask4_10853_230189" style="mask-type:alpha" maskUnits="userSpaceOnUse" x="690" y="-19" width="86" height="85">
<rect x="690.783" y="65.6575" width="84.3323" height="84.3323" transform="rotate(-90 690.783 65.6575)" fill="#FFBB9C"/>
</mask>
<g mask="url(#mask4_10853_230189)">
<rect x="678.664" y="46.6218" width="3.83153" height="39.2581" transform="rotate(-45 678.664 46.6218)" fill="#80ACFF"/>
<rect x="672.363" y="50.4988" width="3.83153" height="39.2581" transform="rotate(-45 672.363 50.4988)" fill="#80ACFF"/>
<rect x="677.018" y="34.3113" width="3.83153" height="65.8522" transform="rotate(-45 677.018 34.3113)" fill="#80ACFF"/>
<rect x="681.088" y="27.8171" width="3.83153" height="65.8522" transform="rotate(-45 681.088 27.8171)" fill="#80ACFF"/>
<rect x="675.793" y="12.342" width="3.83153" height="95.9119" transform="rotate(-45 675.793 12.342)" fill="#80ACFF"/>
<rect x="681.088" y="6.56177" width="3.83153" height="95.9119" transform="rotate(-45 681.088 6.56177)" fill="#80ACFF"/>
<rect x="678.162" y="-7.0271" width="3.83153" height="120.637" transform="rotate(-45 678.162 -7.0271)" fill="#80ACFF"/>
<rect x="680.719" y="-15.6536" width="3.83153" height="125.958" transform="rotate(-45 680.719 -15.6536)" fill="#80ACFF"/>
<rect x="686.418" y="-20.4998" width="3.83153" height="125.958" transform="rotate(-45 686.418 -20.4998)" fill="#80ACFF"/>
<rect x="690.781" y="-26.8" width="3.83153" height="125.958" transform="rotate(-45 690.781 -26.8)" fill="#80ACFF"/>
<rect x="693.689" y="-34.5554" width="3.83153" height="125.958" transform="rotate(-45 693.689 -34.5554)" fill="#80ACFF"/>
<rect x="698.537" y="-41.342" width="3.83153" height="125.958" transform="rotate(-45 698.537 -41.342)" fill="#80ACFF"/>
<rect x="702.898" y="-47.1575" width="3.83153" height="125.958" transform="rotate(-45 702.898 -47.1575)" fill="#80ACFF"/>
<rect x="709.199" y="-52.0037" width="3.83153" height="125.958" transform="rotate(-45 709.199 -52.0037)" fill="#80ACFF"/>
<rect x="716.469" y="-56.366" width="3.83153" height="125.958" transform="rotate(-45 716.469 -56.366)" fill="#80ACFF"/>
<rect x="722.285" y="-61.696" width="3.83153" height="125.958" transform="rotate(-45 722.285 -61.696)" fill="#80ACFF"/>
</g>
<rect x="117.73" y="65.7087" width="67.8536" height="67.8536" transform="rotate(-90 117.73 65.7087)" fill="#0050C8"/>
<rect x="555.107" y="65.7092" width="67.8536" height="67.8536" transform="rotate(-90 555.107 65.7092)" fill="#0050C8"/>
<circle opacity="0.5" cx="185.451" cy="-2.76989" r="22.7794" transform="rotate(-90 185.451 -2.76989)" fill="white"/>
<circle opacity="0.5" cx="622.83" cy="-2.76989" r="22.7794" transform="rotate(-90 622.83 -2.76989)" fill="white"/>
</g>
</svg>
