<svg width="16" height="17" viewBox="0 0 16 17" fill="none" xmlns="http://www.w3.org/2000/svg">
<g clip-path="url(#clip0_5264_73053)">
<path d="M12.5 6.25C12.5314 4.89127 12.0226 3.57557 11.0853 2.59141C10.148 1.60724 8.85866 1.03494 7.50002 1C6.14139 1.03494 4.85205 1.60724 3.91475 2.59141C2.97745 3.57557 2.46869 4.89127 2.50002 6.25C2.48279 7.40321 2.84982 8.52937 3.54327 9.45095C4.23673 10.3725 5.21716 11.0371 6.33002 11.34L5.86336 12.2733C5.8253 12.3496 5.80735 12.4343 5.81122 12.5194C5.81509 12.6045 5.84064 12.6872 5.88546 12.7597C5.93027 12.8321 5.99286 12.8919 6.06728 12.9334C6.1417 12.9749 6.22549 12.9967 6.31069 12.9967H8.69202C8.77722 12.9967 8.86101 12.9749 8.93543 12.9334C9.00985 12.8919 9.07244 12.8321 9.11726 12.7597C9.16207 12.6872 9.18762 12.6045 9.19149 12.5194C9.19536 12.4343 9.17741 12.3496 9.13936 12.2733L8.67269 11.34C9.78506 11.0366 10.7649 10.3718 11.4578 9.45029C12.1508 8.52875 12.5174 7.40286 12.5 6.25V6.25Z" stroke="#FFB321" stroke-width="1.5" stroke-linecap="round" stroke-linejoin="round"/>
<path d="M7.5 13V14C7.5 14.2652 7.60536 14.5196 7.79289 14.7071C7.98043 14.8946 8.23478 15 8.5 15H9.5C9.76522 15 10.0196 14.8946 10.2071 14.7071C10.3946 14.5196 10.5 14.2652 10.5 14C10.5 13.7348 10.6054 13.4804 10.7929 13.2929C10.9804 13.1054 11.2348 13 11.5 13C11.7652 13 12.0196 13.1054 12.2071 13.2929C12.3946 13.4804 12.5 13.7348 12.5 14V16" stroke="#FFB321" stroke-width="1.5" stroke-linecap="round" stroke-linejoin="round"/>
</g>
<defs>
<clipPath id="clip0_5264_73053">
<rect width="16" height="16" fill="white" transform="translate(0 0.5)"/>
</clipPath>
</defs>
</svg>
