<svg width="16" height="16" viewBox="0 0 16 16" fill="none" xmlns="http://www.w3.org/2000/svg">
<g clip-path="url(#clip0_3327_164173)">
<path d="M12.4999 5.75C12.5312 4.39127 12.0225 3.07557 11.0852 2.09141C10.1479 1.10724 8.85854 0.53494 7.4999 0.5C6.14126 0.53494 4.85193 1.10724 3.91463 2.09141C2.97733 3.07557 2.46856 4.39127 2.4999 5.75C2.48267 6.90321 2.8497 8.02937 3.54315 8.95095C4.2366 9.87254 5.21704 10.5371 6.3299 10.84L5.86323 11.7733C5.82518 11.8496 5.80723 11.9343 5.8111 12.0194C5.81497 12.1045 5.84052 12.1872 5.88534 12.2597C5.93015 12.3321 5.99274 12.3919 6.06716 12.4334C6.14158 12.4749 6.22537 12.4967 6.31057 12.4967H8.6919C8.7771 12.4967 8.86089 12.4749 8.93531 12.4334C9.00973 12.3919 9.07232 12.3321 9.11713 12.2597C9.16195 12.1872 9.1875 12.1045 9.19137 12.0194C9.19524 11.9343 9.17729 11.8496 9.13923 11.7733L8.67257 10.84C9.78494 10.5366 10.7648 9.87183 11.4577 8.95029C12.1506 8.02875 12.5173 6.90286 12.4999 5.75V5.75Z" stroke="#6B6C7E" stroke-width="1.5" stroke-linecap="round" stroke-linejoin="round"/>
<path d="M7.5 12.5V13.5C7.5 13.7652 7.60536 14.0196 7.79289 14.2071C7.98043 14.3946 8.23478 14.5 8.5 14.5H9.5C9.76522 14.5 10.0196 14.3946 10.2071 14.2071C10.3946 14.0196 10.5 13.7652 10.5 13.5C10.5 13.2348 10.6054 12.9804 10.7929 12.7929C10.9804 12.6054 11.2348 12.5 11.5 12.5C11.7652 12.5 12.0196 12.6054 12.2071 12.7929C12.3946 12.9804 12.5 13.2348 12.5 13.5V15.5" stroke="#6B6C7E" stroke-width="1.5" stroke-linecap="round" stroke-linejoin="round"/>
</g>
<defs>
<clipPath id="clip0_3327_164173">
<rect width="16" height="16" fill="white"/>
</clipPath>
</defs>
</svg>
