<svg width="24" height="24" viewBox="0 0 24 24" fill="none" xmlns="http://www.w3.org/2000/svg">
<path d="M21.5548 6.37132C21.6003 6.48093 21.6123 6.60157 21.5892 6.71798C21.5661 6.83439 21.5091 6.94135 21.4252 7.02532L19.0252 9.42532C18.9694 9.48101 18.9031 9.52514 18.8302 9.5552C18.7573 9.58526 18.6792 9.60067 18.6004 9.60052H15.2488L13.6252 11.2241C13.8082 11.6073 13.8499 12.0428 13.7428 12.4537C13.6358 12.8646 13.3869 13.2244 13.0402 13.4696C12.6935 13.7148 12.2713 13.8295 11.8482 13.7935C11.4252 13.7574 11.0284 13.573 10.7282 13.2727C10.4279 12.9725 10.2435 12.5758 10.2075 12.1527C10.1714 11.7296 10.2861 11.3074 10.5313 10.9607C10.7765 10.614 11.1363 10.3651 11.5472 10.2581C11.9581 10.151 12.3936 10.1927 12.7768 10.3757L14.4004 8.75212V5.40052C14.4003 5.32168 14.4157 5.24358 14.4457 5.17069C14.4758 5.0978 14.5199 5.03155 14.5756 4.97572L16.9756 2.57572C17.0595 2.4916 17.1665 2.43428 17.283 2.41104C17.3996 2.3878 17.5204 2.39968 17.6301 2.44518C17.7399 2.49068 17.8337 2.56775 17.8996 2.66662C17.9655 2.76549 18.0006 2.8817 18.0004 3.00052V6.00052H21.0004C21.1191 6.00054 21.2352 6.03579 21.3339 6.10179C21.4326 6.1678 21.5094 6.2616 21.5548 6.37132ZM19.552 7.20052H17.4004C17.2413 7.20052 17.0886 7.13731 16.9761 7.02479C16.8636 6.91227 16.8004 6.75965 16.8004 6.60052V4.44893L15.6004 5.64892V8.40052H18.352L19.552 7.20052ZM21.1288 9.01852C21.4348 9.95692 21.6004 10.9601 21.6004 12.0005C21.6 14.0284 20.9573 16.0041 19.7647 17.6443C18.572 19.2844 16.8906 20.5048 14.9616 21.1303C13.0326 21.7558 10.955 21.7544 9.0268 21.1263C7.09861 20.4981 5.41886 19.2755 4.22845 17.6338C3.03803 15.992 2.39809 14.0154 2.4004 11.9875C2.40271 9.95958 3.04714 7.98448 4.2413 6.34543C5.43545 4.70638 7.11798 3.48759 9.04759 2.86383C10.9772 2.24008 13.0548 2.2434 14.9824 2.87333L14.0128 3.84292C12.2315 3.40372 10.3554 3.55977 8.67114 4.28722C6.98689 5.01468 5.58712 6.27355 4.6857 7.87146C3.78428 9.46938 3.43078 11.3185 3.67924 13.1362C3.92769 14.954 4.76442 16.6404 6.06158 17.9378C7.35874 19.2352 9.04499 20.0723 10.8627 20.3211C12.6804 20.5699 14.5295 20.2167 16.1276 19.3156C17.7257 18.4145 18.9849 17.015 19.7127 15.3309C20.4404 13.6468 20.5969 11.7707 20.158 9.98933L21.1288 9.01852ZM17.8804 10.8005C18.1381 12.0642 17.9818 13.3773 17.4346 14.5452C16.8874 15.713 15.9785 16.6735 14.8426 17.2842C13.7066 17.8949 12.4042 18.1233 11.1282 17.9356C9.85224 17.7479 8.67072 17.1541 7.75877 16.2421C6.84682 15.3302 6.25298 14.1487 6.06529 12.8727C5.87759 11.5968 6.10603 10.2943 6.71673 9.15834C7.32744 8.02241 8.2879 7.11349 9.45576 6.5663C10.6236 6.01912 11.9367 5.8628 13.2004 6.12052V7.35172C12.181 7.08873 11.1033 7.1682 10.1335 7.57789C9.16367 7.98758 8.35544 8.70476 7.83329 9.61897C7.31114 10.5332 7.10404 11.5937 7.2439 12.6372C7.38375 13.6807 7.8628 14.6492 8.60725 15.3937C9.3517 16.1381 10.3203 16.6172 11.3637 16.757C12.4072 16.8969 13.4677 16.6898 14.3819 16.1676C15.2962 15.6455 16.0133 14.8372 16.423 13.8674C16.8327 12.8976 16.9122 11.82 16.6492 10.8005H17.8804Z" fill="#004AD7"/>
</svg>
