<svg width="1128" height="80" viewBox="0 0 1128 80" fill="none" xmlns="http://www.w3.org/2000/svg">
<g clip-path="url(#clip0_12731_232181)">
<rect width="1128" height="80" fill="#0A3E94"/>
<g opacity="0.04">
<g clip-path="url(#clip1_12731_232181)">
<rect width="66.5" height="66.5" transform="translate(-11.5 -1)" fill="white"/>
<path fill-rule="evenodd" clip-rule="evenodd" d="M21.75 33.0812V28.925H-11.5V25.6H21.75V22.275H-11.5V18.95H21.75V15.625H-11.5V12.3H21.75V8.975H-11.5V5.65H21.75V2.325H-11.5V-1H22.5812H25.075V32.25H28.4V-1H31.725V32.25H35.05V-1H38.375V32.25H41.7V-1H45.025V32.25H48.35V-1H51.675V32.25H55V35.575H21.75V33.0812ZM-11.5 32.25H-8.175V65.5H-11.5V32.25ZM-4.85 32.25H-1.525V65.5H-4.85V32.25ZM1.8 32.25H5.125V65.5H1.8V32.25ZM8.45 32.25H11.775V65.5H8.45V32.25ZM15.1 32.25H18.425V65.5H15.1V32.25ZM21.75 38.9H55V42.225H21.75V38.9ZM21.75 45.55H55V48.875H21.75V45.55ZM21.75 52.2H55V55.525H21.75V52.2ZM21.75 58.85H55V62.175H21.75V58.85Z" fill="#0A3E94"/>
</g>
<g clip-path="url(#clip2_12731_232181)">
<rect width="66.5" height="66.5" transform="translate(-11.5 65.5)" fill="white"/>
<path fill-rule="evenodd" clip-rule="evenodd" d="M21.75 99.5812V95.425H-11.5V92.1H21.75V88.775H-11.5V85.45H21.75V82.125H-11.5V78.8H21.75V75.475H-11.5V72.15H21.75V68.825H-11.5V65.5H22.5812H25.075V98.75H28.4V65.5H31.725V98.75H35.05V65.5H38.375V98.75H41.7V65.5H45.025V98.75H48.35V65.5H51.675V98.75H55V102.075H21.75V99.5812ZM-11.5 98.75H-8.175V132H-11.5V98.75ZM-4.85 98.75H-1.525V132H-4.85V98.75ZM1.8 98.75H5.125V132H1.8V98.75ZM8.45 98.75H11.775V132H8.45V98.75ZM15.1 98.75H18.425V132H15.1V98.75ZM21.75 105.4H55V108.725H21.75V105.4ZM21.75 112.05H55V115.375H21.75V112.05ZM21.75 118.7H55V122.025H21.75V118.7ZM21.75 125.35H55V128.675H21.75V125.35Z" fill="#0A3E94"/>
</g>
<g clip-path="url(#clip3_12731_232181)">
<rect width="66.5" height="66.5" transform="translate(55 -1)" fill="white"/>
<path fill-rule="evenodd" clip-rule="evenodd" d="M88.25 33.0812V28.925H55V25.6H88.25V22.275H55V18.95H88.25V15.625H55V12.3H88.25V8.975H55V5.65H88.25V2.325H55V-1H89.0812H91.575V32.25H94.9V-1H98.225V32.25H101.55V-1H104.875V32.25H108.2V-1H111.525V32.25H114.85V-1H118.175V32.25H121.5V35.575H88.25V33.0812ZM55 32.25H58.325V65.5H55V32.25ZM61.65 32.25H64.975V65.5H61.65V32.25ZM68.3 32.25H71.625V65.5H68.3V32.25ZM74.95 32.25H78.275V65.5H74.95V32.25ZM81.6 32.25H84.925V65.5H81.6V32.25ZM88.25 38.9H121.5V42.225H88.25V38.9ZM88.25 45.55H121.5V48.875H88.25V45.55ZM88.25 52.2H121.5V55.525H88.25V52.2ZM88.25 58.85H121.5V62.175H88.25V58.85Z" fill="#0A3E94"/>
</g>
<g clip-path="url(#clip4_12731_232181)">
<rect width="66.5" height="66.5" transform="translate(55 65.5)" fill="white"/>
<path fill-rule="evenodd" clip-rule="evenodd" d="M88.25 99.5812V95.425H55V92.1H88.25V88.775H55V85.45H88.25V82.125H55V78.8H88.25V75.475H55V72.15H88.25V68.825H55V65.5H89.0812H91.575V98.75H94.9V65.5H98.225V98.75H101.55V65.5H104.875V98.75H108.2V65.5H111.525V98.75H114.85V65.5H118.175V98.75H121.5V102.075H88.25V99.5812ZM55 98.75H58.325V132H55V98.75ZM61.65 98.75H64.975V132H61.65V98.75ZM68.3 98.75H71.625V132H68.3V98.75ZM74.95 98.75H78.275V132H74.95V98.75ZM81.6 98.75H84.925V132H81.6V98.75ZM88.25 105.4H121.5V108.725H88.25V105.4ZM88.25 112.05H121.5V115.375H88.25V112.05ZM88.25 118.7H121.5V122.025H88.25V118.7ZM88.25 125.35H121.5V128.675H88.25V125.35Z" fill="#0A3E94"/>
</g>
<g clip-path="url(#clip5_12731_232181)">
<rect width="66.5" height="66.5" transform="translate(121.5 -1)" fill="white"/>
<path fill-rule="evenodd" clip-rule="evenodd" d="M154.75 33.0812V28.925H121.5V25.6H154.75V22.275H121.5V18.95H154.75V15.625H121.5V12.3H154.75V8.975H121.5V5.65H154.75V2.325H121.5V-1H155.581H158.075V32.25H161.4V-1H164.725V32.25H168.05V-1H171.375V32.25H174.7V-1H178.025V32.25H181.35V-1H184.675V32.25H188V35.575H154.75V33.0812ZM121.5 32.25H124.825V65.5H121.5V32.25ZM128.15 32.25H131.475V65.5H128.15V32.25ZM134.8 32.25H138.125V65.5H134.8V32.25ZM141.45 32.25H144.775V65.5H141.45V32.25ZM148.1 32.25H151.425V65.5H148.1V32.25ZM154.75 38.9H188V42.225H154.75V38.9ZM154.75 45.55H188V48.875H154.75V45.55ZM154.75 52.2H188V55.525H154.75V52.2ZM154.75 58.85H188V62.175H154.75V58.85Z" fill="#0A3E94"/>
</g>
<g clip-path="url(#clip6_12731_232181)">
<rect width="66.5" height="66.5" transform="translate(121.5 65.5)" fill="white"/>
<path fill-rule="evenodd" clip-rule="evenodd" d="M154.75 99.5812V95.425H121.5V92.1H154.75V88.775H121.5V85.45H154.75V82.125H121.5V78.8H154.75V75.475H121.5V72.15H154.75V68.825H121.5V65.5H155.581H158.075V98.75H161.4V65.5H164.725V98.75H168.05V65.5H171.375V98.75H174.7V65.5H178.025V98.75H181.35V65.5H184.675V98.75H188V102.075H154.75V99.5812ZM121.5 98.75H124.825V132H121.5V98.75ZM128.15 98.75H131.475V132H128.15V98.75ZM134.8 98.75H138.125V132H134.8V98.75ZM141.45 98.75H144.775V132H141.45V98.75ZM148.1 98.75H151.425V132H148.1V98.75ZM154.75 105.4H188V108.725H154.75V105.4ZM154.75 112.05H188V115.375H154.75V112.05ZM154.75 118.7H188V122.025H154.75V118.7ZM154.75 125.35H188V128.675H154.75V125.35Z" fill="#0A3E94"/>
</g>
<g clip-path="url(#clip7_12731_232181)">
<rect width="66.5" height="66.5" transform="translate(188 -1)" fill="white"/>
<path fill-rule="evenodd" clip-rule="evenodd" d="M221.25 33.0812V28.925H188V25.6H221.25V22.275H188V18.95H221.25V15.625H188V12.3H221.25V8.975H188V5.65H221.25V2.325H188V-1H222.081H224.575V32.25H227.9V-1H231.225V32.25H234.55V-1H237.875V32.25H241.2V-1H244.525V32.25H247.85V-1H251.175V32.25H254.5V35.575H221.25V33.0812ZM188 32.25H191.325V65.5H188V32.25ZM194.65 32.25H197.975V65.5H194.65V32.25ZM201.3 32.25H204.625V65.5H201.3V32.25ZM207.95 32.25H211.275V65.5H207.95V32.25ZM214.6 32.25H217.925V65.5H214.6V32.25ZM221.25 38.9H254.5V42.225H221.25V38.9ZM221.25 45.55H254.5V48.875H221.25V45.55ZM221.25 52.2H254.5V55.525H221.25V52.2ZM221.25 58.85H254.5V62.175H221.25V58.85Z" fill="#0A3E94"/>
</g>
<g clip-path="url(#clip8_12731_232181)">
<rect width="66.5" height="66.5" transform="translate(188 65.5)" fill="white"/>
<path fill-rule="evenodd" clip-rule="evenodd" d="M221.25 99.5812V95.425H188V92.1H221.25V88.775H188V85.45H221.25V82.125H188V78.8H221.25V75.475H188V72.15H221.25V68.825H188V65.5H222.081H224.575V98.75H227.9V65.5H231.225V98.75H234.55V65.5H237.875V98.75H241.2V65.5H244.525V98.75H247.85V65.5H251.175V98.75H254.5V102.075H221.25V99.5812ZM188 98.75H191.325V132H188V98.75ZM194.65 98.75H197.975V132H194.65V98.75ZM201.3 98.75H204.625V132H201.3V98.75ZM207.95 98.75H211.275V132H207.95V98.75ZM214.6 98.75H217.925V132H214.6V98.75ZM221.25 105.4H254.5V108.725H221.25V105.4ZM221.25 112.05H254.5V115.375H221.25V112.05ZM221.25 118.7H254.5V122.025H221.25V118.7ZM221.25 125.35H254.5V128.675H221.25V125.35Z" fill="#0A3E94"/>
</g>
<g clip-path="url(#clip9_12731_232181)">
<rect width="66.5" height="66.5" transform="translate(254.5 -1)" fill="white"/>
<path fill-rule="evenodd" clip-rule="evenodd" d="M287.75 33.0812V28.925H254.5V25.6H287.75V22.275H254.5V18.95H287.75V15.625H254.5V12.3H287.75V8.975H254.5V5.65H287.75V2.325H254.5V-1H288.581H291.075V32.25H294.4V-1H297.725V32.25H301.05V-1H304.375V32.25H307.7V-1H311.025V32.25H314.35V-1H317.675V32.25H321V35.575H287.75V33.0812ZM254.5 32.25H257.825V65.5H254.5V32.25ZM261.15 32.25H264.475V65.5H261.15V32.25ZM267.8 32.25H271.125V65.5H267.8V32.25ZM274.45 32.25H277.775V65.5H274.45V32.25ZM281.1 32.25H284.425V65.5H281.1V32.25ZM287.75 38.9H321V42.225H287.75V38.9ZM287.75 45.55H321V48.875H287.75V45.55ZM287.75 52.2H321V55.525H287.75V52.2ZM287.75 58.85H321V62.175H287.75V58.85Z" fill="#0A3E94"/>
</g>
<g clip-path="url(#clip10_12731_232181)">
<rect width="66.5" height="66.5" transform="translate(254.5 65.5)" fill="white"/>
<path fill-rule="evenodd" clip-rule="evenodd" d="M287.75 99.5812V95.425H254.5V92.1H287.75V88.775H254.5V85.45H287.75V82.125H254.5V78.8H287.75V75.475H254.5V72.15H287.75V68.825H254.5V65.5H288.581H291.075V98.75H294.4V65.5H297.725V98.75H301.05V65.5H304.375V98.75H307.7V65.5H311.025V98.75H314.35V65.5H317.675V98.75H321V102.075H287.75V99.5812ZM254.5 98.75H257.825V132H254.5V98.75ZM261.15 98.75H264.475V132H261.15V98.75ZM267.8 98.75H271.125V132H267.8V98.75ZM274.45 98.75H277.775V132H274.45V98.75ZM281.1 98.75H284.425V132H281.1V98.75ZM287.75 105.4H321V108.725H287.75V105.4ZM287.75 112.05H321V115.375H287.75V112.05ZM287.75 118.7H321V122.025H287.75V118.7ZM287.75 125.35H321V128.675H287.75V125.35Z" fill="#0A3E94"/>
</g>
<g clip-path="url(#clip11_12731_232181)">
<rect width="66.5" height="66.5" transform="translate(321 -1)" fill="white"/>
<path fill-rule="evenodd" clip-rule="evenodd" d="M354.25 33.0812V28.925H321V25.6H354.25V22.275H321V18.95H354.25V15.625H321V12.3H354.25V8.975H321V5.65H354.25V2.325H321V-1H355.081H357.575V32.25H360.9V-1H364.225V32.25H367.55V-1H370.875V32.25H374.2V-1H377.525V32.25H380.85V-1H384.175V32.25H387.5V35.575H354.25V33.0812ZM321 32.25H324.325V65.5H321V32.25ZM327.65 32.25H330.975V65.5H327.65V32.25ZM334.3 32.25H337.625V65.5H334.3V32.25ZM340.95 32.25H344.275V65.5H340.95V32.25ZM347.6 32.25H350.925V65.5H347.6V32.25ZM354.25 38.9H387.5V42.225H354.25V38.9ZM354.25 45.55H387.5V48.875H354.25V45.55ZM354.25 52.2H387.5V55.525H354.25V52.2ZM354.25 58.85H387.5V62.175H354.25V58.85Z" fill="#0A3E94"/>
</g>
<g clip-path="url(#clip12_12731_232181)">
<rect width="66.5" height="66.5" transform="translate(321 65.5)" fill="white"/>
<path fill-rule="evenodd" clip-rule="evenodd" d="M354.25 99.5812V95.425H321V92.1H354.25V88.775H321V85.45H354.25V82.125H321V78.8H354.25V75.475H321V72.15H354.25V68.825H321V65.5H355.081H357.575V98.75H360.9V65.5H364.225V98.75H367.55V65.5H370.875V98.75H374.2V65.5H377.525V98.75H380.85V65.5H384.175V98.75H387.5V102.075H354.25V99.5812ZM321 98.75H324.325V132H321V98.75ZM327.65 98.75H330.975V132H327.65V98.75ZM334.3 98.75H337.625V132H334.3V98.75ZM340.95 98.75H344.275V132H340.95V98.75ZM347.6 98.75H350.925V132H347.6V98.75ZM354.25 105.4H387.5V108.725H354.25V105.4ZM354.25 112.05H387.5V115.375H354.25V112.05ZM354.25 118.7H387.5V122.025H354.25V118.7ZM354.25 125.35H387.5V128.675H354.25V125.35Z" fill="#0A3E94"/>
</g>
<g clip-path="url(#clip13_12731_232181)">
<rect width="66.5" height="66.5" transform="translate(387.5 -1)" fill="white"/>
<path fill-rule="evenodd" clip-rule="evenodd" d="M420.75 33.0812V28.925H387.5V25.6H420.75V22.275H387.5V18.95H420.75V15.625H387.5V12.3H420.75V8.975H387.5V5.65H420.75V2.325H387.5V-1H421.581H424.075V32.25H427.4V-1H430.725V32.25H434.05V-1H437.375V32.25H440.7V-1H444.025V32.25H447.35V-1H450.675V32.25H454V35.575H420.75V33.0812ZM387.5 32.25H390.825V65.5H387.5V32.25ZM394.15 32.25H397.475V65.5H394.15V32.25ZM400.8 32.25H404.125V65.5H400.8V32.25ZM407.45 32.25H410.775V65.5H407.45V32.25ZM414.1 32.25H417.425V65.5H414.1V32.25ZM420.75 38.9H454V42.225H420.75V38.9ZM420.75 45.55H454V48.875H420.75V45.55ZM420.75 52.2H454V55.525H420.75V52.2ZM420.75 58.85H454V62.175H420.75V58.85Z" fill="#0A3E94"/>
</g>
<g clip-path="url(#clip14_12731_232181)">
<rect width="66.5" height="66.5" transform="translate(387.5 65.5)" fill="white"/>
<path fill-rule="evenodd" clip-rule="evenodd" d="M420.75 99.5812V95.425H387.5V92.1H420.75V88.775H387.5V85.45H420.75V82.125H387.5V78.8H420.75V75.475H387.5V72.15H420.75V68.825H387.5V65.5H421.581H424.075V98.75H427.4V65.5H430.725V98.75H434.05V65.5H437.375V98.75H440.7V65.5H444.025V98.75H447.35V65.5H450.675V98.75H454V102.075H420.75V99.5812ZM387.5 98.75H390.825V132H387.5V98.75ZM394.15 98.75H397.475V132H394.15V98.75ZM400.8 98.75H404.125V132H400.8V98.75ZM407.45 98.75H410.775V132H407.45V98.75ZM414.1 98.75H417.425V132H414.1V98.75ZM420.75 105.4H454V108.725H420.75V105.4ZM420.75 112.05H454V115.375H420.75V112.05ZM420.75 118.7H454V122.025H420.75V118.7ZM420.75 125.35H454V128.675H420.75V125.35Z" fill="#0A3E94"/>
</g>
</g>
<g opacity="0.04">
<g clip-path="url(#clip15_12731_232181)">
<rect width="66.5" height="66.5" transform="translate(570 40)" fill="white"/>
<path fill-rule="evenodd" clip-rule="evenodd" d="M603.25 74.0812V69.925H570V66.6H603.25V63.275H570V59.95H603.25V56.625H570V53.3H603.25V49.975H570V46.65H603.25V43.325H570V40H604.081H606.575V73.25H609.9V40H613.225V73.25H616.55V40H619.875V73.25H623.2V40H626.525V73.25H629.85V40H633.175V73.25H636.5V76.575H603.25V74.0812ZM570 73.25H573.325V106.5H570V73.25ZM576.65 73.25H579.975V106.5H576.65V73.25ZM583.3 73.25H586.625V106.5H583.3V73.25ZM589.95 73.25H593.275V106.5H589.95V73.25ZM596.6 73.25H599.925V106.5H596.6V73.25ZM603.25 79.9H636.5V83.225H603.25V79.9ZM603.25 86.55H636.5V89.875H603.25V86.55ZM603.25 93.2H636.5V96.525H603.25V93.2ZM603.25 99.85H636.5V103.175H603.25V99.85Z" fill="#0A3E94"/>
</g>
<g clip-path="url(#clip16_12731_232181)">
<rect width="66.5" height="66.5" transform="translate(636.5 40)" fill="white"/>
<path fill-rule="evenodd" clip-rule="evenodd" d="M669.75 74.0812V69.925H636.5V66.6H669.75V63.275H636.5V59.95H669.75V56.625H636.5V53.3H669.75V49.975H636.5V46.65H669.75V43.325H636.5V40H670.581H673.075V73.25H676.4V40H679.725V73.25H683.05V40H686.375V73.25H689.7V40H693.025V73.25H696.35V40H699.675V73.25H703V76.575H669.75V74.0812ZM636.5 73.25H639.825V106.5H636.5V73.25ZM643.15 73.25H646.475V106.5H643.15V73.25ZM649.8 73.25H653.125V106.5H649.8V73.25ZM656.45 73.25H659.775V106.5H656.45V73.25ZM663.1 73.25H666.425V106.5H663.1V73.25ZM669.75 79.9H703V83.225H669.75V79.9ZM669.75 86.55H703V89.875H669.75V86.55ZM669.75 93.2H703V96.525H669.75V93.2ZM669.75 99.85H703V103.175H669.75V99.85Z" fill="#0A3E94"/>
</g>
<g clip-path="url(#clip17_12731_232181)">
<rect width="66.5" height="66.5" transform="translate(703 40)" fill="white"/>
<path fill-rule="evenodd" clip-rule="evenodd" d="M736.25 74.0812V69.925H703V66.6H736.25V63.275H703V59.95H736.25V56.625H703V53.3H736.25V49.975H703V46.65H736.25V43.325H703V40H737.081H739.575V73.25H742.9V40H746.225V73.25H749.55V40H752.875V73.25H756.2V40H759.525V73.25H762.85V40H766.175V73.25H769.5V76.575H736.25V74.0812ZM703 73.25H706.325V106.5H703V73.25ZM709.65 73.25H712.975V106.5H709.65V73.25ZM716.3 73.25H719.625V106.5H716.3V73.25ZM722.95 73.25H726.275V106.5H722.95V73.25ZM729.6 73.25H732.925V106.5H729.6V73.25ZM736.25 79.9H769.5V83.225H736.25V79.9ZM736.25 86.55H769.5V89.875H736.25V86.55ZM736.25 93.2H769.5V96.525H736.25V93.2ZM736.25 99.85H769.5V103.175H736.25V99.85Z" fill="#0A3E94"/>
</g>
<g clip-path="url(#clip18_12731_232181)">
<rect width="66.5" height="66.5" transform="translate(769.5 40)" fill="white"/>
<path fill-rule="evenodd" clip-rule="evenodd" d="M802.75 74.0812V69.925H769.5V66.6H802.75V63.275H769.5V59.95H802.75V56.625H769.5V53.3H802.75V49.975H769.5V46.65H802.75V43.325H769.5V40H803.581H806.075V73.25H809.4V40H812.725V73.25H816.05V40H819.375V73.25H822.7V40H826.025V73.25H829.35V40H832.675V73.25H836V76.575H802.75V74.0812ZM769.5 73.25H772.825V106.5H769.5V73.25ZM776.15 73.25H779.475V106.5H776.15V73.25ZM782.8 73.25H786.125V106.5H782.8V73.25ZM789.45 73.25H792.775V106.5H789.45V73.25ZM796.1 73.25H799.425V106.5H796.1V73.25ZM802.75 79.9H836V83.225H802.75V79.9ZM802.75 86.55H836V89.875H802.75V86.55ZM802.75 93.2H836V96.525H802.75V93.2ZM802.75 99.85H836V103.175H802.75V99.85Z" fill="#0A3E94"/>
</g>
<g clip-path="url(#clip19_12731_232181)">
<rect width="66.5" height="66.5" transform="translate(836 40)" fill="white"/>
<path fill-rule="evenodd" clip-rule="evenodd" d="M869.25 74.0812V69.925H836V66.6H869.25V63.275H836V59.95H869.25V56.625H836V53.3H869.25V49.975H836V46.65H869.25V43.325H836V40H870.081H872.575V73.25H875.9V40H879.225V73.25H882.55V40H885.875V73.25H889.2V40H892.525V73.25H895.85V40H899.175V73.25H902.5V76.575H869.25V74.0812ZM836 73.25H839.325V106.5H836V73.25ZM842.65 73.25H845.975V106.5H842.65V73.25ZM849.3 73.25H852.625V106.5H849.3V73.25ZM855.95 73.25H859.275V106.5H855.95V73.25ZM862.6 73.25H865.925V106.5H862.6V73.25ZM869.25 79.9H902.5V83.225H869.25V79.9ZM869.25 86.55H902.5V89.875H869.25V86.55ZM869.25 93.2H902.5V96.525H869.25V93.2ZM869.25 99.85H902.5V103.175H869.25V99.85Z" fill="#0A3E94"/>
</g>
<g clip-path="url(#clip20_12731_232181)">
<rect width="66.5" height="66.5" transform="translate(902.5 40)" fill="white"/>
<path fill-rule="evenodd" clip-rule="evenodd" d="M935.75 74.0812V69.925H902.5V66.6H935.75V63.275H902.5V59.95H935.75V56.625H902.5V53.3H935.75V49.975H902.5V46.65H935.75V43.325H902.5V40H936.581H939.075V73.25H942.4V40H945.725V73.25H949.05V40H952.375V73.25H955.7V40H959.025V73.25H962.35V40H965.675V73.25H969V76.575H935.75V74.0812ZM902.5 73.25H905.825V106.5H902.5V73.25ZM909.15 73.25H912.475V106.5H909.15V73.25ZM915.8 73.25H919.125V106.5H915.8V73.25ZM922.45 73.25H925.775V106.5H922.45V73.25ZM929.1 73.25H932.425V106.5H929.1V73.25ZM935.75 79.9H969V83.225H935.75V79.9ZM935.75 86.55H969V89.875H935.75V86.55ZM935.75 93.2H969V96.525H935.75V93.2ZM935.75 99.85H969V103.175H935.75V99.85Z" fill="#0A3E94"/>
</g>
<g clip-path="url(#clip21_12731_232181)">
<rect width="66.5" height="66.5" transform="translate(969 40)" fill="white"/>
<path fill-rule="evenodd" clip-rule="evenodd" d="M1002.25 74.0812V69.925H969V66.6H1002.25V63.275H969V59.95H1002.25V56.625H969V53.3H1002.25V49.975H969V46.65H1002.25V43.325H969V40H1003.08H1005.58V73.25H1008.9V40H1012.23V73.25H1015.55V40H1018.88V73.25H1022.2V40H1025.53V73.25H1028.85V40H1032.17V73.25H1035.5V76.575H1002.25V74.0812ZM969 73.25H972.325V106.5H969V73.25ZM975.65 73.25H978.975V106.5H975.65V73.25ZM982.3 73.25H985.625V106.5H982.3V73.25ZM988.95 73.25H992.275V106.5H988.95V73.25ZM995.6 73.25H998.925V106.5H995.6V73.25ZM1002.25 79.9H1035.5V83.225H1002.25V79.9ZM1002.25 86.55H1035.5V89.875H1002.25V86.55ZM1002.25 93.2H1035.5V96.525H1002.25V93.2ZM1002.25 99.85H1035.5V103.175H1002.25V99.85Z" fill="#0A3E94"/>
</g>
<g clip-path="url(#clip22_12731_232181)">
<rect width="66.5" height="66.5" transform="translate(1035.5 40)" fill="white"/>
<path fill-rule="evenodd" clip-rule="evenodd" d="M1068.75 74.0812V69.925H1035.5V66.6H1068.75V63.275H1035.5V59.95H1068.75V56.625H1035.5V53.3H1068.75V49.975H1035.5V46.65H1068.75V43.325H1035.5V40H1069.58H1072.08V73.25H1075.4V40H1078.73V73.25H1082.05V40H1085.38V73.25H1088.7V40H1092.03V73.25H1095.35V40H1098.67V73.25H1102V76.575H1068.75V74.0812ZM1035.5 73.25H1038.83V106.5H1035.5V73.25ZM1042.15 73.25H1045.48V106.5H1042.15V73.25ZM1048.8 73.25H1052.12V106.5H1048.8V73.25ZM1055.45 73.25H1058.77V106.5H1055.45V73.25ZM1062.1 73.25H1065.43V106.5H1062.1V73.25ZM1068.75 79.9H1102V83.225H1068.75V79.9ZM1068.75 86.55H1102V89.875H1068.75V86.55ZM1068.75 93.2H1102V96.525H1068.75V93.2ZM1068.75 99.85H1102V103.175H1068.75V99.85Z" fill="#0A3E94"/>
</g>
</g>
</g>
<defs>
<clipPath id="clip0_12731_232181">
<rect width="1128" height="80" fill="white"/>
</clipPath>
<clipPath id="clip1_12731_232181">
<rect width="66.5" height="66.5" fill="white" transform="translate(-11.5 -1)"/>
</clipPath>
<clipPath id="clip2_12731_232181">
<rect width="66.5" height="66.5" fill="white" transform="translate(-11.5 65.5)"/>
</clipPath>
<clipPath id="clip3_12731_232181">
<rect width="66.5" height="66.5" fill="white" transform="translate(55 -1)"/>
</clipPath>
<clipPath id="clip4_12731_232181">
<rect width="66.5" height="66.5" fill="white" transform="translate(55 65.5)"/>
</clipPath>
<clipPath id="clip5_12731_232181">
<rect width="66.5" height="66.5" fill="white" transform="translate(121.5 -1)"/>
</clipPath>
<clipPath id="clip6_12731_232181">
<rect width="66.5" height="66.5" fill="white" transform="translate(121.5 65.5)"/>
</clipPath>
<clipPath id="clip7_12731_232181">
<rect width="66.5" height="66.5" fill="white" transform="translate(188 -1)"/>
</clipPath>
<clipPath id="clip8_12731_232181">
<rect width="66.5" height="66.5" fill="white" transform="translate(188 65.5)"/>
</clipPath>
<clipPath id="clip9_12731_232181">
<rect width="66.5" height="66.5" fill="white" transform="translate(254.5 -1)"/>
</clipPath>
<clipPath id="clip10_12731_232181">
<rect width="66.5" height="66.5" fill="white" transform="translate(254.5 65.5)"/>
</clipPath>
<clipPath id="clip11_12731_232181">
<rect width="66.5" height="66.5" fill="white" transform="translate(321 -1)"/>
</clipPath>
<clipPath id="clip12_12731_232181">
<rect width="66.5" height="66.5" fill="white" transform="translate(321 65.5)"/>
</clipPath>
<clipPath id="clip13_12731_232181">
<rect width="66.5" height="66.5" fill="white" transform="translate(387.5 -1)"/>
</clipPath>
<clipPath id="clip14_12731_232181">
<rect width="66.5" height="66.5" fill="white" transform="translate(387.5 65.5)"/>
</clipPath>
<clipPath id="clip15_12731_232181">
<rect width="66.5" height="66.5" fill="white" transform="translate(570 40)"/>
</clipPath>
<clipPath id="clip16_12731_232181">
<rect width="66.5" height="66.5" fill="white" transform="translate(636.5 40)"/>
</clipPath>
<clipPath id="clip17_12731_232181">
<rect width="66.5" height="66.5" fill="white" transform="translate(703 40)"/>
</clipPath>
<clipPath id="clip18_12731_232181">
<rect width="66.5" height="66.5" fill="white" transform="translate(769.5 40)"/>
</clipPath>
<clipPath id="clip19_12731_232181">
<rect width="66.5" height="66.5" fill="white" transform="translate(836 40)"/>
</clipPath>
<clipPath id="clip20_12731_232181">
<rect width="66.5" height="66.5" fill="white" transform="translate(902.5 40)"/>
</clipPath>
<clipPath id="clip21_12731_232181">
<rect width="66.5" height="66.5" fill="white" transform="translate(969 40)"/>
</clipPath>
<clipPath id="clip22_12731_232181">
<rect width="66.5" height="66.5" fill="white" transform="translate(1035.5 40)"/>
</clipPath>
</defs>
</svg>
