<svg width="16" height="16" viewBox="0 0 16 16" fill="none" xmlns="http://www.w3.org/2000/svg">
<g clip-path="url(#clip0_2684_148946)">
<path d="M1.00016 10.3333L1.49283 13.5333C1.54067 13.8486 1.69994 14.1364 1.94176 14.3443C2.18357 14.5522 2.49191 14.6666 2.81083 14.6667H13.1895C13.5084 14.6666 13.8168 14.5522 14.0586 14.3443C14.3004 14.1364 14.4597 13.8486 14.5075 13.5333L15.0002 10.3333C15.177 10.3333 15.3465 10.2631 15.4716 10.1381C15.5966 10.013 15.6668 9.84348 15.6668 9.66667V5.33333C15.6668 4.97971 15.5264 4.64057 15.2763 4.39052C15.0263 4.14048 14.6871 4 14.3335 4H1.66683C1.31321 4 0.974069 4.14048 0.72402 4.39052C0.473972 4.64057 0.333496 4.97971 0.333496 5.33333V9.66667C0.333496 9.84348 0.403734 10.013 0.528758 10.1381C0.653783 10.2631 0.823352 10.3333 1.00016 10.3333Z" stroke="#6B6C7E" stroke-linecap="round" stroke-linejoin="round"/>
<path d="M11 3.99992H5V3.33325C5 2.80282 5.21071 2.29411 5.58579 1.91904C5.96086 1.54397 6.46957 1.33325 7 1.33325H9C9.53043 1.33325 10.0391 1.54397 10.4142 1.91904C10.7893 2.29411 11 2.80282 11 3.33325V3.99992Z" stroke="#6B6C7E" stroke-linecap="round" stroke-linejoin="round"/>
<path d="M1 10.3333H6.66667" stroke="#6B6C7E" stroke-linecap="round" stroke-linejoin="round"/>
<path d="M9.3335 10.3333H15.0002" stroke="#6B6C7E" stroke-linecap="round" stroke-linejoin="round"/>
<path d="M7.99984 12.0001C8.73622 12.0001 9.33317 11.2539 9.33317 10.3334C9.33317 9.41294 8.73622 8.66675 7.99984 8.66675C7.26346 8.66675 6.6665 9.41294 6.6665 10.3334C6.6665 11.2539 7.26346 12.0001 7.99984 12.0001Z" stroke="#6B6C7E" stroke-linecap="round" stroke-linejoin="round"/>
</g>
<defs>
<clipPath id="clip0_2684_148946">
<rect width="16" height="16" fill="white"/>
</clipPath>
</defs>
</svg>
