<svg width="16" height="16" viewBox="0 0 16 16" fill="none" xmlns="http://www.w3.org/2000/svg">
<rect width="16" height="16" rx="8" fill="#EDF9F0"/>
<path fill-rule="evenodd" clip-rule="evenodd" d="M6.20667 7.59667C6.68667 8.54 7.46 9.31 8.40333 9.79333L9.13667 9.06C9.22667 8.97 9.36 8.94 9.47667 8.98C9.85 9.10333 10.2533 9.17 10.6667 9.17C10.85 9.17 11 9.32 11 9.50333V10.6667C11 10.85 10.85 11 10.6667 11C7.53667 11 5 8.46333 5 5.33333C5 5.15 5.15 5 5.33333 5H6.5C6.68333 5 6.83333 5.15 6.83333 5.33333C6.83333 5.75 6.9 6.15 7.02333 6.52333C7.06 6.64 7.03333 6.77 6.94 6.86333L6.20667 7.59667Z" fill="#CDCED9"/>
</svg>
