<svg width="32" height="32" viewBox="0 0 32 32" fill="none" xmlns="http://www.w3.org/2000/svg">
<circle cx="17" cy="16" r="14" fill="#D4F7DC"/>
<path d="M14.7022 27.2244L14.7129 27.2306C15.657 27.8316 16.7779 28.0927 17.8905 27.9707C19.003 27.8487 20.0407 27.3509 20.8321 26.5596L21.5201 25.8717C21.8274 25.564 22 25.147 22 24.7122C22 24.2774 21.8274 23.8604 21.5201 23.5528L18.6214 20.6562C18.3137 20.349 17.8967 20.1764 17.4618 20.1764C17.027 20.1764 16.6099 20.349 16.3022 20.6562V20.6562C16.1501 20.8086 15.9694 20.9294 15.7705 21.0118C15.5716 21.0943 15.3584 21.1367 15.1431 21.1367C14.9278 21.1367 14.7146 21.0943 14.5157 21.0118C14.3168 20.9294 14.1361 20.8086 13.984 20.6562L9.34566 16.0176C9.03838 15.71 8.86578 15.293 8.86578 14.8582C8.86578 14.4234 9.03838 14.0064 9.34566 13.6988V13.6988C9.498 13.5467 9.61886 13.366 9.70131 13.1671C9.78377 12.9683 9.82621 12.7551 9.82621 12.5398C9.82621 12.3245 9.78377 12.1114 9.70131 11.9125C9.61886 11.7136 9.498 11.533 9.34566 11.3808L6.44783 8.47982C6.14016 8.17258 5.7231 8 5.28825 8C4.85341 8 4.43635 8.17258 4.12868 8.47982L3.44066 9.16775C2.64938 9.95911 2.15158 10.9966 2.02941 12.1089C1.90724 13.2212 2.168 14.342 2.76865 15.2862L2.77576 15.2968C5.95219 19.9984 10.0008 24.0473 14.7022 27.2244V27.2244Z" stroke="#15692A" stroke-linecap="round" stroke-linejoin="round"/>
</svg>
