<svg width="16" height="17" viewBox="0 0 16 17" fill="none" xmlns="http://www.w3.org/2000/svg">
<path d="M2.83438 2.55103C2.71287 3.22218 2.66182 3.89529 2.68497 4.55552L1.57131 5.22152C1.49111 4.25522 1.5352 3.26498 1.71468 2.26938L2.83438 2.55103ZM7.9038 13.3033C8.48933 13.6398 9.10648 13.9133 9.74783 14.122L9.46991 15.2268C8.50788 14.9139 7.61464 14.4842 6.792 13.9619L7.9038 13.3033ZM3.9193 1.24704L1.32396 0.594208C0.916116 0.49162 0.498493 0.74137 0.395905 1.14921C-1.35556 8.11214 2.86799 15.1746 9.83092 16.9261C10.2388 17.0287 10.6564 16.7789 10.759 16.3711L11.4099 13.7831C11.5125 13.3753 11.2628 12.9577 10.8549 12.8551C9.93545 12.6238 9.07551 12.2498 8.31401 11.7665C8.24732 11.7182 8.16762 11.6903 8.09347 11.6716C7.90067 11.6231 7.69664 11.6507 7.51289 11.7542L5.47118 12.9752C3.64312 11.3722 2.35366 9.2265 1.81372 6.85939L3.85544 5.63839C4.11529 5.48299 4.24736 5.20871 4.23107 4.92866C4.16562 4.02914 4.24114 3.102 4.4743 2.1751C4.57688 1.76726 4.32713 1.34963 3.9193 1.24704Z" fill="#A7A9BC"/>
<path d="M11.4236 1.59205C12.0243 1.59205 12.5158 2.08353 12.5158 2.68423C12.5158 3.28492 12.0243 3.7764 11.4236 3.7764C10.8229 3.7764 10.3315 3.28492 10.3315 2.68423C10.3315 2.08353 10.8229 1.59205 11.4236 1.59205ZM11.4236 7.05293C12.8981 7.05293 14.5909 7.75738 14.7002 8.1451H8.14711C8.27271 7.75192 9.95466 7.05293 11.4236 7.05293ZM11.4236 0.499878C10.2168 0.499878 9.23928 1.47737 9.23928 2.68423C9.23928 3.89108 10.2168 4.86858 11.4236 4.86858C12.6305 4.86858 13.608 3.89108 13.608 2.68423C13.608 1.47737 12.6305 0.499878 11.4236 0.499878ZM11.4236 5.96075C9.96558 5.96075 7.05493 6.69251 7.05493 8.1451V9.23728H15.7923V8.1451C15.7923 6.69251 12.8817 5.96075 11.4236 5.96075Z" fill="#A7A9BC"/>
</svg>
