<svg width="28" height="29" viewBox="0 0 28 29" fill="none" xmlns="http://www.w3.org/2000/svg">
<path d="M0 14.5C0 6.76801 6.26801 0.5 14 0.5C21.732 0.5 28 6.76801 28 14.5C28 22.232 21.732 28.5 14 28.5C6.26801 28.5 0 22.232 0 14.5Z" fill="#0050C8"/>
<path fill-rule="evenodd" clip-rule="evenodd" d="M10.8617 13.7942C11.7017 15.445 13.055 16.7925 14.7058 17.6383L15.9892 16.355C16.1467 16.1975 16.38 16.145 16.5842 16.215C17.2375 16.4308 17.9433 16.5475 18.6667 16.5475C18.9875 16.5475 19.25 16.81 19.25 17.1308V19.1667C19.25 19.4875 18.9875 19.75 18.6667 19.75C13.1892 19.75 8.75 15.3108 8.75 9.83333C8.75 9.5125 9.0125 9.25 9.33333 9.25H11.375C11.6958 9.25 11.9583 9.5125 11.9583 9.83333C11.9583 10.5625 12.075 11.2625 12.2908 11.9158C12.355 12.12 12.3083 12.3475 12.145 12.5108L10.8617 13.7942Z" fill="white"/>
</svg>
