<svg width="64" height="64" viewBox="0 0 64 64" fill="none" xmlns="http://www.w3.org/2000/svg">
<circle cx="34" cy="32" r="28" fill="#F0DAFB"/>
<path d="M29.4044 54.4488L29.4257 54.4612C31.314 55.6632 33.5558 56.1854 35.7809 55.9414C38.0061 55.6974 40.0814 54.7018 41.6642 53.1192L43.0402 51.7433C43.6548 51.1281 44 50.294 44 49.4245C44 48.5549 43.6548 47.7209 43.0402 47.1056L37.2428 41.3125C36.6274 40.698 35.7933 40.3528 34.9236 40.3528C34.0539 40.3528 33.2198 40.698 32.6045 41.3125V41.3125C32.3002 41.6171 31.9388 41.8588 31.541 42.0237C31.1432 42.1886 30.7168 42.2734 30.2862 42.2734C29.8556 42.2734 29.4292 42.1886 29.0314 42.0237C28.6336 41.8588 28.2722 41.6171 27.9679 41.3125L18.6913 32.0353C18.0768 31.42 17.7316 30.586 17.7316 29.7164C17.7316 28.8469 18.0768 28.0129 18.6913 27.3976V27.3976C18.996 27.0933 19.2377 26.732 19.4026 26.3343C19.5675 25.9365 19.6524 25.5102 19.6524 25.0796C19.6524 24.6491 19.5675 24.2227 19.4026 23.825C19.2377 23.4273 18.996 23.0659 18.6913 22.7617L12.8957 16.9596C12.2803 16.3452 11.4462 16 10.5765 16C9.70682 16 8.8727 16.3452 8.25735 16.9596L6.88133 18.3355C5.29877 19.9182 4.30317 21.9931 4.05882 24.2178C3.81448 26.4425 4.33599 28.6839 5.5373 30.5723L5.55152 30.5937C11.9044 39.9968 20.0015 48.0947 29.4044 54.4488V54.4488Z" stroke="#592474" stroke-width="2" stroke-linecap="round" stroke-linejoin="round"/>
</svg>
