<svg width="32" height="33" viewBox="0 0 32 33" fill="none" xmlns="http://www.w3.org/2000/svg">
<circle cx="17" cy="16.5" r="14" fill="#E5E5EA"/>
<path d="M14.7022 27.7244L14.7129 27.7306C15.657 28.3316 16.7779 28.5927 17.8905 28.4707C19.003 28.3487 20.0407 27.8509 20.8321 27.0596L21.5201 26.3717C21.8274 26.064 22 25.647 22 25.2122C22 24.7774 21.8274 24.3604 21.5201 24.0528L18.6214 21.1562C18.3137 20.849 17.8967 20.6764 17.4618 20.6764C17.027 20.6764 16.6099 20.849 16.3022 21.1562V21.1562C16.1501 21.3086 15.9694 21.4294 15.7705 21.5118C15.5716 21.5943 15.3584 21.6367 15.1431 21.6367C14.9278 21.6367 14.7146 21.5943 14.5157 21.5118C14.3168 21.4294 14.1361 21.3086 13.984 21.1562L9.34566 16.5176C9.03838 16.21 8.86578 15.793 8.86578 15.3582C8.86578 14.9234 9.03838 14.5064 9.34566 14.1988V14.1988C9.498 14.0467 9.61886 13.866 9.70131 13.6671C9.78377 13.4683 9.82621 13.2551 9.82621 13.0398C9.82621 12.8245 9.78377 12.6114 9.70131 12.4125C9.61886 12.2136 9.498 12.033 9.34566 11.8808L6.44783 8.97982C6.14016 8.67258 5.7231 8.5 5.28825 8.5C4.85341 8.5 4.43635 8.67258 4.12868 8.97982L3.44066 9.66775C2.64938 10.4591 2.15158 11.4966 2.02941 12.6089C1.90724 13.7212 2.168 14.842 2.76865 15.7862L2.77576 15.7968C5.95219 20.4984 10.0008 24.5473 14.7022 27.7244V27.7244Z" stroke="#9DA0A7" stroke-width="1.5" stroke-linecap="round" stroke-linejoin="round"/>
</svg>
