<svg width="36" height="36" viewBox="0 0 36 36" fill="none" xmlns="http://www.w3.org/2000/svg">
<circle cx="19.125" cy="18" r="15.75" fill="#F0DAFB"/>
<path d="M16.54 30.6274L16.552 30.6344C17.6141 31.3106 18.8751 31.6043 20.1268 31.467C21.3784 31.3298 22.5458 30.7698 23.4361 29.8795L24.2101 29.1056C24.5558 28.7595 24.75 28.2904 24.75 27.8013C24.75 27.3121 24.5558 26.843 24.2101 26.4969L20.9491 23.2383C20.6029 22.8926 20.1337 22.6985 19.6445 22.6985C19.1553 22.6985 18.6861 22.8926 18.34 23.2383V23.2383C18.1688 23.4096 17.9656 23.5456 17.7418 23.6383C17.5181 23.7311 17.2782 23.7788 17.036 23.7788C16.7938 23.7788 16.5539 23.7311 16.3302 23.6383C16.1064 23.5456 15.9031 23.4096 15.732 23.2383L10.5139 18.0199C10.1682 17.6738 9.974 17.2046 9.974 16.7155C9.974 16.2264 10.1682 15.7572 10.5139 15.4111V15.4111C10.6853 15.24 10.8212 15.0367 10.914 14.813C11.0067 14.5893 11.0545 14.3495 11.0545 14.1073C11.0545 13.8651 11.0067 13.6253 10.914 13.4016C10.8212 13.1778 10.6853 12.9746 10.5139 12.8034L7.25381 9.5398C6.90768 9.19415 6.43848 9 5.94929 9C5.46009 9 4.99089 9.19415 4.64476 9.5398L3.87075 10.3137C2.98056 11.204 2.42053 12.3711 2.28309 13.6225C2.14564 14.8739 2.43899 16.1347 3.11473 17.1969L3.12273 17.2089C6.69621 22.4982 11.2509 27.0532 16.54 30.6274V30.6274Z" stroke="#592474" stroke-linecap="round" stroke-linejoin="round"/>
</svg>
