<svg width="47" height="26" viewBox="0 0 47 26" fill="none" xmlns="http://www.w3.org/2000/svg">
<path d="M36.6294 5.40016C35.5587 5.40016 34.5294 5.55883 33.5574 5.8535C32.408 2.6415 29.2894 0.333496 25.6094 0.333496C21.664 0.333496 18.36 2.98816 17.4454 6.56683C16.468 5.84416 15.264 5.40016 13.944 5.40016C10.7214 5.40016 8.1107 7.95216 8.1107 11.1002C8.1107 11.8642 8.2707 12.5908 8.54937 13.2575C7.99336 13.1068 7.4187 13.0002 6.81336 13.0002C3.23336 13.0002 0.332031 15.8348 0.332031 19.3335C0.332031 22.8322 3.23336 25.6668 6.81336 25.6668H36.628C42.356 25.6668 46.9987 21.1308 46.9987 15.5335C46.9987 9.93616 42.356 5.40016 36.6294 5.40016Z" fill="#E1E8ED"/>
</svg>
