<svg width="48" height="48" viewBox="0 0 48 48" fill="none" xmlns="http://www.w3.org/2000/svg">
<g clip-path="url(#clip0_16128_36988)">
<path d="M17.3333 8.00004C17.3333 8.00004 17.3333 5.33337 20 5.33337C22.6667 5.33337 22.6667 8.00004 22.6667 8.00004V10.6667C22.6667 10.6667 22.6667 13.3334 20 13.3334C17.3333 13.3334 17.3333 10.6667 17.3333 10.6667V8.00004ZM5.33333 22.6667C5.33333 22.6667 8 22.6667 8 25.3334C8 28 5.33333 28 5.33333 28H2.66667C2.66667 28 0 28 0 25.3334C0 22.6667 2.66667 22.6667 2.66667 22.6667H5.33333ZM10.496 13.3907C10.496 13.3907 12.3813 15.276 10.496 17.1614C8.61067 19.0467 6.72533 17.1614 6.72533 17.1614L4.83867 15.276C4.83867 15.276 2.95333 13.3907 4.83867 11.504C6.72533 9.61871 8.61067 11.504 8.61067 11.504L10.496 13.3907ZM33.276 17.1614C33.276 17.1614 31.3907 19.0467 29.5053 17.1614C27.62 15.276 29.5053 13.3907 29.5053 13.3907L31.3907 11.5054C31.3907 11.5054 33.276 9.62004 35.1613 11.5054C37.0467 13.3907 35.1613 15.276 35.1613 15.276L33.276 17.1614Z" fill="#FFAC33"/>
<path d="M19.9997 36C25.8907 36 30.6663 31.2243 30.6663 25.3333C30.6663 19.4423 25.8907 14.6666 19.9997 14.6666C14.1086 14.6666 9.33301 19.4423 9.33301 25.3333C9.33301 31.2243 14.1086 36 19.9997 36Z" fill="#FFAC33"/>
<path d="M37.6303 22.4C36.5597 22.4 35.5303 22.5587 34.5583 22.8534C33.409 19.6414 30.2903 17.3334 26.6103 17.3334C22.665 17.3334 19.361 19.988 18.4463 23.5667C17.469 22.844 16.265 22.4 14.945 22.4C11.7223 22.4 9.11167 24.952 9.11167 28.1C9.11167 28.864 9.27167 29.5907 9.55034 30.2574C8.99434 30.1067 8.41967 30 7.81434 30C4.23434 30 1.33301 32.8347 1.33301 36.3334C1.33301 39.832 4.23434 42.6667 7.81434 42.6667H37.629C43.357 42.6667 47.9997 38.1307 47.9997 32.5334C47.9997 26.936 43.357 22.4 37.6303 22.4Z" fill="#E1E8ED"/>
</g>
<defs>
<clipPath id="clip0_16128_36988">
<rect width="48" height="48" fill="white"/>
</clipPath>
</defs>
</svg>
