<svg width="41" height="40" viewBox="0 0 41 40" fill="none" xmlns="http://www.w3.org/2000/svg">
<path fill-rule="evenodd" clip-rule="evenodd" d="M8 35H36.3333C37.714 35 38.8333 33.8807 38.8333 32.5V14.1667C38.8333 12.786 37.714 11.6667 36.3333 11.6667H18.8333L14.5656 7.39892C14.0967 6.93008 13.4608 6.66669 12.7978 6.66669H8C6.61929 6.66669 5.5 7.78597 5.5 9.16669V32.5C5.5 33.8807 6.61929 35 8 35Z" fill="#D1822C"/>
<path fill-rule="evenodd" clip-rule="evenodd" d="M4.66669 31.6666H33C34.3807 31.6666 35.5 30.5474 35.5 29.1666V10.8333C35.5 9.4526 34.3807 8.33331 33 8.33331H15.5L11.2323 4.06555C10.7634 3.59671 10.1275 3.33331 9.46449 3.33331H4.66669C3.28598 3.33331 2.16669 4.4526 2.16669 5.83331V29.1666C2.16669 30.5474 3.28598 31.6666 4.66669 31.6666Z" fill="#F3B357"/>
<path fill-rule="evenodd" clip-rule="evenodd" d="M24.5604 22.5094H21.2996V25.8555C21.2996 26.3158 20.9265 26.6889 20.4663 26.6889H18.7608C18.3005 26.6889 17.9274 26.3158 17.9274 25.8555V22.5094H14.6666C14.2064 22.5094 13.8333 22.1363 13.8333 21.6761C13.8333 21.4789 13.9032 21.2881 14.0307 21.1376L18.9775 15.2948C19.2749 14.9436 19.8007 14.8999 20.152 15.1973C20.1871 15.2271 20.2198 15.2597 20.2495 15.2948L25.1964 21.1376C25.4938 21.4889 25.4501 22.0147 25.0989 22.3121C24.9484 22.4395 24.7576 22.5094 24.5604 22.5094Z" fill="#EB9B2C"/>
</svg>
