<svg width="33" height="32" viewBox="0 0 33 32" fill="none" xmlns="http://www.w3.org/2000/svg">
<circle cx="18" cy="16" r="14" fill="#FFF8CC"/>
<path d="M6.5 15.1875H3.25C3.03451 15.1875 2.82785 15.2731 2.67548 15.4255C2.5231 15.5778 2.4375 15.7845 2.4375 16V26.5625H7.3125V16C7.3125 15.7845 7.2269 15.5778 7.07452 15.4255C6.92215 15.2731 6.71549 15.1875 6.5 15.1875Z" stroke="#806B00" stroke-width="1.23077" stroke-linecap="round" stroke-linejoin="round"/>
<path d="M14.625 5.4375H11.375C11.1595 5.4375 10.9528 5.5231 10.8005 5.67548C10.6481 5.82785 10.5625 6.03451 10.5625 6.25V26.5625H15.4375V6.25C15.4375 6.03451 15.3519 5.82785 15.1995 5.67548C15.0472 5.5231 14.8405 5.4375 14.625 5.4375Z" stroke="#806B00" stroke-width="1.23077" stroke-linecap="round" stroke-linejoin="round"/>
<path d="M22.75 10.3125H19.5C19.2845 10.3125 19.0778 10.3981 18.9255 10.5505C18.7731 10.7028 18.6875 10.9095 18.6875 11.125V26.5625H23.5625V11.125C23.5625 10.9095 23.4769 10.7028 23.3245 10.5505C23.1722 10.3981 22.9655 10.3125 22.75 10.3125Z" stroke="#806B00" stroke-width="1.23077" stroke-linecap="round" stroke-linejoin="round"/>
</svg>
