<svg width="16" height="16" viewBox="0 0 16 16" fill="none" xmlns="http://www.w3.org/2000/svg">
<path d="M0.666504 11.3334V3.66675C0.666504 2.0099 2.00965 0.666748 3.6665 0.666748H11.3332" stroke="#8A8886" stroke-linecap="round"/>
<path d="M5.63653 3.83325H13.6971C14.3561 3.83325 14.7873 4.01082 15.0549 4.27849C15.3226 4.54616 15.5002 4.97731 15.5002 5.63628V13.6969C15.5002 14.3559 15.3226 14.787 15.0549 15.0547C14.7873 15.3223 14.3561 15.4999 13.6971 15.4999H5.63653C4.97755 15.4999 4.5464 15.3223 4.27873 15.0547C4.01107 14.787 3.8335 14.3559 3.8335 13.6969V5.63628C3.8335 4.97731 4.01107 4.54616 4.27873 4.27849C4.5464 4.01082 4.97755 3.83325 5.63653 3.83325Z" stroke="#8A8886"/>
</svg>
