<svg width="20" height="17" viewBox="0 0 20 17" fill="none" xmlns="http://www.w3.org/2000/svg">
<path d="M12.5 5.2C12.4121 6.72513 11.507 7.9 10.52 7.9C9.53305 7.9 8.62645 6.7255 8.54005 5.2C8.45005 3.61337 9.33115 2.5 10.52 2.5C11.7089 2.5 12.59 3.64225 12.5 5.2Z" stroke="#6B6C7E" stroke-width="1.5" stroke-linecap="round" stroke-linejoin="round"/>
<path d="M10.52 10.2998C8.56488 10.2998 6.68478 11.5137 6.21378 13.8777C6.15138 14.1904 6.30828 14.4998 6.56538 14.4998H14.4749C14.732 14.4998 14.888 14.1904 14.8265 13.8777C14.3555 11.4758 12.4754 10.2998 10.52 10.2998Z" stroke="#6B6C7E" stroke-width="1.5" stroke-miterlimit="10"/>
<path d="M6.43995 5.87295C6.36975 7.09095 5.63835 8.0502 4.84995 8.0502C4.06155 8.0502 3.32895 7.09132 3.25995 5.87295C3.18825 4.60582 3.90015 3.7002 4.84995 3.7002C5.79975 3.7002 6.51165 4.62907 6.43995 5.87295Z" stroke="#6B6C7E" stroke-width="1.5" stroke-linecap="round" stroke-linejoin="round"/>
<path d="M14.525 5.69813C14.5954 6.81813 15.3291 7.7002 16.12 7.7002C16.9109 7.7002 17.6458 6.81847 17.715 5.69813C17.7869 4.53295 17.0728 3.7002 16.12 3.7002C15.1672 3.7002 14.453 4.55433 14.525 5.69813Z" stroke="#6B6C7E" stroke-width="1.5" stroke-linecap="round" stroke-linejoin="round"/>
<path d="M6.61995 10.3747C6.07845 10.0646 5.48205 9.94531 4.84995 9.94531C3.28995 9.94531 1.78695 10.9147 1.41045 12.8028C1.36095 13.0526 1.48635 13.2997 1.69155 13.2997H5.05995" stroke="#6B6C7E" stroke-width="1.5" stroke-miterlimit="10" stroke-linecap="round"/>
<path d="M14.52 10.5097C14.9847 10.2139 15.4965 10.1001 16.039 10.1001C17.3777 10.1001 18.6676 11.0249 18.9907 12.8261C19.0332 13.0643 18.9256 13.3001 18.7495 13.3001H15.8587" stroke="#6B6C7E" stroke-width="1.5" stroke-miterlimit="10" stroke-linecap="round"/>
</svg>
