<svg width="96" height="97" viewBox="0 0 96 97" fill="none" xmlns="http://www.w3.org/2000/svg">
<path d="M0 48.1133C0 60.8437 5.05713 73.0527 14.0589 82.0544C23.0606 91.0562 35.2696 96.1133 48 96.1133C60.7304 96.1133 72.9394 91.0562 81.9411 82.0544C90.9429 73.0527 96 60.8437 96 48.1133C96 35.3829 90.9429 23.1739 81.9411 14.1722C72.9394 5.17041 60.7304 0.113281 48 0.113281C35.2696 0.113281 23.0606 5.17041 14.0589 14.1722C5.05713 23.1739 0 35.3829 0 48.1133Z" fill="#F8F7FA"/>
<path opacity="0.15" d="M61.0247 89.3201C61.0247 88.3853 55.4663 87.627 48.6095 87.627C41.7527 87.627 36.1943 88.3853 36.1943 89.3201C36.1943 90.2549 41.7527 91.0134 48.6095 91.0134C55.4663 91.0134 61.0247 90.2597 61.0247 89.3201Z" fill="#1E0A3C"/>
<path d="M20.3999 74.1138C20.3995 74.4001 20.4923 74.6788 20.6641 74.9078C20.836 75.1368 21.0777 75.3037 21.3527 75.3834L47.2163 82.9278C47.4742 83.003 47.7421 83.0382 48.0107 83.0322V52.0974L20.3999 44.0442V74.1138Z" fill="#F7E5C6"/>
<path d="M41.9735 62.3778L48.0107 56.3406V52.0962L20.3999 44.0442V56.0862L41.9735 62.3778Z" fill="#F0D5A8"/>
<path d="M48.0107 52.0974L20.3999 44.0442L48.0107 35.991L75.6203 44.1462L48.0107 52.0974Z" fill="#DEBB7E" stroke="#1E0A3C" stroke-width="0.24" stroke-linecap="round" stroke-linejoin="round"/>
<path d="M48.0107 52.0974L20.3999 44.0442L48.0107 35.991V52.0974Z" fill="#B89558" stroke="#1E0A3C" stroke-width="0.24" stroke-linecap="round" stroke-linejoin="round"/>
<path d="M48.0107 52.0972V83.032C48.2772 83.0268 48.5414 82.9815 48.7943 82.8976L74.7143 74.2576C74.9787 74.1703 75.2086 74.0016 75.3714 73.7758C75.5341 73.5499 75.6212 73.2784 75.6203 73V44.146L48.0107 52.0972Z" fill="#F0D5A8"/>
<path d="M53.9639 62.3776L75.6203 56.0368L75.6215 44.146L48.0107 52.096V55.5532L53.9639 62.3776Z" fill="#DEBB7E"/>
<path d="M48.0107 52.0974L20.3999 44.0442V74.1138C20.3995 74.4001 20.4923 74.6788 20.6641 74.9078C20.836 75.1368 21.0777 75.3037 21.3527 75.3834L47.2163 82.9266C47.733 83.0774 48.2834 83.0674 48.7943 82.8978L74.7143 74.2578C74.9786 74.1705 75.2086 74.0018 75.3713 73.776C75.534 73.5501 75.6212 73.2786 75.6203 73.0002V44.1462L48.0107 52.0974Z" stroke="#1E0A3C" stroke-width="0.24" stroke-linecap="round" stroke-linejoin="round"/>
<path d="M15.732 36.5585C15.5062 36.6168 15.2998 36.7338 15.134 36.8977C14.9681 37.0616 14.8486 37.2665 14.7876 37.4916C14.7266 37.7167 14.7264 37.9539 14.7869 38.1791C14.8474 38.4043 14.9665 38.6095 15.132 38.7737L20.4 44.0441L48.0108 35.9909L40.9644 30.9581C40.6492 30.7326 40.2881 30.5792 39.9069 30.5089C39.5257 30.4386 39.1337 30.4531 38.7588 30.5513L15.732 36.5585Z" fill="#DEBB7E" stroke="#1E0A3C" stroke-width="0.24" stroke-linecap="round" stroke-linejoin="round"/>
<path d="M42.2159 57.8922C41.8801 58.2282 41.4599 58.4676 40.9996 58.5852C40.5393 58.7028 40.0558 58.6943 39.5999 58.5606L15.6419 51.5718C15.4208 51.5082 15.2201 51.388 15.0597 51.2229C14.8994 51.0578 14.785 50.8537 14.7278 50.6308C14.6707 50.4079 14.6729 50.1739 14.7341 49.9521C14.7953 49.7303 14.9134 49.5283 15.0767 49.3662L20.3999 44.0442L48.0107 52.0974L42.2159 57.8922Z" fill="#F0D5A8" stroke="#1E0A3C" stroke-width="0.24" stroke-linecap="round" stroke-linejoin="round"/>
<path d="M48.0107 52.0972V83.032" stroke="#1E0A3C" stroke-width="0.24" stroke-linecap="round" stroke-linejoin="round"/>
<path d="M79.902 36.574C80.1632 36.6424 80.4016 36.7785 80.5933 36.9685C80.785 37.1586 80.9232 37.3959 80.9938 37.6564C81.0644 37.917 81.065 38.1916 80.9955 38.4524C80.926 38.7133 80.7889 38.9511 80.598 39.142L75.6 44.146L48.0156 36.106L55.4772 30.7768C55.6597 30.6458 55.8688 30.5564 56.0896 30.5149C56.3104 30.4734 56.5376 30.4809 56.7552 30.5368L79.902 36.574Z" fill="#F0D5A8" stroke="#1E0A3C" stroke-width="0.24" stroke-linecap="round" stroke-linejoin="round"/>
<path d="M36.5 18C35.5 19.8333 34.6 24.6 39 29C44.5 34.5 44.5 37 42.5 42" stroke="#1E0A3C" stroke-width="0.24"/>
<path d="M52.2216 6C53.2216 7.83333 54.1216 12.6 49.7216 17C44.2216 22.5 44.2217 25 46.2217 30" stroke="#1E0A3C" stroke-width="0.24"/>
<path d="M60.2216 18C61.2216 19.8333 62.1216 24.6 57.7216 29C52.2216 34.5 52.2217 37 54.2217 42" stroke="#1E0A3C" stroke-width="0.24"/>
<path d="M54.264 58.4452C54.4585 58.6397 54.7017 58.7782 54.9681 58.8464C55.2346 58.9146 55.5144 58.9099 55.7784 58.8328L80.0052 51.7672C80.2609 51.6927 80.4928 51.5529 80.678 51.3615C80.8632 51.1701 80.9953 50.9338 81.0614 50.6758C81.1274 50.4177 81.125 50.147 81.0545 49.8902C80.984 49.6333 80.8478 49.3993 80.6592 49.2112L75.6 44.146L48.0156 52.186L54.264 58.4452Z" fill="#DEBB7E" stroke="#1E0A3C" stroke-width="0.24" stroke-linecap="round" stroke-linejoin="round"/>
</svg>
