<svg width="51" height="50" viewBox="0 0 51 50" fill="none" xmlns="http://www.w3.org/2000/svg">
<rect x="0.529297" width="49.9411" height="49.9411" rx="24.9706" fill="#DA1414"/>
<g clip-path="url(#clip0_13628_254437)">
<path d="M30.1595 22.0218C27.1401 21.0389 23.8662 21.046 20.8398 22.0218L20.8398 25.1331C20.8398 25.5149 20.6206 25.8614 20.2882 26.024C19.2347 26.5544 18.2376 27.2686 17.3608 28.1454C16.9719 28.5343 16.3355 28.5343 15.9466 28.1454L13.4788 25.6776C13.0899 25.2887 13.0899 24.6523 13.4788 24.2634C20.1185 17.6236 30.8807 17.6236 37.5204 24.2634C37.9093 24.6523 37.9093 25.2887 37.5204 25.6776L35.0456 28.1524C34.6566 28.5413 34.0203 28.5413 33.6313 28.1524C32.7475 27.2686 31.7575 26.5614 30.7039 26.0311C30.3787 25.8614 30.1595 25.5291 30.1595 25.1331V22.0218Z" fill="white"/>
</g>
<defs>
<clipPath id="clip0_13628_254437">
<rect width="24" height="24" fill="white" transform="translate(42.4702 24.9705) rotate(135)"/>
</clipPath>
</defs>
</svg>
