<svg width="32" height="32" viewBox="0 0 32 32" fill="none" xmlns="http://www.w3.org/2000/svg">
<path d="M0 4C0 1.79086 1.79086 0 4 0H28C30.2091 0 32 1.79086 32 4V28C32 30.2091 30.2091 32 28 32H4C1.79086 32 0 30.2091 0 28V4Z" fill="#F1F2F6"/>
<path d="M12.6668 12H19.3335L15.9935 16.2L12.6668 12ZM10.8335 11.74C12.1801 13.4666 14.6668 16.6666 14.6668 16.6666V20.6666C14.6668 21.0333 14.9668 21.3333 15.3335 21.3333H16.6668C17.0335 21.3333 17.3335 21.0333 17.3335 20.6666V16.6666C17.3335 16.6666 19.8135 13.4666 21.1601 11.74C21.5001 11.3 21.1868 10.6666 20.6335 10.6666H11.3601C10.8068 10.6666 10.4935 11.3 10.8335 11.74Z" fill="#6B6C7E"/>
</svg>
