<svg width="16" height="17" viewBox="0 0 16 17" fill="none" xmlns="http://www.w3.org/2000/svg">
<path d="M2.22671 11.8332C1.94489 11.3459 1.72582 10.8249 1.57471 10.2825C1.90358 10.1153 2.17977 9.8603 2.37273 9.54581C2.56568 9.23132 2.66788 8.86959 2.66802 8.50062C2.66816 8.13166 2.56623 7.76985 2.37351 7.45522C2.18079 7.14058 1.90479 6.8854 1.57604 6.71788C1.8774 5.62821 2.45119 4.63318 3.24337 3.82655C3.55277 4.0277 3.91179 4.13932 4.28069 4.14907C4.6496 4.15881 5.01401 4.0663 5.33359 3.88177C5.65318 3.69724 5.91548 3.42788 6.09146 3.10351C6.26744 2.77914 6.35024 2.4124 6.33071 2.04388C7.42545 1.76096 8.57419 1.76142 9.66871 2.04522C9.64934 2.41373 9.73231 2.78041 9.90843 3.10469C10.0845 3.42897 10.3469 3.6982 10.6666 3.88259C10.9862 4.06698 11.3507 4.15934 11.7196 4.14945C12.0884 4.13956 12.4474 4.0278 12.7567 3.82655C13.1427 4.21988 13.4854 4.66722 13.7734 5.16655C14.062 5.66588 14.278 6.18655 14.4254 6.71722C14.0965 6.88448 13.8203 7.13946 13.6274 7.45395C13.4344 7.76844 13.3322 8.13018 13.3321 8.49914C13.3319 8.8681 13.4339 9.22992 13.6266 9.54455C13.8193 9.85918 14.0953 10.1144 14.424 10.2819C14.1227 11.3716 13.5489 12.3666 12.7567 13.1732C12.4473 12.9721 12.0883 12.8604 11.7194 12.8507C11.3505 12.8409 10.9861 12.9335 10.6665 13.118C10.3469 13.3025 10.0846 13.5719 9.90862 13.8963C9.73264 14.2206 9.64984 14.5874 9.66937 14.9559C8.57463 15.2388 7.42589 15.2383 6.33137 14.9545C6.35074 14.586 6.26777 14.2194 6.09165 13.8951C5.91554 13.5708 5.65314 13.3016 5.33349 13.1172C5.01384 12.9328 4.64941 12.8404 4.28052 12.8503C3.91164 12.8602 3.55268 12.972 3.24337 13.1732C2.84937 12.7712 2.50777 12.3209 2.22671 11.8332ZM6.00004 11.9639C6.71046 12.3736 7.2446 13.0312 7.50004 13.8105C7.83271 13.8419 8.16671 13.8425 8.49937 13.8112C8.75497 13.0318 9.28937 12.3742 10 11.9645C10.7102 11.5537 11.5471 11.4195 12.35 11.5879C12.5434 11.3159 12.71 11.0259 12.8487 10.7225C12.3017 10.1115 11.9995 9.32002 12 8.49988C12 7.65988 12.3134 6.87522 12.8487 6.27722C12.7091 5.97398 12.5417 5.6843 12.3487 5.41188C11.5462 5.58009 10.7099 5.4462 10 5.03588C9.28962 4.62613 8.75548 3.96854 8.50004 3.18922C8.16737 3.15788 7.83337 3.15722 7.50071 3.18855C7.2451 3.96798 6.71071 4.62559 6.00004 5.03522C5.2899 5.44609 4.45302 5.58023 3.65004 5.41188C3.45708 5.68407 3.29013 5.97379 3.15137 6.27722C3.69842 6.88826 4.00063 7.67974 4.00004 8.49988C4.00004 9.33988 3.68671 10.1245 3.15137 10.7225C3.29102 11.0258 3.4584 11.3155 3.65137 11.5879C4.45385 11.4197 5.29018 11.5536 6.00004 11.9639ZM8.00004 10.4999C7.46961 10.4999 6.9609 10.2892 6.58583 9.9141C6.21075 9.53902 6.00004 9.03031 6.00004 8.49988C6.00004 7.96945 6.21075 7.46074 6.58583 7.08567C6.9609 6.7106 7.46961 6.49988 8.00004 6.49988C8.53047 6.49988 9.03918 6.7106 9.41425 7.08567C9.78933 7.46074 10 7.96945 10 8.49988C10 9.03031 9.78933 9.53902 9.41425 9.9141C9.03918 10.2892 8.53047 10.4999 8.00004 10.4999ZM8.00004 9.16655C8.17685 9.16655 8.34642 9.09631 8.47144 8.97129C8.59647 8.84626 8.66671 8.67669 8.66671 8.49988C8.66671 8.32307 8.59647 8.1535 8.47144 8.02848C8.34642 7.90345 8.17685 7.83322 8.00004 7.83322C7.82323 7.83322 7.65366 7.90345 7.52864 8.02848C7.40361 8.1535 7.33337 8.32307 7.33337 8.49988C7.33337 8.67669 7.40361 8.84626 7.52864 8.97129C7.65366 9.09631 7.82323 9.16655 8.00004 9.16655Z" fill="#9A9AAF"/>
</svg>
