<svg width="20" height="21" viewBox="0 0 20 21" fill="none" xmlns="http://www.w3.org/2000/svg">
<path d="M10 19.5C14.9706 19.5 19 15.4706 19 10.5C19 5.52944 14.9706 1.5 10 1.5C5.02944 1.5 1 5.52944 1 10.5C1 15.4706 5.02944 19.5 10 19.5Z" stroke="#DA1414" stroke-width="2" stroke-linecap="round" stroke-linejoin="round"/>
<path d="M11.5 6.5C11.5 6.89782 11.342 7.27936 11.0607 7.56066C10.7794 7.84196 10.3978 8 10 8C9.60218 8 9.22064 7.84196 8.93934 7.56066C8.65804 7.27936 8.5 6.89782 8.5 6.5C8.5 6.10218 8.65804 5.72064 8.93934 5.43934C9.22064 5.15804 9.60218 5 10 5C10.3978 5 10.7794 5.15804 11.0607 5.43934C11.342 5.72064 11.5 6.10218 11.5 6.5Z" fill="#DA1414"/>
<path d="M10 10.5V14.5" stroke="#DA1414" stroke-width="2" stroke-linecap="round" stroke-linejoin="round"/>
</svg>
