<svg width="92" height="93" viewBox="0 0 92 93" fill="none" xmlns="http://www.w3.org/2000/svg">
<rect y="0.5" width="92" height="92" rx="4" fill="#EFF6FC"/>
<path d="M62.25 75.25H19.75C19.087 75.25 18.4511 74.9866 17.9822 74.5178C17.5134 74.0489 17.25 73.4131 17.25 72.75V20.25C17.25 19.587 17.5134 18.9511 17.9822 18.4823C18.4511 18.0134 19.087 17.75 19.75 17.75H52.9725C53.3025 17.7488 53.6294 17.8129 53.9345 17.9386C54.2396 18.0643 54.5167 18.2492 54.75 18.4825L64 27.75C64.4689 28.2188 64.7324 28.8545 64.7325 29.5175V72.75C64.7325 73.41 64.4715 74.0433 64.0065 74.5116C63.5414 74.98 62.91 75.2454 62.25 75.25Z" fill="#E3E3E3"/>
<path d="M58.9075 22.6425L54.735 18.47C54.2642 18.0057 53.6287 17.7468 52.9675 17.75H19.735C19.0719 17.75 18.4361 18.0134 17.9672 18.4823C17.4984 18.9511 17.235 19.587 17.235 20.25V64.3175L58.9075 22.6425Z" fill="white"/>
<path d="M23.5 52.75H38.5M43.6525 75.25H19.75C19.087 75.25 18.4511 74.9866 17.9822 74.5178C17.5134 74.0489 17.25 73.4131 17.25 72.75V20.25C17.25 19.587 17.5134 18.9511 17.9822 18.4823C18.4511 18.0134 19.087 17.75 19.75 17.75H52.9725C53.3025 17.7488 53.6294 17.8129 53.9345 17.9386C54.2396 18.0643 54.5167 18.2492 54.75 18.4825L64 27.75C64.4689 28.2187 64.7324 28.8545 64.7325 29.5175V39.2225L43.6525 75.25Z" stroke="#191919" stroke-linecap="round" stroke-linejoin="round"/>
<path d="M27.25 40.25H29.75C30.0815 40.25 30.3995 40.3817 30.6339 40.6161C30.8683 40.8505 31 41.1685 31 41.5V52.75H26V41.5C26 41.1685 26.1317 40.8505 26.3661 40.6161C26.6005 40.3817 26.9185 40.25 27.25 40.25Z" fill="#C7E0F4" stroke="#191919" stroke-linecap="round" stroke-linejoin="round"/>
<path d="M41 52.75V34C41 33.6685 40.8683 33.3505 40.6339 33.1161C40.3995 32.8817 40.0815 32.75 39.75 32.75H37.25C36.9185 32.75 36.6005 32.8817 36.3661 33.1161C36.1317 33.3505 36 33.6685 36 34V52.75H41Z" fill="#FF808C" stroke="#191919" stroke-linecap="round" stroke-linejoin="round"/>
<path d="M58.5725 70.4009C60.8119 70.4009 63.001 69.7368 64.8629 68.4927C66.7249 67.2485 68.1762 65.4802 69.0331 63.4113C69.8901 61.3424 70.1143 59.0658 69.6774 56.8695C69.2406 54.6731 68.1622 52.6556 66.5787 51.0721C64.9952 49.4887 62.9778 48.4103 60.7814 47.9734C58.5851 47.5365 56.3085 47.7608 54.2396 48.6177C52.1707 49.4747 50.4023 50.9259 49.1582 52.7879C47.9141 54.6499 47.25 56.839 47.25 59.0784C47.25 62.0813 48.4429 64.9612 50.5663 67.0846C52.6897 69.208 55.5696 70.4009 58.5725 70.4009Z" fill="#C7E0F4"/>
<path d="M58.5724 47.75C56.3291 47.749 54.1361 48.4148 52.272 49.6627C50.4078 50.9106 48.9565 52.6843 48.1024 54.7587C47.2484 56.8331 47.03 59.1145 47.4752 61.3132C47.9203 63.5119 49.0088 65.5287 50.6024 67.1075L66.6024 51.1075C65.553 50.044 64.3027 49.1996 62.9242 48.6233C61.5458 48.0469 60.0665 47.7501 58.5724 47.75Z" fill="#EFF6FC"/>
<path d="M74.75 75.2509L66.63 67.1309M58.5725 70.4009C60.8119 70.4009 63.001 69.7368 64.8629 68.4927C66.7249 67.2485 68.1762 65.4802 69.0331 63.4113C69.8901 61.3424 70.1143 59.0658 69.6774 56.8695C69.2406 54.6731 68.1622 52.6556 66.5787 51.0721C64.9952 49.4887 62.9778 48.4103 60.7814 47.9734C58.5851 47.5365 56.3085 47.7608 54.2396 48.6177C52.1707 49.4747 50.4023 50.9259 49.1582 52.7879C47.9141 54.6499 47.25 56.839 47.25 59.0784C47.25 62.0813 48.4429 64.9612 50.5663 67.0846C52.6897 69.208 55.5696 70.4009 58.5725 70.4009Z" stroke="#191919" stroke-linecap="round" stroke-linejoin="round"/>
</svg>
