<svg width="16" height="16" viewBox="0 0 16 16" fill="none" xmlns="http://www.w3.org/2000/svg">
<path d="M7.99992 1.33398C5.41992 1.33398 3.33325 3.42065 3.33325 6.00065C3.33325 9.50065 7.99992 14.6673 7.99992 14.6673C7.99992 14.6673 12.6666 9.50065 12.6666 6.00065C12.6666 3.42065 10.5799 1.33398 7.99992 1.33398ZM4.66659 6.00065C4.66659 4.16065 6.15992 2.66732 7.99992 2.66732C9.83992 2.66732 11.3333 4.16065 11.3333 6.00065C11.3333 7.92065 9.41325 10.794 7.99992 12.5873C6.61325 10.8073 4.66659 7.90065 4.66659 6.00065Z" fill="#6B6C7E"/>
<path d="M7.99992 7.66732C8.92039 7.66732 9.66659 6.92113 9.66659 6.00065C9.66659 5.08018 8.92039 4.33398 7.99992 4.33398C7.07944 4.33398 6.33325 5.08018 6.33325 6.00065C6.33325 6.92113 7.07944 7.66732 7.99992 7.66732Z" fill="#6B6C7E"/>
</svg>
