<svg width="122" height="40" viewBox="0 0 122 40" fill="none" xmlns="http://www.w3.org/2000/svg">
<path fill-rule="evenodd" clip-rule="evenodd" d="M21 40C32.0457 40 41 31.0457 41 20C41 8.95431 32.0457 0 21 0C9.95429 0 1 8.95431 1 20C1 31.0457 9.95429 40 21 40ZM27.2393 9.31684C27.543 8.23805 26.4961 7.60013 25.54 8.2813L12.1931 17.7896C11.1562 18.5283 11.3193 20 12.4381 20H15.9527V19.9728H22.8025L17.2212 21.9421L14.7607 30.6832C14.457 31.762 15.5038 32.3999 16.46 31.7187L29.8069 22.2105C30.8438 21.4718 30.6806 20 29.5619 20H24.2321L27.2393 9.31684Z" fill="#0050C8"/>
<path d="M55.022 14.4C56.834 14.4 58.22 14.73 59.18 15.39C60.152 16.05 60.638 17.082 60.638 18.486C60.638 19.218 60.506 19.848 60.242 20.376C59.99 20.892 59.618 21.318 59.126 21.654C58.634 21.978 58.034 22.218 57.326 22.374C56.618 22.53 55.808 22.608 54.896 22.608H53.762V27H51.494V14.706C52.022 14.586 52.604 14.508 53.24 14.472C53.888 14.424 54.482 14.4 55.022 14.4ZM55.184 16.362C54.608 16.362 54.134 16.38 53.762 16.416V20.664H54.86C55.952 20.664 56.792 20.514 57.38 20.214C57.968 19.902 58.262 19.32 58.262 18.468C58.262 18.06 58.184 17.718 58.028 17.442C57.872 17.166 57.656 16.95 57.38 16.794C57.104 16.638 56.774 16.53 56.39 16.47C56.018 16.398 55.616 16.362 55.184 16.362ZM70.7984 22.284C70.7984 23.028 70.6904 23.706 70.4744 24.318C70.2584 24.93 69.9524 25.452 69.5564 25.884C69.1604 26.316 68.6804 26.652 68.1164 26.892C67.5644 27.132 66.9524 27.252 66.2804 27.252C65.6084 27.252 64.9964 27.132 64.4444 26.892C63.8924 26.652 63.4184 26.316 63.0224 25.884C62.6264 25.452 62.3144 24.93 62.0864 24.318C61.8704 23.706 61.7624 23.028 61.7624 22.284C61.7624 21.54 61.8704 20.868 62.0864 20.268C62.3144 19.656 62.6264 19.134 63.0224 18.702C63.4304 18.27 63.9104 17.94 64.4624 17.712C65.0144 17.472 65.6204 17.352 66.2804 17.352C66.9404 17.352 67.5464 17.472 68.0984 17.712C68.6624 17.94 69.1424 18.27 69.5384 18.702C69.9344 19.134 70.2404 19.656 70.4564 20.268C70.6844 20.868 70.7984 21.54 70.7984 22.284ZM68.5664 22.284C68.5664 21.348 68.3624 20.61 67.9544 20.07C67.5584 19.518 67.0004 19.242 66.2804 19.242C65.5604 19.242 64.9964 19.518 64.5884 20.07C64.1924 20.61 63.9944 21.348 63.9944 22.284C63.9944 23.232 64.1924 23.982 64.5884 24.534C64.9964 25.086 65.5604 25.362 66.2804 25.362C67.0004 25.362 67.5584 25.086 67.9544 24.534C68.3624 23.982 68.5664 23.232 68.5664 22.284ZM76.3183 27.18C75.6703 27.168 75.1303 27.096 74.6983 26.964C74.2783 26.832 73.9423 26.646 73.6903 26.406C73.4383 26.154 73.2583 25.848 73.1503 25.488C73.0543 25.116 73.0063 24.696 73.0063 24.228V13.392L75.1843 13.032V23.814C75.1843 24.078 75.2023 24.3 75.2383 24.48C75.2863 24.66 75.3643 24.816 75.4723 24.948C75.5803 25.068 75.7243 25.164 75.9043 25.236C76.0963 25.296 76.3363 25.344 76.6243 25.38L76.3183 27.18ZM81.662 27.18C81.014 27.168 80.474 27.096 80.042 26.964C79.622 26.832 79.286 26.646 79.034 26.406C78.782 26.154 78.602 25.848 78.494 25.488C78.398 25.116 78.35 24.696 78.35 24.228V13.392L80.528 13.032V23.814C80.528 24.078 80.546 24.3 80.582 24.48C80.63 24.66 80.708 24.816 80.816 24.948C80.924 25.068 81.068 25.164 81.248 25.236C81.44 25.296 81.68 25.344 81.968 25.38L81.662 27.18ZM83.8378 27V14.526H91.8477V16.452H86.1058V19.53H91.2178V21.42H86.1058V25.074H92.2798V27H83.8378ZM97.5886 25.47C98.2606 25.47 98.7706 25.434 99.1186 25.362V22.95C98.9986 22.914 98.8246 22.878 98.5966 22.842C98.3686 22.806 98.1166 22.788 97.8406 22.788C97.6006 22.788 97.3546 22.806 97.1026 22.842C96.8626 22.878 96.6406 22.944 96.4366 23.04C96.2446 23.136 96.0886 23.274 95.9686 23.454C95.8486 23.622 95.7886 23.838 95.7886 24.102C95.7886 24.618 95.9506 24.978 96.2746 25.182C96.5986 25.374 97.0366 25.47 97.5886 25.47ZM97.4086 17.352C98.1286 17.352 98.7346 17.442 99.2266 17.622C99.7186 17.802 100.109 18.054 100.397 18.378C100.697 18.702 100.907 19.098 101.027 19.566C101.159 20.022 101.225 20.526 101.225 21.078V26.784C100.889 26.856 100.379 26.94 99.6946 27.036C99.0226 27.144 98.2606 27.198 97.4086 27.198C96.8446 27.198 96.3286 27.144 95.8606 27.036C95.3926 26.928 94.9906 26.754 94.6546 26.514C94.3306 26.274 94.0726 25.962 93.8806 25.578C93.7006 25.194 93.6106 24.72 93.6106 24.156C93.6106 23.616 93.7126 23.16 93.9166 22.788C94.1326 22.416 94.4206 22.116 94.7806 21.888C95.1406 21.648 95.5546 21.48 96.0226 21.384C96.5026 21.276 97.0006 21.222 97.5166 21.222C97.7566 21.222 98.0086 21.24 98.2726 21.276C98.5366 21.3 98.8186 21.348 99.1186 21.42V21.06C99.1186 20.808 99.0886 20.568 99.0286 20.34C98.9686 20.112 98.8606 19.914 98.7046 19.746C98.5606 19.566 98.3626 19.428 98.1106 19.332C97.8706 19.236 97.5646 19.188 97.1926 19.188C96.6886 19.188 96.2266 19.224 95.8066 19.296C95.3866 19.368 95.0446 19.452 94.7806 19.548L94.5106 17.784C94.7866 17.688 95.1886 17.592 95.7166 17.496C96.2446 17.4 96.8086 17.352 97.4086 17.352ZM106.25 25.434C106.826 25.434 107.246 25.368 107.51 25.236C107.774 25.092 107.906 24.852 107.906 24.516C107.906 24.204 107.762 23.946 107.474 23.742C107.198 23.538 106.736 23.316 106.088 23.076C105.692 22.932 105.326 22.782 104.99 22.626C104.666 22.458 104.384 22.266 104.144 22.05C103.904 21.834 103.712 21.576 103.568 21.276C103.436 20.964 103.37 20.586 103.37 20.142C103.37 19.278 103.688 18.6 104.324 18.108C104.96 17.604 105.824 17.352 106.916 17.352C107.468 17.352 107.996 17.406 108.5 17.514C109.004 17.61 109.382 17.706 109.634 17.802L109.238 19.566C108.998 19.458 108.692 19.362 108.32 19.278C107.948 19.182 107.516 19.134 107.024 19.134C106.58 19.134 106.22 19.212 105.944 19.368C105.668 19.512 105.53 19.74 105.53 20.052C105.53 20.208 105.554 20.346 105.602 20.466C105.662 20.586 105.758 20.7 105.89 20.808C106.022 20.904 106.196 21.006 106.412 21.114C106.628 21.21 106.892 21.312 107.204 21.42C107.72 21.612 108.158 21.804 108.518 21.996C108.878 22.176 109.172 22.386 109.4 22.626C109.64 22.854 109.814 23.118 109.922 23.418C110.03 23.718 110.084 24.078 110.084 24.498C110.084 25.398 109.748 26.082 109.076 26.55C108.416 27.006 107.468 27.234 106.232 27.234C105.404 27.234 104.738 27.162 104.234 27.018C103.73 26.886 103.376 26.778 103.172 26.694L103.55 24.876C103.874 25.008 104.258 25.134 104.702 25.254C105.158 25.374 105.674 25.434 106.25 25.434ZM119.804 17.586C118.832 21.162 117.704 24.402 116.42 27.306C116.18 27.846 115.934 28.308 115.682 28.692C115.43 29.076 115.148 29.394 114.836 29.646C114.524 29.898 114.176 30.078 113.792 30.186C113.408 30.306 112.964 30.366 112.46 30.366C112.124 30.366 111.788 30.33 111.452 30.258C111.128 30.186 110.882 30.108 110.714 30.024L111.11 28.278C111.542 28.446 111.968 28.53 112.388 28.53C112.952 28.53 113.39 28.392 113.702 28.116C114.026 27.852 114.308 27.438 114.548 26.874C113.864 25.554 113.204 24.114 112.568 22.554C111.944 20.994 111.386 19.338 110.894 17.586H113.216C113.336 18.09 113.48 18.636 113.648 19.224C113.828 19.812 114.02 20.412 114.224 21.024C114.428 21.624 114.644 22.224 114.872 22.824C115.1 23.424 115.328 23.982 115.556 24.498C115.94 23.43 116.3 22.296 116.636 21.096C116.972 19.884 117.278 18.714 117.554 17.586H119.804Z" fill="#0050C8"/>
</svg>
