<svg width="83" height="92" viewBox="0 0 83 92" fill="none" xmlns="http://www.w3.org/2000/svg">
<g clip-path="url(#clip0_12772_282595)">
<path d="M37.1514 91.2865C43.2279 99.5671 52.3451 105.095 62.4971 106.653C72.6492 108.212 83.0045 105.673 91.2851 99.5968C99.5657 93.5203 105.093 84.4031 106.652 74.2511C108.21 64.099 105.672 53.7437 99.5954 45.4631C93.5189 37.1825 84.4017 31.655 74.2497 30.0965C64.0977 28.538 53.7423 31.0762 45.4617 37.1528C37.1811 43.2293 31.6536 52.3465 30.0951 62.4985C28.5366 72.6505 31.0748 83.0059 37.1514 91.2865Z" fill="#E6EDFF" stroke="#E6EDFF" stroke-width="0.78"/>
<path opacity="0.15" d="M74.2822 101.584C74.4253 101.779 74.8741 101.747 75.6031 101.489C76.3321 101.231 77.327 100.753 78.531 100.081C79.7349 99.41 81.1244 98.5586 82.62 97.5759C84.1156 96.5931 85.6881 95.4983 87.2477 94.3538C88.8073 93.2093 90.3235 92.0376 91.7096 90.9057C93.0957 89.7737 94.3247 88.7036 95.3263 87.7565C96.3279 86.8094 97.0826 86.0038 97.5473 85.3857C98.0119 84.7676 98.1774 84.3491 98.0344 84.1541C97.8913 83.9592 97.4424 83.9916 96.7134 84.2494C95.9844 84.5073 94.9895 84.9855 93.7856 85.6569C92.5816 86.3284 91.1922 87.1797 89.6965 88.1625C88.2009 89.1452 86.6284 90.2401 85.0688 91.3846C83.5092 92.529 81.9931 93.7007 80.607 94.8327C79.2209 95.9646 77.9919 97.0347 76.9903 97.9819C75.9886 98.929 75.234 99.7346 74.7693 100.353C74.3046 100.971 74.1391 101.389 74.2822 101.584Z" fill="#45413C"/>
<path d="M68.5625 45.031C66.3347 42.0472 63.0181 40.0645 59.3352 39.5147C55.6522 38.9649 51.9012 39.8926 48.899 42.0957C45.8968 44.2987 43.8867 47.5988 43.3065 51.2771C42.7262 54.9553 43.6228 58.7139 45.8009 61.7342L54.8791 74.1052L59.827 70.4742L50.7488 58.1033C49.4969 56.3973 48.974 54.2638 49.295 52.1722C49.6161 50.0807 50.7549 48.2023 52.461 46.9504C54.167 45.6985 56.3004 45.1755 58.392 45.4966C60.4836 45.8177 62.3619 46.9565 63.6139 48.6625L72.692 61.0335L77.64 57.4025L68.5625 45.031Z" fill="#ADC4D9"/>
<path d="M51.3723 45.4652C53.9321 43.5881 57.0298 42.5881 60.204 42.6142C63.3782 42.6403 66.459 43.6912 68.9876 45.6102L68.5625 45.031C66.3347 42.0472 63.0181 40.0645 59.3352 39.5147C55.6522 38.9649 51.9012 39.8926 48.899 42.0957C45.8968 44.2987 43.8867 47.5988 43.3065 51.2771C42.7262 54.9553 43.6228 58.7139 45.8009 61.7342L46.2259 62.3134C45.1537 59.3255 45.0754 56.0711 46.0028 53.0351C46.9301 49.9992 48.8135 47.344 51.3723 45.4652Z" fill="#E6EDFF"/>
<path d="M68.5625 45.031C66.3347 42.0472 63.0181 40.0645 59.3352 39.5147C55.6522 38.9649 51.9012 39.8926 48.899 42.0957C45.8968 44.2987 43.8867 47.5988 43.3065 51.2771C42.7262 54.9553 43.6228 58.7139 45.8009 61.7342L54.8791 74.1052L59.827 70.4742L50.7488 58.1033C49.4969 56.3973 48.974 54.2638 49.295 52.1722C49.6161 50.0807 50.7549 48.2023 52.461 46.9504C54.167 45.6985 56.3004 45.1755 58.392 45.4966C60.4836 45.8177 62.3619 46.9565 63.6139 48.6625L72.692 61.0335L77.64 57.4025L68.5625 45.031Z" stroke="#031026" stroke-width="0.78" stroke-linecap="round" stroke-linejoin="round"/>
<path d="M56.8303 87.1377C58.4039 89.2821 60.3845 91.0955 62.6589 92.4745C64.9333 93.8534 67.4571 94.7709 70.0861 95.1745C72.7151 95.578 75.3979 95.4599 77.9812 94.8267C80.5645 94.1935 82.9979 93.0576 85.1422 91.484C87.2866 89.9104 89.1 87.9298 90.479 85.6554C91.8579 83.381 92.7754 80.8572 93.179 78.2282C93.5826 75.5992 93.4644 72.9164 92.8312 70.3331C92.198 67.7498 91.0621 65.3164 89.4885 63.1721C87.9149 61.0277 85.9344 59.2143 83.6599 57.8353C81.3855 56.4564 78.8617 55.5389 76.2327 55.1353C73.6037 54.7317 70.9209 54.8499 68.3376 55.4831C65.7543 56.1163 63.321 57.2522 61.1766 58.8258C59.0322 60.3994 57.2188 62.3799 55.8398 64.6544C54.4609 66.9288 53.5434 69.4526 53.1398 72.0816C52.7363 74.7106 52.8544 77.3934 53.4876 79.9767C54.1209 82.56 55.2567 84.9933 56.8303 87.1377Z" fill="#0A3E94"/>
<path d="M81.8744 87.0307C77.9303 89.9212 73.0732 91.2862 68.2008 90.8734C63.3284 90.4607 58.7701 88.298 55.3684 84.7853C56.7326 87.3516 58.6331 89.5943 60.9409 91.3611C63.2487 93.1279 65.9096 94.3773 68.743 95.0245C71.5765 95.6717 74.516 95.7016 77.362 95.112C80.208 94.5225 82.8938 93.3274 85.237 91.6079C87.5802 89.8884 89.5258 87.6848 90.9419 85.1467C92.358 82.6086 93.2112 79.7954 93.4437 76.8984C93.6762 74.0013 93.2825 71.0881 92.2894 68.3566C91.2962 65.6252 89.7269 63.1394 87.6879 61.0682C90.0186 65.3679 90.7139 70.366 89.6452 75.1386C88.5765 79.9112 85.8162 84.1355 81.8744 87.0307Z" fill="#0047BD"/>
<path d="M64.4447 63.2794C68.389 60.3893 73.246 59.0246 78.1183 59.4373C82.9907 59.85 87.5489 62.0124 90.9508 65.5248C89.5866 62.9584 87.6861 60.7157 85.3783 58.949C83.0705 57.1822 80.4096 55.9328 77.5761 55.2856C74.7427 54.6384 71.8032 54.6085 68.9572 55.198C66.1112 55.7876 63.4254 56.9827 61.0822 58.7022C58.739 60.4217 56.7933 62.6253 55.3773 65.1634C53.9612 67.7015 53.108 70.5146 52.8755 73.4117C52.643 76.3088 53.0367 79.222 54.0298 81.9535C55.023 84.6849 56.5923 87.1707 58.6313 89.2418C56.3002 84.9422 55.6047 79.944 56.6734 75.1713C57.7421 70.3986 60.5027 66.1743 64.4447 63.2794Z" fill="#0050C8"/>
<path d="M56.8303 87.1377C58.4039 89.2821 60.3845 91.0955 62.6589 92.4745C64.9333 93.8534 67.4571 94.7709 70.0861 95.1745C72.7151 95.578 75.3979 95.4599 77.9812 94.8267C80.5645 94.1935 82.9979 93.0576 85.1422 91.484C87.2866 89.9104 89.1 87.9298 90.479 85.6554C91.8579 83.381 92.7754 80.8572 93.179 78.2282C93.5826 75.5992 93.4644 72.9164 92.8312 70.3331C92.198 67.7498 91.0621 65.3164 89.4885 63.1721C87.9149 61.0277 85.9344 59.2143 83.6599 57.8353C81.3855 56.4564 78.8617 55.5389 76.2327 55.1353C73.6037 54.7317 70.9209 54.8499 68.3376 55.4831C65.7543 56.1163 63.321 57.2522 61.1766 58.8258C59.0322 60.3994 57.2188 62.3799 55.8398 64.6544C54.4609 66.9288 53.5434 69.4526 53.1398 72.0816C52.7363 74.7106 52.8544 77.3934 53.4876 79.9767C54.1209 82.56 55.2567 84.9933 56.8303 87.1377V87.1377Z" stroke="#031026" stroke-width="0.78" stroke-linecap="round" stroke-linejoin="round"/>
<path d="M74.9159 72.3604C74.6081 71.9367 74.1969 71.5988 73.7215 71.3789C73.2461 71.159 72.7224 71.0645 72.2002 71.1042C71.6779 71.1439 71.1745 71.3167 70.7379 71.606C70.3013 71.8953 69.946 72.2915 69.7058 72.7569C69.4655 73.2223 69.3484 73.7415 69.3656 74.265C69.3827 74.7884 69.5336 75.2988 69.8037 75.7475C70.0739 76.1962 70.4544 76.5683 70.909 76.8284C71.3636 77.0885 71.8773 77.2279 72.401 77.2334L74.5776 80.1995C74.8662 80.5928 75.2993 80.8554 75.7815 80.9294C76.2638 81.0034 76.7556 80.8829 77.149 80.5942C77.5423 80.3056 77.8048 79.8725 77.8789 79.3903C77.9529 78.9081 77.8323 78.4162 77.5437 78.0229L75.3671 75.0568C75.5065 74.6032 75.5383 74.1233 75.46 73.6553C75.3817 73.1873 75.1954 72.7439 74.9159 72.3604Z" fill="#E5EDFF" stroke="#143469" stroke-width="0.78" stroke-linecap="round" stroke-linejoin="round"/>
</g>
<defs>
<clipPath id="clip0_12772_282595">
<rect width="96.8169" height="96.8169" fill="white" transform="translate(0.706055 57.9863) rotate(-36.2724)"/>
</clipPath>
</defs>
</svg>
