<svg width="29" height="28" viewBox="0 0 29 28" fill="none" xmlns="http://www.w3.org/2000/svg">
<circle cx="15" cy="14" r="14" fill="#D4F7DC"/>
<path d="M10 14.375C11.467 14.375 12.6562 13.1858 12.6562 11.7188C12.6562 10.2517 11.467 9.0625 10 9.0625C8.53299 9.0625 7.34375 10.2517 7.34375 11.7188C7.34375 13.1858 8.53299 14.375 10 14.375Z" stroke="#15692A" stroke-width="0.833333" stroke-linecap="round" stroke-linejoin="round"/>
<path d="M15 19.6875C14.6798 18.6043 14.0201 17.654 13.1191 16.9783C12.2181 16.3026 11.1241 15.9375 10 15.9375C8.87591 15.9375 7.78189 16.3026 6.88091 16.9783C5.97993 17.654 5.3202 18.6043 5 19.6875" stroke="#15692A" stroke-width="0.833333" stroke-linecap="round" stroke-linejoin="round"/>
<path d="M15.3063 15.7813C16.3841 15.7813 17.2578 14.9068 17.2578 13.8281C17.2578 12.7495 16.3841 11.875 15.3063 11.875C14.2285 11.875 13.3547 12.7495 13.3547 13.8281C13.3547 14.9068 14.2285 15.7813 15.3063 15.7813Z" stroke="#15692A" stroke-width="0.833333" stroke-linecap="round" stroke-linejoin="round"/>
<path d="M18.9796 19.6876C18.7444 18.8911 18.2597 18.1923 17.5977 17.6955C16.9358 17.1986 16.132 16.9302 15.3062 16.9302C14.7226 16.9302 14.1501 17.0642 13.6309 17.3181" stroke="#15692A" stroke-width="0.833333" stroke-linecap="round" stroke-linejoin="round"/>
<path d="M4.61096 15.7813C3.53315 15.7813 2.65942 14.9069 2.65942 13.8282C2.65942 12.7495 3.53315 11.875 4.61096 11.875C5.68877 11.875 6.5625 12.7495 6.5625 13.8282C6.5625 14.9069 5.68877 15.7813 4.61096 15.7813Z" stroke="#15692A" stroke-width="0.833333" stroke-linecap="round" stroke-linejoin="round"/>
<path d="M0.937572 19.6876C1.17282 18.8911 1.65752 18.1924 2.31947 17.6955C2.98142 17.1986 3.78519 16.9302 4.61106 16.9302C5.19461 16.9302 5.76713 17.0642 6.28638 17.3181" stroke="#15692A" stroke-width="0.833333" stroke-linecap="round" stroke-linejoin="round"/>
</svg>
