<svg width="28" height="28" viewBox="0 0 28 28" fill="none" xmlns="http://www.w3.org/2000/svg">
<circle cx="14" cy="14" r="14" fill="#FFE0ED"/>
<g clip-path="url(#clip0_5538_59615)">
<path d="M1.13965 25.6838V9.13965" stroke="#9F1F17" stroke-linecap="round" stroke-linejoin="round"/>
<path d="M1.13965 21.6089L3.45877 20.8957C4.41944 20.5999 5.43215 20.5125 6.42929 20.6393C7.15027 20.731 7.28463 20.7843 7.94112 21.0884M1.13965 11.2685L3.45877 10.556C4.41944 10.2602 5.43215 10.1728 6.42929 10.2996C7.42643 10.4264 8.38504 10.7645 9.24112 11.2913C10.0769 11.8054 11.0105 12.14 11.9826 12.2737C12.9547 12.4074 13.9439 12.3372 14.8874 12.0677L16.6294 11.5699C16.7525 11.5349 16.882 11.5289 17.0079 11.5524C17.1337 11.5759 17.2523 11.6283 17.3545 11.7054C17.4567 11.7825 17.5396 11.8822 17.5967 11.9968C17.6539 12.1113 17.6836 12.2375 17.6838 12.3655V20.9883C17.6838 21.1681 17.6253 21.3431 17.517 21.4866C17.4087 21.6302 17.2567 21.7345 17.0838 21.7839L15.4475 22.2517" stroke="#9F1F17" stroke-linecap="round" stroke-linejoin="round"/>
<path d="M11.3273 19.4614C11.3898 19.5311 11.4664 19.5868 11.5519 19.6249C11.6374 19.663 11.73 19.6827 11.8236 19.6827C11.9172 19.6827 12.0098 19.663 12.0953 19.6249C12.1808 19.5868 12.2573 19.5311 12.3199 19.4614L12.6453 19.103C12.7387 19.0008 12.8612 18.9296 12.9962 18.8991C13.1313 18.8685 13.2725 18.88 13.4008 18.932C13.529 18.9853 13.6376 19.077 13.7117 19.1945C13.7857 19.312 13.8216 19.4496 13.8144 19.5883V20.0681C13.8079 20.1624 13.8216 20.2571 13.8548 20.3457C13.888 20.4343 13.9397 20.5148 14.0066 20.5817C14.0735 20.6486 14.154 20.7004 14.2426 20.7335C14.3312 20.7667 14.4259 20.7805 14.5203 20.7739H15.0001C15.1388 20.7667 15.2763 20.8026 15.3938 20.8766C15.5113 20.9507 15.603 21.0593 15.6563 21.1875C15.7083 21.3159 15.7198 21.457 15.6893 21.5921C15.6587 21.7272 15.5876 21.8496 15.4853 21.9431L15.1324 22.2464C15.0628 22.3089 15.0071 22.3855 14.969 22.471C14.9308 22.5565 14.9111 22.6491 14.9111 22.7427C14.9111 22.8363 14.9308 22.9289 14.969 23.0144C15.0071 23.0999 15.0628 23.1764 15.1324 23.239L15.4909 23.5644C15.5931 23.6578 15.6642 23.7803 15.6948 23.9153C15.7254 24.0504 15.7138 24.1916 15.6618 24.3199C15.6085 24.4481 15.5168 24.5567 15.3993 24.6308C15.2818 24.7048 15.1443 24.7407 15.0056 24.7335H14.5258C14.4314 24.727 14.3367 24.7407 14.2481 24.7739C14.1595 24.8071 14.0791 24.8588 14.0122 24.9257C13.9453 24.9926 13.8935 25.0731 13.8603 25.1617C13.8272 25.2503 13.8134 25.345 13.8199 25.4394V25.9192C13.8271 26.0579 13.7913 26.1954 13.7172 26.3129C13.6432 26.4304 13.5345 26.5221 13.4063 26.5754C13.278 26.6274 13.1368 26.6389 13.0017 26.6084C12.8667 26.5778 12.7442 26.5067 12.6508 26.4045L12.3199 26.0515C12.2573 25.9819 12.1808 25.9262 12.0953 25.8881C12.0098 25.8499 11.9172 25.8302 11.8236 25.8302C11.73 25.8302 11.6374 25.8499 11.5519 25.8881C11.4664 25.9262 11.3898 25.9819 11.3273 26.0515L11.0019 26.41C10.9085 26.5122 10.786 26.5833 10.6509 26.6139C10.5159 26.6445 10.3747 26.6329 10.2464 26.5809C10.1181 26.5276 10.0095 26.4359 9.93548 26.3184C9.86142 26.2009 9.82555 26.0634 9.83277 25.9247V25.4449C9.83931 25.3505 9.82553 25.2558 9.79236 25.1672C9.7592 25.0786 9.70742 24.9982 9.64053 24.9313C9.57363 24.8644 9.49317 24.8126 9.40456 24.7794C9.31596 24.7463 9.22127 24.7325 9.12689 24.739H8.64711C8.50841 24.7462 8.37088 24.7104 8.25338 24.6363C8.13588 24.5623 8.04418 24.4537 7.99086 24.3254C7.93883 24.1971 7.92733 24.0559 7.95789 23.9208C7.98845 23.7858 8.05961 23.6633 8.16182 23.5699L8.52027 23.2445C8.58991 23.1819 8.6456 23.1054 8.68372 23.0199C8.72184 22.9344 8.74154 22.8418 8.74154 22.7482C8.74154 22.6546 8.72184 22.562 8.68372 22.4765C8.6456 22.391 8.58991 22.3145 8.52027 22.2519L8.16182 21.9265C8.05961 21.8331 7.98845 21.7106 7.95789 21.5756C7.92733 21.4405 7.93883 21.2993 7.99086 21.171C8.04418 21.0427 8.13588 20.9341 8.25338 20.8601C8.37088 20.786 8.50841 20.7502 8.64711 20.7574H9.12689C9.22156 20.767 9.31719 20.7561 9.40726 20.7254C9.49733 20.6947 9.57972 20.645 9.64882 20.5795C9.71791 20.5141 9.77208 20.4345 9.80763 20.3463C9.84319 20.258 9.85929 20.1631 9.85483 20.0681V19.5883C9.84761 19.4496 9.88348 19.312 9.95753 19.1945C10.0316 19.077 10.1402 18.9853 10.2684 18.932C10.3968 18.88 10.5379 18.8685 10.673 18.8991C10.8081 18.9296 10.9305 19.0008 11.024 19.103L11.3273 19.4614Z" stroke="#9F1F17" stroke-linecap="round" stroke-linejoin="round"/>
<path d="M11.8236 23.9836C12.5089 23.9836 13.0644 23.428 13.0644 22.7428C13.0644 22.0575 12.5089 21.502 11.8236 21.502C11.1383 21.502 10.5828 22.0575 10.5828 22.7428C10.5828 23.428 11.1383 23.9836 11.8236 23.9836Z" stroke="#9F1F17" stroke-linecap="round" stroke-linejoin="round"/>
</g>
<defs>
<clipPath id="clip0_5538_59615">
<rect width="18.8235" height="20" fill="white" transform="translate(0 8)"/>
</clipPath>
</defs>
</svg>
