<svg width="24" height="24" viewBox="0 0 24 24" fill="none" xmlns="http://www.w3.org/2000/svg">
<g clip-path="url(#clip0_13653_20611)">
<path d="M8.25 17.25H2.25C1.85218 17.25 1.47064 17.408 1.18934 17.6893C0.908035 17.9706 0.75 18.3522 0.75 18.75V23.25H8.25V17.25Z" stroke="#0047BD" stroke-width="1.5" stroke-linecap="round" stroke-linejoin="round"/>
<path d="M21.75 17.25H15.75V23.25H23.25V18.75C23.25 18.3522 23.092 17.9706 22.8107 17.6893C22.5294 17.408 22.1478 17.25 21.75 17.25Z" stroke="#0047BD" stroke-width="1.5" stroke-linecap="round" stroke-linejoin="round"/>
<path d="M14.25 11.25H9.75C9.35218 11.25 8.97064 11.408 8.68934 11.6893C8.40804 11.9706 8.25 12.3522 8.25 12.75V23.25H15.75V12.75C15.75 12.3522 15.592 11.9706 15.3107 11.6893C15.0294 11.408 14.6478 11.25 14.25 11.25Z" stroke="#0047BD" stroke-width="1.2" stroke-linecap="round" stroke-linejoin="round"/>
<path d="M9.375 3.375C9.375 4.07119 9.65156 4.73887 10.1438 5.23116C10.6361 5.72344 11.3038 6 12 6C12.6962 6 13.3639 5.72344 13.8562 5.23116C14.3484 4.73887 14.625 4.07119 14.625 3.375C14.625 2.67881 14.3484 2.01113 13.8562 1.51884C13.3639 1.02656 12.6962 0.75 12 0.75C11.3038 0.75 10.6361 1.02656 10.1438 1.51884C9.65156 2.01113 9.375 2.67881 9.375 3.375V3.375Z" stroke="#0047BD" stroke-width="1.2" stroke-linecap="round" stroke-linejoin="round"/>
<path d="M15.249 8.24904C14.8483 7.77849 14.3501 7.40057 13.789 7.14142C13.2278 6.88226 12.6171 6.74805 11.999 6.74805C11.3809 6.74805 10.7702 6.88226 10.2091 7.14142C9.64796 7.40057 9.14979 7.77849 8.74902 8.24904" stroke="#0047BD" stroke-width="1.2" stroke-linecap="round" stroke-linejoin="round"/>
<path d="M17.376 10.125C17.376 10.8212 17.6525 11.4889 18.1448 11.9812C18.6371 12.4734 19.3048 12.75 20.001 12.75C20.6972 12.75 21.3648 12.4734 21.8571 11.9812C22.3494 11.4889 22.626 10.8212 22.626 10.125C22.626 9.42881 22.3494 8.76113 21.8571 8.26884C21.3648 7.77656 20.6972 7.5 20.001 7.5C19.3048 7.5 18.6371 7.77656 18.1448 8.26884C17.6525 8.76113 17.376 9.42881 17.376 10.125V10.125Z" stroke="#0047BD" stroke-width="1.2" stroke-linecap="round" stroke-linejoin="round"/>
<path d="M23.25 15C22.7103 14.3655 21.9963 13.903 21.1965 13.67C20.3967 13.437 19.5461 13.4436 18.75 13.689" stroke="#0047BD" stroke-width="1.2" stroke-linecap="round" stroke-linejoin="round"/>
<path d="M1.37402 10.125C1.37402 10.4697 1.44192 10.8111 1.57384 11.1295C1.70576 11.448 1.89911 11.7374 2.14287 11.9812C2.38662 12.2249 2.676 12.4183 2.99448 12.5502C3.31296 12.6821 3.6543 12.75 3.99902 12.75C4.34374 12.75 4.68509 12.6821 5.00357 12.5502C5.32205 12.4183 5.61143 12.2249 5.85518 11.9812C6.09893 11.7374 6.29229 11.448 6.42421 11.1295C6.55613 10.8111 6.62402 10.4697 6.62402 10.125C6.62402 9.78028 6.55613 9.43894 6.42421 9.12046C6.29229 8.80198 6.09893 8.5126 5.85518 8.26884C5.61143 8.02509 5.32205 7.83173 5.00357 7.69982C4.68509 7.5679 4.34374 7.5 3.99902 7.5C3.6543 7.5 3.31296 7.5679 2.99448 7.69982C2.676 7.83173 2.38662 8.02509 2.14287 8.26884C1.89911 8.5126 1.70576 8.80198 1.57384 9.12046C1.44192 9.43894 1.37402 9.78028 1.37402 10.125V10.125Z" stroke="#0047BD" stroke-width="1.2" stroke-linecap="round" stroke-linejoin="round"/>
<path d="M0.75 15C1.1516 14.5305 1.64995 14.1534 2.21091 13.8945C2.77187 13.6356 3.38218 13.501 4 13.5C4.42205 13.5003 4.84168 13.5637 5.245 13.688" stroke="#0047BD" stroke-width="1.2" stroke-linecap="round" stroke-linejoin="round"/>
</g>
<defs>
<clipPath id="clip0_13653_20611">
<rect width="24" height="24" fill="white"/>
</clipPath>
</defs>
</svg>
