<svg width="24" height="24" viewBox="0 0 24 24" fill="none" xmlns="http://www.w3.org/2000/svg">
<path d="M0 12C0 5.37258 5.37258 0 12 0C18.6274 0 24 5.37258 24 12C24 18.6274 18.6274 24 12 24C5.37258 24 0 18.6274 0 12Z" fill="#D13438"/>
<path d="M11.7249 8.298C11.4355 8.61533 11.1089 8.97 10.7449 9.362C10.3809 9.74467 9.9982 10.1413 9.59687 10.552C9.20487 10.9533 8.81287 11.35 8.42087 11.742C8.02887 12.134 7.6602 12.498 7.31487 12.834C7.7162 13.114 8.14087 13.4593 8.58887 13.87C9.03687 14.2807 9.47553 14.7193 9.90487 15.186C10.3342 15.6527 10.7355 16.1287 11.1089 16.614C11.4915 17.0993 11.8089 17.5613 12.0609 18H10.4649C10.1849 17.5613 9.86287 17.1227 9.49887 16.684C9.13487 16.236 8.74753 15.8113 8.33687 15.41C7.93553 14.9993 7.52487 14.6213 7.10487 14.276C6.6942 13.9307 6.29287 13.6367 5.90087 13.394V18H4.54287V8.298H5.90087V12.582C6.22753 12.274 6.58687 11.9287 6.97887 11.546C7.37087 11.154 7.7582 10.762 8.14087 10.37C8.52353 9.978 8.88287 9.60467 9.21887 9.25C9.5642 8.886 9.85353 8.56867 10.0869 8.298H11.7249ZM15.9236 8.2C17.2862 8.2 18.3316 8.46133 19.0596 8.984C19.7969 9.49733 20.1656 10.2673 20.1656 11.294C20.1656 11.854 20.0629 12.3347 19.8576 12.736C19.6616 13.128 19.3722 13.45 18.9896 13.702C18.6162 13.9447 18.1589 14.122 17.6176 14.234C17.0762 14.346 16.4649 14.402 15.7836 14.402H14.7056V18H13.3476V8.438C13.7302 8.34467 14.1549 8.284 14.6216 8.256C15.0976 8.21867 15.5316 8.2 15.9236 8.2ZM16.0356 9.39C15.4569 9.39 15.0136 9.404 14.7056 9.432V13.24H15.7276C16.1942 13.24 16.6142 13.212 16.9876 13.156C17.3609 13.0907 17.6736 12.988 17.9256 12.848C18.1869 12.6987 18.3876 12.498 18.5276 12.246C18.6676 11.994 18.7376 11.672 18.7376 11.28C18.7376 10.9067 18.6629 10.5987 18.5136 10.356C18.3736 10.1133 18.1776 9.922 17.9256 9.782C17.6829 9.63267 17.3982 9.53 17.0716 9.474C16.7449 9.418 16.3996 9.39 16.0356 9.39Z" fill="white"/>
</svg>
