<svg width="24" height="24" viewBox="0 0 24 24" fill="none" xmlns="http://www.w3.org/2000/svg">
<path d="M0 12C0 5.37258 5.37258 0 12 0C18.6274 0 24 5.37258 24 12C24 18.6274 18.6274 24 12 24C5.37258 24 0 18.6274 0 12Z" fill="#038387"/>
<path d="M8.53713 18.21C7.8558 18.21 7.23513 18.098 6.67513 17.874C6.11513 17.65 5.63447 17.3233 5.23313 16.894C4.8318 16.4647 4.51913 15.9373 4.29513 15.312C4.08047 14.6773 3.97313 13.954 3.97313 13.142C3.97313 12.33 4.09447 11.6113 4.33713 10.986C4.58913 10.3513 4.92513 9.81933 5.34513 9.39C5.76513 8.96067 6.25513 8.634 6.81513 8.41C7.37513 8.186 7.97247 8.074 8.60713 8.074C9.00847 8.074 9.3678 8.102 9.68513 8.158C10.0118 8.214 10.2918 8.27933 10.5251 8.354C10.7678 8.42867 10.9638 8.50333 11.1131 8.578C11.2625 8.65267 11.3651 8.70867 11.4211 8.746L11.0291 9.866C10.9451 9.81 10.8238 9.74933 10.6651 9.684C10.5065 9.61867 10.3245 9.55333 10.1191 9.488C9.92313 9.42267 9.7038 9.37133 9.46113 9.334C9.2278 9.28733 8.9898 9.264 8.74713 9.264C8.2338 9.264 7.7718 9.35267 7.36113 9.53C6.95047 9.70733 6.60047 9.964 6.31113 10.3C6.0218 10.636 5.7978 11.0467 5.63913 11.532C5.4898 12.008 5.41513 12.5447 5.41513 13.142C5.41513 13.7207 5.48047 14.248 5.61113 14.724C5.75113 15.2 5.95647 15.6107 6.22713 15.956C6.4978 16.292 6.8338 16.5533 7.23513 16.74C7.6458 16.9267 8.1218 17.02 8.66313 17.02C9.28847 17.02 9.80647 16.9547 10.2171 16.824C10.6278 16.6933 10.9358 16.5767 11.1411 16.474L11.4911 17.594C11.4258 17.6407 11.3091 17.7013 11.1411 17.776C10.9731 17.8413 10.7631 17.9067 10.5111 17.972C10.2591 18.0373 9.96513 18.0933 9.62913 18.14C9.29313 18.1867 8.92913 18.21 8.53713 18.21ZM15.6648 18.084C15.4688 18.084 15.2541 18.0793 15.0208 18.07C14.7968 18.0607 14.5681 18.0467 14.3348 18.028C14.1108 18.0093 13.8868 17.986 13.6628 17.958C13.4388 17.93 13.2334 17.8927 13.0468 17.846V8.438C13.2334 8.39133 13.4388 8.354 13.6628 8.326C13.8868 8.298 14.1108 8.27467 14.3348 8.256C14.5681 8.23733 14.7968 8.22333 15.0208 8.214C15.2448 8.20467 15.4548 8.2 15.6508 8.2C16.2108 8.2 16.7334 8.242 17.2188 8.326C17.7134 8.41 18.1381 8.55467 18.4928 8.76C18.8568 8.956 19.1414 9.21733 19.3468 9.544C19.5521 9.87067 19.6548 10.272 19.6548 10.748C19.6548 11.28 19.5288 11.7187 19.2768 12.064C19.0248 12.4 18.6888 12.652 18.2688 12.82C18.8381 12.988 19.2908 13.254 19.6268 13.618C19.9628 13.982 20.1308 14.4953 20.1308 15.158C20.1308 16.1287 19.7714 16.8613 19.0528 17.356C18.3434 17.8413 17.2141 18.084 15.6648 18.084ZM14.3908 13.478V16.894C14.4934 16.9033 14.6148 16.9127 14.7548 16.922C14.8761 16.9313 15.0161 16.9407 15.1748 16.95C15.3428 16.95 15.5341 16.95 15.7488 16.95C16.1501 16.95 16.5281 16.9267 16.8828 16.88C17.2468 16.824 17.5641 16.7307 17.8348 16.6C18.1054 16.4693 18.3201 16.2873 18.4788 16.054C18.6468 15.8207 18.7308 15.5267 18.7308 15.172C18.7308 14.8547 18.6701 14.5887 18.5488 14.374C18.4274 14.15 18.2501 13.9727 18.0168 13.842C17.7928 13.7113 17.5221 13.618 17.2048 13.562C16.8874 13.506 16.5328 13.478 16.1408 13.478H14.3908ZM14.3908 12.386H15.8188C16.1548 12.386 16.4721 12.3627 16.7708 12.316C17.0694 12.2693 17.3261 12.1853 17.5408 12.064C17.7648 11.9427 17.9374 11.784 18.0588 11.588C18.1894 11.392 18.2548 11.1447 18.2548 10.846C18.2548 10.566 18.1894 10.3327 18.0588 10.146C17.9281 9.95 17.7461 9.796 17.5128 9.684C17.2888 9.56267 17.0228 9.474 16.7148 9.418C16.4068 9.362 16.0801 9.334 15.7348 9.334C15.3894 9.334 15.1188 9.33867 14.9228 9.348C14.7268 9.35733 14.5494 9.37133 14.3908 9.39V12.386Z" fill="white"/>
</svg>
