<svg width="24" height="24" viewBox="0 0 24 24" fill="none" xmlns="http://www.w3.org/2000/svg">
<path d="M0 12C0 5.37258 5.37258 0 12 0C18.6274 0 24 5.37258 24 12C24 18.6274 18.6274 24 12 24C5.37258 24 0 18.6274 0 12Z" fill="#4F6BED"/>
<path d="M11.4141 16.824V18H5.57607V8.298H6.93407V16.824H11.4141ZM15.4538 18.084C15.2578 18.084 15.0432 18.0793 14.8098 18.07C14.5858 18.0607 14.3572 18.0467 14.1238 18.028C13.8998 18.0093 13.6758 17.986 13.4518 17.958C13.2278 17.93 13.0225 17.8927 12.8358 17.846V8.438C13.0225 8.39133 13.2278 8.354 13.4518 8.326C13.6758 8.298 13.8998 8.27467 14.1238 8.256C14.3572 8.23733 14.5858 8.22333 14.8098 8.214C15.0338 8.20467 15.2438 8.2 15.4398 8.2C15.9998 8.2 16.5225 8.242 17.0078 8.326C17.5025 8.41 17.9272 8.55467 18.2818 8.76C18.6458 8.956 18.9305 9.21733 19.1358 9.544C19.3412 9.87067 19.4438 10.272 19.4438 10.748C19.4438 11.28 19.3178 11.7187 19.0658 12.064C18.8138 12.4 18.4778 12.652 18.0578 12.82C18.6272 12.988 19.0798 13.254 19.4158 13.618C19.7518 13.982 19.9198 14.4953 19.9198 15.158C19.9198 16.1287 19.5605 16.8613 18.8418 17.356C18.1325 17.8413 17.0032 18.084 15.4538 18.084ZM14.1798 13.478V16.894C14.2825 16.9033 14.4038 16.9127 14.5438 16.922C14.6652 16.9313 14.8052 16.9407 14.9638 16.95C15.1318 16.95 15.3232 16.95 15.5378 16.95C15.9392 16.95 16.3172 16.9267 16.6718 16.88C17.0358 16.824 17.3532 16.7307 17.6238 16.6C17.8945 16.4693 18.1092 16.2873 18.2678 16.054C18.4358 15.8207 18.5198 15.5267 18.5198 15.172C18.5198 14.8547 18.4592 14.5887 18.3378 14.374C18.2165 14.15 18.0392 13.9727 17.8058 13.842C17.5818 13.7113 17.3112 13.618 16.9938 13.562C16.6765 13.506 16.3218 13.478 15.9298 13.478H14.1798ZM14.1798 12.386H15.6078C15.9438 12.386 16.2612 12.3627 16.5598 12.316C16.8585 12.2693 17.1152 12.1853 17.3298 12.064C17.5538 11.9427 17.7265 11.784 17.8478 11.588C17.9785 11.392 18.0438 11.1447 18.0438 10.846C18.0438 10.566 17.9785 10.3327 17.8478 10.146C17.7172 9.95 17.5352 9.796 17.3018 9.684C17.0778 9.56267 16.8118 9.474 16.5038 9.418C16.1958 9.362 15.8692 9.334 15.5238 9.334C15.1785 9.334 14.9078 9.33867 14.7118 9.348C14.5158 9.35733 14.3385 9.37133 14.1798 9.39V12.386Z" fill="white"/>
</svg>
