<svg width="17" height="17" viewBox="0 0 17 17" fill="none" xmlns="http://www.w3.org/2000/svg">
<path d="M0 8.5C0 3.94365 3.69365 0.25 8.25 0.25C12.8063 0.25 16.5 3.94365 16.5 8.5C16.5 13.0563 12.8063 16.75 8.25 16.75C3.69365 16.75 0 13.0563 0 8.5Z" fill="#D13438"/>
<path d="M3.27801 10.593C3.33094 10.5978 3.40072 10.6026 3.48735 10.6074C3.57397 10.6074 3.69188 10.6074 3.84107 10.6074C4.45226 10.6074 4.90704 10.4534 5.20541 10.1454C5.5086 9.83262 5.66019 9.39709 5.66019 8.83884C5.66019 8.27097 5.51341 7.83544 5.21985 7.53225C4.92629 7.22906 4.47151 7.07747 3.85551 7.07747C3.58601 7.07747 3.39351 7.08469 3.27801 7.09913V10.593ZM6.61307 8.83884C6.61307 9.27197 6.54569 9.64975 6.41094 9.97219C6.27619 10.2898 6.08369 10.5569 5.83344 10.7735C5.58801 10.9852 5.28963 11.144 4.93832 11.2499C4.59182 11.351 4.20682 11.4015 3.78332 11.4015C3.58119 11.4015 3.3526 11.3919 3.09754 11.3726C2.84247 11.3582 2.59944 11.3245 2.36844 11.2716V6.41334C2.59944 6.36041 2.84488 6.32672 3.10476 6.31228C3.36463 6.29784 3.59563 6.29062 3.79776 6.29062C4.21644 6.29062 4.59904 6.34116 4.94554 6.44222C5.29204 6.53847 5.58801 6.69247 5.83344 6.90422C6.08369 7.11116 6.27619 7.37584 6.41094 7.69828C6.54569 8.01591 6.61307 8.39609 6.61307 8.83884ZM8.6963 6.34116C8.80217 6.52403 8.92008 6.74781 9.05002 7.0125C9.17995 7.27719 9.3123 7.55631 9.44705 7.84987C9.5818 8.13862 9.71414 8.43459 9.84408 8.73778C9.97883 9.03616 10.1015 9.31287 10.2122 9.56794C10.3229 9.31287 10.4432 9.03616 10.5732 8.73778C10.7031 8.43459 10.8355 8.13862 10.9702 7.84987C11.105 7.55631 11.2373 7.27719 11.3672 7.0125C11.4972 6.74781 11.6151 6.52403 11.721 6.34116H12.5439C12.5872 6.70691 12.6281 7.09672 12.6666 7.51059C12.7051 7.91966 12.7388 8.34075 12.7677 8.77387C12.8014 9.20219 12.8302 9.63531 12.8543 10.0732C12.8832 10.5064 12.9072 10.9299 12.9265 11.3438H12.0314C12.0121 10.7614 11.988 10.1623 11.9592 9.54628C11.9351 8.93028 11.8966 8.33353 11.8437 7.75603C11.7907 7.86672 11.7282 7.99906 11.656 8.15306C11.5838 8.30706 11.5068 8.4755 11.425 8.65837C11.3432 8.83644 11.259 9.02172 11.1723 9.21422C11.0905 9.40672 11.0087 9.59441 10.9269 9.77728C10.8499 9.95534 10.7777 10.1238 10.7103 10.2826C10.643 10.4366 10.5852 10.5689 10.5371 10.6796H9.85852C9.81039 10.5689 9.75264 10.4342 9.68527 10.2754C9.61789 10.1166 9.5433 9.94812 9.46149 9.77006C9.38449 9.58719 9.30267 9.3995 9.21605 9.207C9.13424 9.0145 9.05242 8.82922 8.97061 8.65116C8.8888 8.47309 8.8118 8.30706 8.73961 8.15306C8.66742 7.99425 8.60486 7.86191 8.55192 7.75603C8.49899 8.33353 8.45808 8.93028 8.4292 9.54628C8.40514 10.1623 8.38349 10.7614 8.36424 11.3438H7.46911C7.48836 10.9299 7.51002 10.5016 7.53408 10.0588C7.56295 9.61606 7.59183 9.17812 7.6207 8.745C7.65439 8.30706 7.69049 7.88356 7.72899 7.4745C7.76749 7.06544 7.80839 6.68766 7.8517 6.34116H8.6963Z" fill="white"/>
</svg>
