<svg width="63" height="63" viewBox="0 0 63 63" fill="none" xmlns="http://www.w3.org/2000/svg">
<path d="M0 7.875C0 3.52576 3.52576 0 7.875 0H55.125C59.4742 0 63 3.52576 63 7.875V55.125C63 59.4742 59.4742 63 55.125 63H7.875C3.52576 63 0 59.4742 0 55.125V7.875Z" fill="#E3008C"/>
<path d="M14.536 21.983C14.998 22.781 15.5125 23.7575 16.0795 24.9125C16.6465 26.0675 17.224 27.2855 17.812 28.5665C18.4 29.8265 18.9775 31.118 19.5445 32.441C20.1325 33.743 20.668 34.9505 21.151 36.0635C21.634 34.9505 22.159 33.743 22.726 32.441C23.293 31.118 23.8705 29.8265 24.4585 28.5665C25.0465 27.2855 25.624 26.0675 26.191 24.9125C26.758 23.7575 27.2725 22.781 27.7345 21.983H31.3255C31.5145 23.579 31.693 25.28 31.861 27.086C32.029 28.871 32.176 30.7085 32.302 32.5985C32.449 34.4675 32.575 36.3575 32.68 38.2685C32.806 40.1585 32.911 42.0065 32.995 43.8125H29.089C29.005 41.2715 28.9 38.657 28.774 35.969C28.669 33.281 28.501 30.677 28.27 28.157C28.039 28.64 27.766 29.2175 27.451 29.8895C27.136 30.5615 26.8 31.2965 26.443 32.0945C26.086 32.8715 25.7185 33.68 25.3405 34.52C24.9835 35.36 24.6265 36.179 24.2695 36.977C23.9335 37.754 23.6185 38.489 23.3245 39.182C23.0305 39.854 22.7785 40.4315 22.5685 40.9145H19.6075C19.3975 40.4315 19.1455 39.8435 18.8515 39.1505C18.5575 38.4575 18.232 37.7225 17.875 36.9455C17.539 36.1475 17.182 35.3285 16.804 34.4885C16.447 33.6485 16.09 32.84 15.733 32.063C15.376 31.286 15.04 30.5615 14.725 29.8895C14.41 29.1965 14.137 28.619 13.906 28.157C13.675 30.677 13.4965 33.281 13.3705 35.969C13.2655 38.657 13.171 41.2715 13.087 43.8125H9.18104C9.26504 42.0065 9.35954 40.1375 9.46454 38.2055C9.59054 36.2735 9.71654 34.3625 9.84254 32.4725C9.98954 30.5615 10.147 28.7135 10.315 26.9285C10.483 25.1435 10.6615 23.495 10.8505 21.983H14.536ZM50.6599 43.8125C50.1139 42.9725 49.4839 42.0905 48.7699 41.1665C48.0559 40.2425 47.2999 39.35 46.5019 38.489C45.7249 37.628 44.9164 36.809 44.0764 36.032C43.2364 35.255 42.4069 34.583 41.5879 34.016V43.8125H37.6189V21.983H41.5879V30.992C42.2809 30.299 43.0054 29.564 43.7614 28.787C44.5174 27.989 45.2629 27.191 45.9979 26.393C46.7539 25.574 47.4679 24.7865 48.1399 24.0305C48.8119 23.2745 49.4209 22.592 49.9669 21.983H54.7234C54.0304 22.781 53.2954 23.6105 52.5184 24.4715C51.7414 25.3325 50.9434 26.204 50.1244 27.086C49.3054 27.947 48.4759 28.808 47.6359 29.669C46.8169 30.53 46.0084 31.349 45.2104 32.126C46.0924 32.798 46.9849 33.5855 47.8879 34.4885C48.8119 35.3705 49.7149 36.326 50.5969 37.355C51.4789 38.363 52.3189 39.4235 53.1169 40.5365C53.9359 41.6285 54.6814 42.7205 55.3534 43.8125H50.6599Z" fill="white"/>
</svg>
