<svg width="28" height="28" viewBox="0 0 28 28" fill="none" xmlns="http://www.w3.org/2000/svg">
<circle cx="14" cy="14" r="14" fill="#F0DAFB"/>
<g clip-path="url(#clip0_5538_59597)">
<path d="M0.5625 26.4375V9.5625V26.4375Z" fill="#592474"/>
<path d="M0.5625 26.4375V9.5625" stroke="#592474" stroke-width="1.5" stroke-linecap="round" stroke-linejoin="round"/>
<path d="M0.5625 22.2811L2.928 21.5536C3.90788 21.2519 4.94086 21.1627 5.95794 21.2921C6.97502 21.4214 7.9528 21.7662 8.826 22.3036C9.67812 22.8288 10.6303 23.1708 11.6218 23.3079C12.6133 23.4451 13.6226 23.3743 14.5853 23.1001L16.8255 22.4596C17.0018 22.4092 17.157 22.3027 17.2674 22.1563C17.3778 22.0099 17.4375 21.8315 17.4375 21.6481V12.8528C17.4374 12.7222 17.407 12.5935 17.3487 12.4767C17.2904 12.3598 17.2059 12.2581 17.1017 12.1795C16.9974 12.1008 16.8764 12.0474 16.7481 12.0235C16.6197 11.9995 16.4876 12.0056 16.362 12.0413L14.5853 12.5491C13.6229 12.8239 12.6138 12.8955 11.6223 12.7591C10.6307 12.6228 9.67845 12.2815 8.826 11.7571C7.9528 11.2197 6.97502 10.8749 5.95794 10.7456C4.94086 10.6162 3.90788 10.7054 2.928 11.0071L0.5625 11.7338" stroke="#592474" stroke-width="1.5" stroke-linecap="round" stroke-linejoin="round"/>
</g>
<defs>
<clipPath id="clip0_5538_59597">
<rect width="18" height="18" fill="white" transform="translate(0 9)"/>
</clipPath>
</defs>
</svg>
