<svg width="808" height="85" viewBox="0 0 808 85" fill="none" xmlns="http://www.w3.org/2000/svg">
<g opacity="0.1">
<mask id="mask0_10883_231035" style="mask-type:alpha" maskUnits="userSpaceOnUse" x="284" y="0" width="85" height="85">
<rect x="284.578" y="85" width="84.3323" height="84.3323" transform="rotate(-90 284.578 85)" fill="#FFBB9C"/>
</mask>
<g mask="url(#mask0_10883_231035)">
<rect x="272.459" y="65.9648" width="3.83153" height="39.2581" transform="rotate(-45 272.459 65.9648)" fill="#80ACFF"/>
<rect x="266.16" y="69.8418" width="3.83153" height="39.2581" transform="rotate(-45 266.16 69.8418)" fill="#80ACFF"/>
<rect x="270.812" y="53.6543" width="3.83153" height="65.8522" transform="rotate(-45 270.812 53.6543)" fill="#80ACFF"/>
<rect x="274.883" y="47.1602" width="3.83153" height="65.8522" transform="rotate(-45 274.883 47.1602)" fill="#80ACFF"/>
<rect x="269.588" y="31.6875" width="3.83153" height="95.9119" transform="rotate(-45 269.588 31.6875)" fill="#80ACFF"/>
<rect x="274.883" y="25.9062" width="3.83153" height="95.9119" transform="rotate(-45 274.883 25.9062)" fill="#80ACFF"/>
<rect x="271.959" y="12.3184" width="3.83153" height="120.637" transform="rotate(-45 271.959 12.3184)" fill="#80ACFF"/>
<rect x="274.514" y="3.68945" width="3.83153" height="125.958" transform="rotate(-45 274.514 3.68945)" fill="#80ACFF"/>
<rect x="280.215" y="-1.15625" width="3.83153" height="125.958" transform="rotate(-45 280.215 -1.15625)" fill="#80ACFF"/>
<rect x="284.576" y="-7.45703" width="3.83153" height="125.958" transform="rotate(-45 284.576 -7.45703)" fill="#80ACFF"/>
<rect x="287.484" y="-15.2129" width="3.83153" height="125.958" transform="rotate(-45 287.484 -15.2129)" fill="#80ACFF"/>
<rect x="292.332" y="-21.998" width="3.83153" height="125.958" transform="rotate(-45 292.332 -21.998)" fill="#80ACFF"/>
<rect x="296.693" y="-27.8145" width="3.83153" height="125.958" transform="rotate(-45 296.693 -27.8145)" fill="#80ACFF"/>
<rect x="302.994" y="-32.6621" width="3.83153" height="125.958" transform="rotate(-45 302.994 -32.6621)" fill="#80ACFF"/>
<rect x="310.264" y="-37.0234" width="3.83153" height="125.958" transform="rotate(-45 310.264 -37.0234)" fill="#80ACFF"/>
<rect x="316.08" y="-42.3535" width="3.83153" height="125.958" transform="rotate(-45 316.08 -42.3535)" fill="#80ACFF"/>
</g>
<mask id="mask1_10883_231035" style="mask-type:alpha" maskUnits="userSpaceOnUse" x="721" y="0" width="86" height="85">
<rect x="721.955" y="85" width="84.3323" height="84.3323" transform="rotate(-90 721.955 85)" fill="#FFBB9C"/>
</mask>
<g mask="url(#mask1_10883_231035)">
<rect x="709.838" y="65.9648" width="3.83153" height="39.2581" transform="rotate(-45 709.838 65.9648)" fill="#80ACFF"/>
<rect x="703.537" y="69.8418" width="3.83153" height="39.2581" transform="rotate(-45 703.537 69.8418)" fill="#80ACFF"/>
<rect x="708.189" y="53.6543" width="3.83153" height="65.8522" transform="rotate(-45 708.189 53.6543)" fill="#80ACFF"/>
<rect x="712.262" y="47.1602" width="3.83153" height="65.8522" transform="rotate(-45 712.262 47.1602)" fill="#80ACFF"/>
<rect x="706.965" y="31.6875" width="3.83153" height="95.9119" transform="rotate(-45 706.965 31.6875)" fill="#80ACFF"/>
<rect x="712.262" y="25.9062" width="3.83153" height="95.9119" transform="rotate(-45 712.262 25.9062)" fill="#80ACFF"/>
<rect x="709.334" y="12.3184" width="3.83153" height="120.637" transform="rotate(-45 709.334 12.3184)" fill="#80ACFF"/>
<rect x="711.891" y="3.68945" width="3.83153" height="125.958" transform="rotate(-45 711.891 3.68945)" fill="#80ACFF"/>
<rect x="717.59" y="-1.15625" width="3.83153" height="125.958" transform="rotate(-45 717.59 -1.15625)" fill="#80ACFF"/>
<rect x="721.955" y="-7.45703" width="3.83153" height="125.958" transform="rotate(-45 721.955 -7.45703)" fill="#80ACFF"/>
<rect x="724.861" y="-15.2129" width="3.83153" height="125.958" transform="rotate(-45 724.861 -15.2129)" fill="#80ACFF"/>
<rect x="729.709" y="-21.998" width="3.83153" height="125.958" transform="rotate(-45 729.709 -21.998)" fill="#80ACFF"/>
<rect x="734.07" y="-27.8145" width="3.83153" height="125.958" transform="rotate(-45 734.07 -27.8145)" fill="#80ACFF"/>
<rect x="740.371" y="-32.6621" width="3.83153" height="125.958" transform="rotate(-45 740.371 -32.6621)" fill="#80ACFF"/>
<rect x="747.641" y="-37.0234" width="3.83153" height="125.958" transform="rotate(-45 747.641 -37.0234)" fill="#80ACFF"/>
<rect x="753.457" y="-42.3535" width="3.83153" height="125.958" transform="rotate(-45 753.457 -42.3535)" fill="#80ACFF"/>
</g>
<mask id="mask2_10883_231035" style="mask-type:alpha" maskUnits="userSpaceOnUse" x="132" y="0" width="85" height="85">
<rect x="132.408" y="84.6562" width="84.3323" height="84.3323" transform="rotate(-90 132.408 84.6562)" fill="#FFBB9C"/>
</mask>
<g mask="url(#mask2_10883_231035)">
<rect x="120.291" y="65.6211" width="3.83153" height="39.2581" transform="rotate(-45 120.291 65.6211)" fill="#80ACFF"/>
<rect x="113.99" y="69.4961" width="3.83153" height="39.2581" transform="rotate(-45 113.99 69.4961)" fill="#80ACFF"/>
<rect x="118.643" y="53.3105" width="3.83153" height="65.8522" transform="rotate(-45 118.643 53.3105)" fill="#80ACFF"/>
<rect x="122.715" y="46.8164" width="3.83153" height="65.8522" transform="rotate(-45 122.715 46.8164)" fill="#80ACFF"/>
<rect x="117.418" y="31.3418" width="3.83153" height="95.9119" transform="rotate(-45 117.418 31.3418)" fill="#80ACFF"/>
<rect x="122.715" y="25.5605" width="3.83153" height="95.9119" transform="rotate(-45 122.715 25.5605)" fill="#80ACFF"/>
<rect x="119.791" y="11.9727" width="3.83153" height="120.637" transform="rotate(-45 119.791 11.9727)" fill="#80ACFF"/>
<rect x="122.344" y="3.3457" width="3.83153" height="125.958" transform="rotate(-45 122.344 3.3457)" fill="#80ACFF"/>
<rect x="128.047" y="-1.5" width="3.83153" height="125.958" transform="rotate(-45 128.047 -1.5)" fill="#80ACFF"/>
<rect x="132.408" y="-7.80078" width="3.83153" height="125.958" transform="rotate(-45 132.408 -7.80078)" fill="#80ACFF"/>
<rect x="135.314" y="-15.5566" width="3.83153" height="125.958" transform="rotate(-45 135.314 -15.5566)" fill="#80ACFF"/>
<rect x="140.162" y="-22.3438" width="3.83153" height="125.958" transform="rotate(-45 140.162 -22.3438)" fill="#80ACFF"/>
<rect x="144.523" y="-28.1602" width="3.83153" height="125.958" transform="rotate(-45 144.523 -28.1602)" fill="#80ACFF"/>
<rect x="150.824" y="-33.0059" width="3.83153" height="125.958" transform="rotate(-45 150.824 -33.0059)" fill="#80ACFF"/>
<rect x="158.094" y="-37.3672" width="3.83153" height="125.958" transform="rotate(-45 158.094 -37.3672)" fill="#80ACFF"/>
<rect x="163.91" y="-42.6973" width="3.83153" height="125.958" transform="rotate(-45 163.91 -42.6973)" fill="#80ACFF"/>
</g>
<mask id="mask3_10883_231035" style="mask-type:alpha" maskUnits="userSpaceOnUse" x="569" y="0" width="86" height="85">
<rect x="569.783" y="84.6562" width="84.3323" height="84.3323" transform="rotate(-90 569.783 84.6562)" fill="#FFBB9C"/>
</mask>
<g mask="url(#mask3_10883_231035)">
<rect x="557.664" y="65.6211" width="3.83153" height="39.2581" transform="rotate(-45 557.664 65.6211)" fill="#80ACFF"/>
<rect x="551.363" y="69.4961" width="3.83153" height="39.2581" transform="rotate(-45 551.363 69.4961)" fill="#80ACFF"/>
<rect x="556.018" y="53.3105" width="3.83153" height="65.8522" transform="rotate(-45 556.018 53.3105)" fill="#80ACFF"/>
<rect x="560.088" y="46.8164" width="3.83153" height="65.8522" transform="rotate(-45 560.088 46.8164)" fill="#80ACFF"/>
<rect x="554.793" y="31.3418" width="3.83153" height="95.9119" transform="rotate(-45 554.793 31.3418)" fill="#80ACFF"/>
<rect x="560.088" y="25.5605" width="3.83153" height="95.9119" transform="rotate(-45 560.088 25.5605)" fill="#80ACFF"/>
<rect x="557.162" y="11.9727" width="3.83153" height="120.637" transform="rotate(-45 557.162 11.9727)" fill="#80ACFF"/>
<rect x="559.719" y="3.3457" width="3.83153" height="125.958" transform="rotate(-45 559.719 3.3457)" fill="#80ACFF"/>
<rect x="565.418" y="-1.5" width="3.83153" height="125.958" transform="rotate(-45 565.418 -1.5)" fill="#80ACFF"/>
<rect x="569.781" y="-7.80078" width="3.83153" height="125.958" transform="rotate(-45 569.781 -7.80078)" fill="#80ACFF"/>
<rect x="572.689" y="-15.5566" width="3.83153" height="125.958" transform="rotate(-45 572.689 -15.5566)" fill="#80ACFF"/>
<rect x="577.537" y="-22.3438" width="3.83153" height="125.958" transform="rotate(-45 577.537 -22.3438)" fill="#80ACFF"/>
<rect x="581.898" y="-28.1602" width="3.83153" height="125.958" transform="rotate(-45 581.898 -28.1602)" fill="#80ACFF"/>
<rect x="588.199" y="-33.0059" width="3.83153" height="125.958" transform="rotate(-45 588.199 -33.0059)" fill="#80ACFF"/>
<rect x="595.469" y="-37.3672" width="3.83153" height="125.958" transform="rotate(-45 595.469 -37.3672)" fill="#80ACFF"/>
<rect x="601.285" y="-42.6973" width="3.83153" height="125.958" transform="rotate(-45 601.285 -42.6973)" fill="#80ACFF"/>
</g>
<rect x="64.5859" y="16.8516" width="67.8536" height="67.8536" transform="rotate(-90 64.5859 16.8516)" fill="#272833"/>
<rect x="501.961" y="16.8535" width="67.8536" height="67.8536" transform="rotate(-90 501.961 16.8535)" fill="#272833"/>
<rect x="-3.26953" y="84.707" width="67.8536" height="67.8536" transform="rotate(-90 -3.26953 84.707)" fill="#0050C8"/>
<rect x="434.107" y="84.709" width="67.8536" height="67.8536" transform="rotate(-90 434.107 84.709)" fill="#0050C8"/>
<rect x="368.678" y="16.8535" width="67.8536" height="67.8536" transform="rotate(-90 368.678 16.8535)" fill="#0050C8"/>
<rect x="806.055" y="16.8535" width="67.8536" height="67.8536" transform="rotate(-90 806.055 16.8535)" fill="#0050C8"/>
<rect x="216.725" y="16.8516" width="67.8536" height="67.8536" transform="rotate(-90 216.725 16.8516)" fill="white"/>
<rect x="654.102" y="16.8535" width="67.8536" height="67.8536" transform="rotate(-90 654.102 16.8535)" fill="white"/>
<circle opacity="0.5" cx="64.4513" cy="16.2284" r="22.7794" transform="rotate(-90 64.4513 16.2284)" fill="white"/>
<circle opacity="0.5" cx="501.83" cy="16.2284" r="22.7794" transform="rotate(-90 501.83 16.2284)" fill="white"/>
</g>
</svg>
