<svg width="59" height="63" viewBox="0 0 59 63" fill="none" xmlns="http://www.w3.org/2000/svg">
<path fill-rule="evenodd" clip-rule="evenodd" d="M43.5872 9.83691H10.6031C10.0187 9.83691 9.54492 10.3107 9.54492 10.8951V59.5698C9.54492 60.7386 10.4924 61.6861 11.6612 61.6861H51.8708C53.0396 61.6861 53.9871 60.7386 53.9871 59.5698V20.2368C53.9871 19.6756 53.7641 19.1373 53.3673 18.7404L45.0836 10.4568C44.6867 10.0599 44.1485 9.83691 43.5872 9.83691ZM42.3475 22.5347V11.9532L52.3999 22.5347H42.3475ZM50.8127 40.5232V37.3487H12.7194V40.5232H50.8127ZM40.2312 45.8139H12.7194V42.6395H40.2312V45.8139ZM40.2312 51.1047V47.9302H12.7194V51.1047H40.2312ZM50.8127 35.2325H12.7194V32.058H50.8127V35.2325ZM50.8127 29.9417V26.7673H12.7194V29.9417H50.8127Z" fill="#A7A9BC"/>
<path d="M9.36472 19.1829C14.5259 19.1829 18.7099 14.9588 18.7099 9.74817C18.7099 4.53753 14.5259 0.313477 9.36472 0.313477C4.20357 0.313477 0.0195312 4.53753 0.0195312 9.74817C0.0195312 14.9588 4.20357 19.1829 9.36472 19.1829Z" fill="#E7E7ED"/>
<path d="M3.47363 9.71352C3.47363 11.2819 4.09077 12.7861 5.18929 13.8951C6.2878 15.0042 7.77771 15.6272 9.33124 15.6272C10.8848 15.6272 12.3747 15.0042 13.4732 13.8951C14.5717 12.7861 15.1888 11.2819 15.1888 9.71352C15.1888 8.14511 14.5717 6.64093 13.4732 5.53189C12.3747 4.42286 10.8848 3.7998 9.33124 3.7998C7.77771 3.7998 6.2878 4.42286 5.18929 5.53189C4.09077 6.64093 3.47363 8.14511 3.47363 9.71352Z" fill="#E7E7ED" stroke="#A7A9BC" stroke-width="0.716725" stroke-linecap="round" stroke-linejoin="round"/>
<path d="M7.13477 7.49512L11.528 11.9304L7.13477 7.49512Z" fill="#E7E7ED"/>
<path d="M7.13477 7.49512L11.528 11.9304" stroke="#A7A9BC" stroke-width="0.716725" stroke-linecap="round" stroke-linejoin="round"/>
<path d="M11.5283 7.49512L7.13512 11.9304L11.5283 7.49512Z" fill="#E7E7ED"/>
<path d="M11.5283 7.49512L7.13512 11.9304" stroke="#A7A9BC" stroke-width="0.716725" stroke-linecap="round" stroke-linejoin="round"/>
</svg>
