<svg width="24" height="24" viewBox="0 0 24 24" fill="none" xmlns="http://www.w3.org/2000/svg">
<path d="M11.5326 1.57107C11.5684 1.47588 11.6324 1.39386 11.716 1.33597C11.7996 1.27808 11.8989 1.24707 12.0006 1.24707C12.1023 1.24707 12.2016 1.27808 12.2852 1.33597C12.3688 1.39386 12.4328 1.47588 12.4686 1.57107L14.9996 8.74707H22.1476C22.2498 8.74706 22.3496 8.77838 22.4335 8.83681C22.5173 8.89524 22.5813 8.97796 22.6167 9.07385C22.6521 9.16973 22.6573 9.27417 22.6315 9.37308C22.6058 9.472 22.5503 9.56064 22.4726 9.62707L16.4996 14.5791L18.9996 22.0891C19.0331 22.1897 19.0336 22.2984 19.0013 22.3994C18.9689 22.5003 18.9053 22.5884 18.8196 22.6509C18.7339 22.7133 18.6305 22.7469 18.5245 22.7467C18.4184 22.7466 18.3152 22.7127 18.2296 22.6501L11.9996 18.0791L5.76662 22.6501C5.68102 22.7115 5.5782 22.7444 5.47282 22.7439C5.36745 22.7434 5.26492 22.7097 5.17987 22.6475C5.09482 22.5852 5.0316 22.4978 4.99923 22.3975C4.96686 22.2972 4.967 22.1893 4.99962 22.0891L7.49962 14.5791L1.52562 9.62707C1.44794 9.56064 1.39248 9.472 1.36672 9.37308C1.34096 9.27417 1.34614 9.16973 1.38155 9.07385C1.41696 8.97796 1.48091 8.89524 1.56478 8.83681C1.64865 8.77838 1.74841 8.74706 1.85062 8.74707H8.99962L11.5326 1.57107Z" stroke="#8A8886" stroke-linecap="round" stroke-linejoin="round"/>
</svg>
