<svg width="16" height="17" viewBox="0 0 16 17" fill="none" xmlns="http://www.w3.org/2000/svg">
<g clip-path="url(#clip0_5264_73059)">
<mask id="path-1-inside-1_5264_73059" fill="white">
<path d="M8.64349 0.785202C9.0745 0.891118 9.27097 1.20729 9.41697 1.60763C9.93923 3.04066 10.4953 4.45749 11.0389 5.88104C11.4388 6.92953 11.5743 7.99699 11.4831 9.10832C11.4462 9.55491 11.44 10.0039 11.4163 10.452C11.4127 10.4783 11.4171 10.5051 11.429 10.5287C11.4408 10.5524 11.4596 10.5717 11.4827 10.584C11.8077 10.7971 12.1327 11.0105 12.4534 11.231C12.5311 11.2832 12.5606 11.2432 12.6087 11.1986C12.9155 10.9065 13.2708 10.8164 13.6661 10.9686C14.3126 11.2168 14.4982 12.0669 14.0186 12.5779C13.8416 12.7664 13.647 12.9379 13.4595 13.1161C12.5747 13.9564 11.6897 14.7966 10.8043 15.6368C10.5236 15.9024 10.1955 15.9925 9.82585 15.8806C9.68365 15.8377 9.55301 15.7622 9.44396 15.6598C9.33491 15.5575 9.25035 15.4311 9.19677 15.2903C9.14319 15.1495 9.12202 14.9981 9.13489 14.8477C9.14775 14.6973 9.1943 14.5519 9.27097 14.4227C9.31485 14.3464 9.32572 14.3093 9.24302 14.2508C8.55652 13.7603 8.2121 13.3315 7.87079 12.5577C7.84711 12.5534 7.83856 12.5672 7.83196 12.5874C7.55666 13.2865 7.08877 13.8248 6.48498 14.2472C6.41508 14.2962 6.39062 14.3263 6.44265 14.4156C6.56685 14.6209 6.61302 14.8653 6.57247 15.1028C6.53192 15.3403 6.40744 15.5546 6.22249 15.7052C5.8342 16.0213 5.30224 15.998 4.92443 15.6411C4.21101 14.9677 3.49914 14.2924 2.78882 13.6153C2.43936 13.2825 2.08485 12.9529 1.74043 12.615C1.45348 12.3336 1.36456 11.9847 1.47989 11.6001C1.59521 11.2156 1.86818 10.9808 2.25647 10.9121C2.58341 10.8548 2.86958 10.9579 3.10528 11.1927C3.17284 11.2602 3.21788 11.267 3.29709 11.212C3.59724 11.0049 3.90089 10.8038 4.20686 10.6058C4.2402 10.5882 4.26727 10.5605 4.28428 10.5265C4.30128 10.4924 4.30734 10.4538 4.30161 10.4161C4.26744 9.73236 4.24531 9.04746 4.21036 8.36375C4.16648 7.50891 4.38004 6.70663 4.67243 5.91898C4.78891 5.61111 4.8988 5.30245 5.01296 4.99458C5.09062 4.78077 5.2405 4.69225 5.41018 4.75469C5.57987 4.81713 5.63656 4.99182 5.5589 5.1997C5.37329 5.69529 5.19313 6.19286 5.02461 6.69477C4.84404 7.23709 4.76579 7.80925 4.79396 8.38113C4.82386 9.09014 4.8491 9.79915 4.89259 10.5074C4.90734 10.7445 4.84677 10.9053 4.63593 11.0302C4.32529 11.2156 4.02864 11.4322 3.72266 11.6305C3.65161 11.6768 3.63957 11.7005 3.70752 11.7645C4.43233 12.448 5.15456 13.133 5.87419 13.8196C5.94253 13.8852 5.98563 13.8745 6.05552 13.8279C7.00606 13.1956 7.49221 12.3044 7.52249 11.1488C7.5388 10.5145 7.45416 9.88965 7.35592 9.26799C7.26117 8.66766 7.27399 8.07287 7.3466 7.47294C7.41921 6.87301 7.47435 6.26874 7.53764 5.66644C7.55006 5.5459 7.5225 5.44117 7.42387 5.36489C7.30738 5.27399 7.18856 5.28585 7.09188 5.40244C7.0234 5.49174 6.96952 5.59169 6.93229 5.69845C6.64651 6.40983 6.39683 7.1303 6.22366 7.87843C6.21565 7.91691 6.20554 7.95491 6.19337 7.99225C6.1707 8.06319 6.12225 8.12263 6.05793 8.15841C5.99362 8.19418 5.91831 8.2036 5.8474 8.18472C5.8107 8.17618 5.77605 8.16029 5.74546 8.13796C5.71487 8.11563 5.68897 8.08731 5.66926 8.05467C5.64956 8.02203 5.63645 7.98571 5.6307 7.94785C5.62495 7.90999 5.62668 7.87134 5.63578 7.83416C5.83677 6.96831 6.11517 6.12299 6.4675 5.30877C6.51992 5.18705 6.58399 5.06611 6.68728 4.98233C6.79755 4.89104 6.83716 4.77564 6.86706 4.64364C7.06819 3.75244 7.2736 2.86242 7.47551 1.97123C7.50347 1.84713 7.53181 1.72185 7.49027 1.59262C7.45144 1.47405 7.37766 1.39501 7.25729 1.37762C7.20418 1.36857 7.14962 1.37607 7.10077 1.39913C7.05192 1.42219 7.01106 1.45974 6.98354 1.50686C6.95026 1.56079 6.92267 1.61815 6.90123 1.67798C6.77697 2.00284 6.65854 2.33008 6.53002 2.65296C6.46401 2.81895 6.3149 2.88298 6.16502 2.82725C6.01514 2.77153 5.92972 2.61977 5.98291 2.47156C6.12775 2.07042 6.27607 1.67047 6.43993 1.27763C6.52963 1.06145 6.7032 0.917597 6.92219 0.834208C6.9552 0.821561 6.99985 0.82749 7.0181 0.78125H7.36757C7.53375 0.845669 7.70538 0.899813 7.8308 1.04169C7.83442 1.04653 7.83909 1.05044 7.84445 1.05314C7.8498 1.05584 7.85569 1.05724 7.86167 1.05724C7.86764 1.05724 7.87354 1.05584 7.87889 1.05314C7.88424 1.05044 7.88891 1.04653 7.89254 1.04169C8.00242 0.91404 8.16434 0.868196 8.29714 0.782041L8.64349 0.785202ZM10.903 8.97988C10.9725 8.22898 10.9305 7.29549 10.5954 6.37782C10.013 4.78591 9.38436 3.21219 8.7957 1.62305C8.77884 1.57712 8.75542 1.53398 8.7262 1.495C8.69684 1.45218 8.65617 1.4187 8.6089 1.39842C8.56162 1.37813 8.50967 1.37188 8.45906 1.38039C8.40604 1.38833 8.35645 1.41181 8.31632 1.44795C8.2762 1.48409 8.24727 1.53133 8.23307 1.58392C8.20269 1.68316 8.20094 1.78919 8.22802 1.88942C8.44003 2.81816 8.651 3.74717 8.86094 4.67644C8.87978 4.79221 8.9374 4.89777 9.02402 4.97522C9.12447 5.06879 9.20257 5.18451 9.25234 5.31352C9.60443 6.12752 9.8827 6.97256 10.0837 7.83812C10.0929 7.87909 10.0935 7.9216 10.0853 7.96281C10.0771 8.00402 10.0604 8.04298 10.0363 8.0771C10.0121 8.11121 9.9811 8.13969 9.94529 8.16063C9.90947 8.18157 9.86968 8.1945 9.82856 8.19855C9.67713 8.21554 9.55676 8.11318 9.509 7.9219C9.32521 7.16865 9.08559 6.43065 8.79221 5.71426C8.7533 5.60295 8.69748 5.49853 8.6268 5.40481C8.5305 5.28941 8.41246 5.27676 8.29481 5.36806C8.19657 5.44433 8.169 5.54906 8.18181 5.6696C8.24511 6.2715 8.2983 6.87499 8.37286 7.47571C8.44741 8.07643 8.4575 8.67003 8.36315 9.27036C8.25714 9.94537 8.16201 10.6236 8.20434 11.3128C8.27229 12.417 8.78173 13.2493 9.68606 13.8461C9.7443 13.8856 9.78003 13.8856 9.83284 13.8338C10.5576 13.143 11.2834 12.4544 12.01 11.7681C12.0923 11.689 12.0546 11.6693 11.9879 11.6258C11.6586 11.41 11.3332 11.1887 11.0035 10.9741C10.877 10.8919 10.8164 10.786 10.8245 10.6311C10.8502 10.1489 10.8707 9.66675 10.903 8.97988ZM2.37529 11.4914C2.30214 11.4967 2.23203 11.5233 2.1733 11.568C2.11458 11.6127 2.06972 11.6737 2.04407 11.7436C1.97729 11.9088 2.01456 12.0704 2.16056 12.2107C2.60529 12.6357 3.05105 13.0594 3.49784 13.4817C4.09322 14.0461 4.6877 14.6108 5.28127 15.176C5.40086 15.2902 5.53055 15.3653 5.69907 15.3222C5.76838 15.3072 5.83216 15.2726 5.88315 15.2225C5.93415 15.1724 5.97033 15.1088 5.98757 15.0388C6.0094 14.9651 6.00955 14.8864 5.98803 14.8125C5.96651 14.7387 5.92424 14.6728 5.86643 14.6231C5.58375 14.3535 5.30055 14.0847 5.01684 13.8165C4.25967 13.0972 3.5025 12.3778 2.74533 11.6582C2.64826 11.5653 2.54614 11.4871 2.37529 11.4914ZM10.0887 15.3341C10.258 15.3341 10.3582 15.2503 10.4553 15.1578C11.1413 14.5054 11.828 13.8535 12.5155 13.2019L13.5659 12.2028C13.6235 12.153 13.6659 12.0873 13.6878 12.0137C13.7097 11.94 13.7102 11.8614 13.6894 11.7874C13.6721 11.7149 13.6344 11.649 13.581 11.5979C13.5275 11.5467 13.4606 11.5125 13.3884 11.4993C13.2187 11.4598 13.0922 11.5436 12.9733 11.6574C11.9583 12.6228 10.9427 13.5875 9.92641 14.5515C9.88264 14.5904 9.84164 14.6324 9.80371 14.6772C9.75424 14.7355 9.72312 14.8075 9.71439 14.884C9.70567 14.9604 9.71974 15.0378 9.75479 15.106C9.78375 15.1721 9.83044 15.2286 9.88951 15.269C9.94858 15.3093 10.0176 15.3319 10.0887 15.3341ZM7.87545 2.96399H7.84594C7.71651 3.52756 7.58708 4.09113 7.45765 4.6547C7.44445 4.7124 7.45571 4.74204 7.51861 4.75864C7.64714 4.79223 7.74654 4.93016 7.85642 4.93846C7.96631 4.94676 8.06494 4.79856 8.19269 4.7618C8.19735 4.7618 8.20162 4.75667 8.20589 4.75627C8.27462 4.75034 8.27772 4.70805 8.2653 4.65273C8.13328 4.09021 8.00268 3.5273 7.87351 2.96399H7.87545Z"/>
</mask>
<path d="M8.64349 0.785202C9.0745 0.891118 9.27097 1.20729 9.41697 1.60763C9.93923 3.04066 10.4953 4.45749 11.0389 5.88104C11.4388 6.92953 11.5743 7.99699 11.4831 9.10832C11.4462 9.55491 11.44 10.0039 11.4163 10.452C11.4127 10.4783 11.4171 10.5051 11.429 10.5287C11.4408 10.5524 11.4596 10.5717 11.4827 10.584C11.8077 10.7971 12.1327 11.0105 12.4534 11.231C12.5311 11.2832 12.5606 11.2432 12.6087 11.1986C12.9155 10.9065 13.2708 10.8164 13.6661 10.9686C14.3126 11.2168 14.4982 12.0669 14.0186 12.5779C13.8416 12.7664 13.647 12.9379 13.4595 13.1161C12.5747 13.9564 11.6897 14.7966 10.8043 15.6368C10.5236 15.9024 10.1955 15.9925 9.82585 15.8806C9.68365 15.8377 9.55301 15.7622 9.44396 15.6598C9.33491 15.5575 9.25035 15.4311 9.19677 15.2903C9.14319 15.1495 9.12202 14.9981 9.13489 14.8477C9.14775 14.6973 9.1943 14.5519 9.27097 14.4227C9.31485 14.3464 9.32572 14.3093 9.24302 14.2508C8.55652 13.7603 8.2121 13.3315 7.87079 12.5577C7.84711 12.5534 7.83856 12.5672 7.83196 12.5874C7.55666 13.2865 7.08877 13.8248 6.48498 14.2472C6.41508 14.2962 6.39062 14.3263 6.44265 14.4156C6.56685 14.6209 6.61302 14.8653 6.57247 15.1028C6.53192 15.3403 6.40744 15.5546 6.22249 15.7052C5.8342 16.0213 5.30224 15.998 4.92443 15.6411C4.21101 14.9677 3.49914 14.2924 2.78882 13.6153C2.43936 13.2825 2.08485 12.9529 1.74043 12.615C1.45348 12.3336 1.36456 11.9847 1.47989 11.6001C1.59521 11.2156 1.86818 10.9808 2.25647 10.9121C2.58341 10.8548 2.86958 10.9579 3.10528 11.1927C3.17284 11.2602 3.21788 11.267 3.29709 11.212C3.59724 11.0049 3.90089 10.8038 4.20686 10.6058C4.2402 10.5882 4.26727 10.5605 4.28428 10.5265C4.30128 10.4924 4.30734 10.4538 4.30161 10.4161C4.26744 9.73236 4.24531 9.04746 4.21036 8.36375C4.16648 7.50891 4.38004 6.70663 4.67243 5.91898C4.78891 5.61111 4.8988 5.30245 5.01296 4.99458C5.09062 4.78077 5.2405 4.69225 5.41018 4.75469C5.57987 4.81713 5.63656 4.99182 5.5589 5.1997C5.37329 5.69529 5.19313 6.19286 5.02461 6.69477C4.84404 7.23709 4.76579 7.80925 4.79396 8.38113C4.82386 9.09014 4.8491 9.79915 4.89259 10.5074C4.90734 10.7445 4.84677 10.9053 4.63593 11.0302C4.32529 11.2156 4.02864 11.4322 3.72266 11.6305C3.65161 11.6768 3.63957 11.7005 3.70752 11.7645C4.43233 12.448 5.15456 13.133 5.87419 13.8196C5.94253 13.8852 5.98563 13.8745 6.05552 13.8279C7.00606 13.1956 7.49221 12.3044 7.52249 11.1488C7.5388 10.5145 7.45416 9.88965 7.35592 9.26799C7.26117 8.66766 7.27399 8.07287 7.3466 7.47294C7.41921 6.87301 7.47435 6.26874 7.53764 5.66644C7.55006 5.5459 7.5225 5.44117 7.42387 5.36489C7.30738 5.27399 7.18856 5.28585 7.09188 5.40244C7.0234 5.49174 6.96952 5.59169 6.93229 5.69845C6.64651 6.40983 6.39683 7.1303 6.22366 7.87843C6.21565 7.91691 6.20554 7.95491 6.19337 7.99225C6.1707 8.06319 6.12225 8.12263 6.05793 8.15841C5.99362 8.19418 5.91831 8.2036 5.8474 8.18472C5.8107 8.17618 5.77605 8.16029 5.74546 8.13796C5.71487 8.11563 5.68897 8.08731 5.66926 8.05467C5.64956 8.02203 5.63645 7.98571 5.6307 7.94785C5.62495 7.90999 5.62668 7.87134 5.63578 7.83416C5.83677 6.96831 6.11517 6.12299 6.4675 5.30877C6.51992 5.18705 6.58399 5.06611 6.68728 4.98233C6.79755 4.89104 6.83716 4.77564 6.86706 4.64364C7.06819 3.75244 7.2736 2.86242 7.47551 1.97123C7.50347 1.84713 7.53181 1.72185 7.49027 1.59262C7.45144 1.47405 7.37766 1.39501 7.25729 1.37762C7.20418 1.36857 7.14962 1.37607 7.10077 1.39913C7.05192 1.42219 7.01106 1.45974 6.98354 1.50686C6.95026 1.56079 6.92267 1.61815 6.90123 1.67798C6.77697 2.00284 6.65854 2.33008 6.53002 2.65296C6.46401 2.81895 6.3149 2.88298 6.16502 2.82725C6.01514 2.77153 5.92972 2.61977 5.98291 2.47156C6.12775 2.07042 6.27607 1.67047 6.43993 1.27763C6.52963 1.06145 6.7032 0.917597 6.92219 0.834208C6.9552 0.821561 6.99985 0.82749 7.0181 0.78125H7.36757C7.53375 0.845669 7.70538 0.899813 7.8308 1.04169C7.83442 1.04653 7.83909 1.05044 7.84445 1.05314C7.8498 1.05584 7.85569 1.05724 7.86167 1.05724C7.86764 1.05724 7.87354 1.05584 7.87889 1.05314C7.88424 1.05044 7.88891 1.04653 7.89254 1.04169C8.00242 0.91404 8.16434 0.868196 8.29714 0.782041L8.64349 0.785202ZM10.903 8.97988C10.9725 8.22898 10.9305 7.29549 10.5954 6.37782C10.013 4.78591 9.38436 3.21219 8.7957 1.62305C8.77884 1.57712 8.75542 1.53398 8.7262 1.495C8.69684 1.45218 8.65617 1.4187 8.6089 1.39842C8.56162 1.37813 8.50967 1.37188 8.45906 1.38039C8.40604 1.38833 8.35645 1.41181 8.31632 1.44795C8.2762 1.48409 8.24727 1.53133 8.23307 1.58392C8.20269 1.68316 8.20094 1.78919 8.22802 1.88942C8.44003 2.81816 8.651 3.74717 8.86094 4.67644C8.87978 4.79221 8.9374 4.89777 9.02402 4.97522C9.12447 5.06879 9.20257 5.18451 9.25234 5.31352C9.60443 6.12752 9.8827 6.97256 10.0837 7.83812C10.0929 7.87909 10.0935 7.9216 10.0853 7.96281C10.0771 8.00402 10.0604 8.04298 10.0363 8.0771C10.0121 8.11121 9.9811 8.13969 9.94529 8.16063C9.90947 8.18157 9.86968 8.1945 9.82856 8.19855C9.67713 8.21554 9.55676 8.11318 9.509 7.9219C9.32521 7.16865 9.08559 6.43065 8.79221 5.71426C8.7533 5.60295 8.69748 5.49853 8.6268 5.40481C8.5305 5.28941 8.41246 5.27676 8.29481 5.36806C8.19657 5.44433 8.169 5.54906 8.18181 5.6696C8.24511 6.2715 8.2983 6.87499 8.37286 7.47571C8.44741 8.07643 8.4575 8.67003 8.36315 9.27036C8.25714 9.94537 8.16201 10.6236 8.20434 11.3128C8.27229 12.417 8.78173 13.2493 9.68606 13.8461C9.7443 13.8856 9.78003 13.8856 9.83284 13.8338C10.5576 13.143 11.2834 12.4544 12.01 11.7681C12.0923 11.689 12.0546 11.6693 11.9879 11.6258C11.6586 11.41 11.3332 11.1887 11.0035 10.9741C10.877 10.8919 10.8164 10.786 10.8245 10.6311C10.8502 10.1489 10.8707 9.66675 10.903 8.97988ZM2.37529 11.4914C2.30214 11.4967 2.23203 11.5233 2.1733 11.568C2.11458 11.6127 2.06972 11.6737 2.04407 11.7436C1.97729 11.9088 2.01456 12.0704 2.16056 12.2107C2.60529 12.6357 3.05105 13.0594 3.49784 13.4817C4.09322 14.0461 4.6877 14.6108 5.28127 15.176C5.40086 15.2902 5.53055 15.3653 5.69907 15.3222C5.76838 15.3072 5.83216 15.2726 5.88315 15.2225C5.93415 15.1724 5.97033 15.1088 5.98757 15.0388C6.0094 14.9651 6.00955 14.8864 5.98803 14.8125C5.96651 14.7387 5.92424 14.6728 5.86643 14.6231C5.58375 14.3535 5.30055 14.0847 5.01684 13.8165C4.25967 13.0972 3.5025 12.3778 2.74533 11.6582C2.64826 11.5653 2.54614 11.4871 2.37529 11.4914ZM10.0887 15.3341C10.258 15.3341 10.3582 15.2503 10.4553 15.1578C11.1413 14.5054 11.828 13.8535 12.5155 13.2019L13.5659 12.2028C13.6235 12.153 13.6659 12.0873 13.6878 12.0137C13.7097 11.94 13.7102 11.8614 13.6894 11.7874C13.6721 11.7149 13.6344 11.649 13.581 11.5979C13.5275 11.5467 13.4606 11.5125 13.3884 11.4993C13.2187 11.4598 13.0922 11.5436 12.9733 11.6574C11.9583 12.6228 10.9427 13.5875 9.92641 14.5515C9.88264 14.5904 9.84164 14.6324 9.80371 14.6772C9.75424 14.7355 9.72312 14.8075 9.71439 14.884C9.70567 14.9604 9.71974 15.0378 9.75479 15.106C9.78375 15.1721 9.83044 15.2286 9.88951 15.269C9.94858 15.3093 10.0176 15.3319 10.0887 15.3341ZM7.87545 2.96399H7.84594C7.71651 3.52756 7.58708 4.09113 7.45765 4.6547C7.44445 4.7124 7.45571 4.74204 7.51861 4.75864C7.64714 4.79223 7.74654 4.93016 7.85642 4.93846C7.96631 4.94676 8.06494 4.79856 8.19269 4.7618C8.19735 4.7618 8.20162 4.75667 8.20589 4.75627C8.27462 4.75034 8.27772 4.70805 8.2653 4.65273C8.13328 4.09021 8.00268 3.5273 7.87351 2.96399H7.87545Z" fill="#287D3C" stroke="#287D3C" stroke-width="2" mask="url(#path-1-inside-1_5264_73059)"/>
<path d="M5.77877 3.86469L5.77877 3.86469L5.77734 3.80416L5.77733 3.80359L5.77727 3.80121L5.77723 3.79945M5.77877 3.86469L5.77723 3.79945M5.77877 3.86469L5.78195 3.99997M5.77877 3.86469L5.78195 3.99997M5.77723 3.79945L5.77674 3.80072M5.77723 3.79945V3.79945M5.77674 3.80072L5.77723 3.79945M5.77674 3.80072L5.77723 3.79945M5.77674 3.80072L5.5848 3.86988C5.57548 3.84835 5.56992 3.82565 5.56817 3.80269C5.56802 3.80074 5.5679 3.79879 5.56781 3.79683C5.56778 3.79485 5.56779 3.79286 5.56782 3.79088L5.76136 3.79343H5.76136L5.7654 3.79349L5.7654 3.79349L5.76892 3.79353L5.77227 3.79358L5.77277 3.79358L5.77709 3.79364L5.7771 3.79384L5.77719 3.79778V3.79778L5.77723 3.79945M5.77674 3.80072L5.77641 3.80157L5.77674 3.80072ZM5.77698 3.7887L5.77824 3.78739L5.77698 3.7887ZM5.77698 3.7887L5.77261 3.79323L5.77698 3.7887ZM5.7872 3.79378L5.78791 3.79378L5.9897 3.79645C5.98937 3.82144 5.98437 3.84629 5.97488 3.86969C5.96491 3.89427 5.95001 3.91724 5.93038 3.93708C5.92953 3.93794 5.92868 3.93879 5.92781 3.93963C5.90834 3.95864 5.88516 3.97383 5.85962 3.98424M5.7872 3.79378L5.78732 3.82551L5.85962 3.98424M5.7872 3.79378L5.7872 3.79449L5.78719 3.79543L5.78712 3.80139V3.80139L5.78703 3.81018L5.78698 3.81547L5.78688 3.82456L5.78502 4C5.78547 4 5.78592 4 5.78638 4C5.78866 3.99991 5.79094 3.99979 5.79321 3.99963C5.81643 3.99803 5.83881 3.99272 5.85962 3.98424M5.7872 3.79378L5.85962 3.98424M5.78195 3.99997C5.7812 3.99996 5.78044 3.99994 5.77968 3.99992C5.75417 3.99923 5.72905 3.99418 5.70546 3.98505C5.67957 3.97504 5.65626 3.96043 5.63651 3.94234C5.6351 3.94105 5.6337 3.93973 5.63233 3.9384C5.61174 3.91851 5.59573 3.89513 5.5848 3.86988L5.78195 3.99997ZM5.78727 3.78719L5.78728 3.78671L5.78733 3.78219V3.78219L5.78737 3.77794M5.78727 3.78719L5.78737 3.77794M5.78727 3.78719L5.7947 3.78713L5.97344 3.78553L5.98973 3.78539C5.98972 3.7852 5.98972 3.78502 5.98972 3.78484C5.98971 3.78422 5.9897 3.7836 5.98969 3.78298C5.9891 3.75547 5.98257 3.72815 5.97036 3.70295C5.96124 3.68412 5.94895 3.66648 5.9336 3.65084C5.92967 3.64683 5.92557 3.64299 5.92131 3.63933C5.90176 3.6225 5.87891 3.60938 5.85401 3.60089M5.78727 3.78719L5.78737 3.77794M5.78737 3.77794L5.78742 3.77309M5.78737 3.77794L5.78576 3.77961M5.78737 3.77794L5.78576 3.77961M5.85401 3.60089C5.83361 3.59393 5.81183 3.59008 5.78936 3.58984L5.78742 3.77309M5.85401 3.60089L5.78742 3.77309M5.85401 3.60089L5.78742 3.77309M5.78742 3.77309L5.78569 3.77757M5.78742 3.77309V3.77309M5.78569 3.77757L5.78742 3.77309M5.78569 3.77757L5.78433 3.7811M5.78569 3.77757L5.78433 3.7811M5.78433 3.7811L5.78576 3.77961M5.78433 3.7811L5.78576 3.77961M5.77694 3.78728L5.77554 3.7873L5.77554 3.7873L5.76993 3.78735L5.76227 3.78742L5.74903 3.78753H5.74903L5.736 3.78765H5.736L5.56786 3.78915C5.56841 3.76774 5.57241 3.74642 5.57985 3.72599C5.58885 3.70124 5.60281 3.67801 5.62136 3.65784C5.62559 3.65324 5.63004 3.64882 5.6347 3.64459C5.65049 3.63028 5.66866 3.61823 5.68873 3.60908C5.71474 3.59723 5.74318 3.59064 5.7723 3.58995L5.7769 3.78525L5.77693 3.78669L5.77694 3.78728ZM5.77946 3.79367L5.78111 3.78942L5.77946 3.79367Z" fill="#287D3C" stroke="#287D3C"/>
</g>
<defs>
<clipPath id="clip0_5264_73059">
<rect width="16" height="16" fill="white" transform="translate(0 0.5)"/>
</clipPath>
</defs>
</svg>
