<svg width="36" height="23" viewBox="0 0 36 23" fill="none" xmlns="http://www.w3.org/2000/svg">
<path d="M17.3333 3.00016C17.3333 3.00016 17.3333 0.333496 20 0.333496C22.6667 0.333496 22.6667 3.00016 22.6667 3.00016V5.66683C22.6667 5.66683 22.6667 8.3335 20 8.3335C17.3333 8.3335 17.3333 5.66683 17.3333 5.66683V3.00016ZM5.33333 17.6668C5.33333 17.6668 8 17.6668 8 20.3335C8 23.0002 5.33333 23.0002 5.33333 23.0002H2.66667C2.66667 23.0002 0 23.0002 0 20.3335C0 17.6668 2.66667 17.6668 2.66667 17.6668H5.33333ZM10.496 8.39083C10.496 8.39083 12.3813 10.2762 10.496 12.1615C8.61067 14.0468 6.72533 12.1615 6.72533 12.1615L4.83867 10.2762C4.83867 10.2762 2.95333 8.39083 4.83867 6.50416C6.72533 4.61883 8.61067 6.50416 8.61067 6.50416L10.496 8.39083ZM33.276 12.1615C33.276 12.1615 31.3907 14.0468 29.5053 12.1615C27.62 10.2762 29.5053 8.39083 29.5053 8.39083L31.3907 6.5055C31.3907 6.5055 33.276 4.62016 35.1613 6.5055C37.0467 8.39083 35.1613 10.2762 35.1613 10.2762L33.276 12.1615Z" fill="#FFAC33"/>
</svg>
