<svg width="16" height="17" viewBox="0 0 16 17" fill="none" xmlns="http://www.w3.org/2000/svg">
<path d="M8.00008 4.50008C8.73341 4.50008 9.33341 5.10008 9.33341 5.83341C9.33341 6.56675 8.73341 7.16675 8.00008 7.16675C7.26675 7.16675 6.66675 6.56675 6.66675 5.83341C6.66675 5.10008 7.26675 4.50008 8.00008 4.50008ZM8.00008 11.1667C9.80008 11.1667 11.8667 12.0267 12.0001 12.5001H4.00008C4.15341 12.0201 6.20675 11.1667 8.00008 11.1667ZM8.00008 3.16675C6.52675 3.16675 5.33341 4.36008 5.33341 5.83341C5.33341 7.30675 6.52675 8.50008 8.00008 8.50008C9.47341 8.50008 10.6667 7.30675 10.6667 5.83341C10.6667 4.36008 9.47341 3.16675 8.00008 3.16675ZM8.00008 9.83341C6.22008 9.83341 2.66675 10.7267 2.66675 12.5001V13.8334H13.3334V12.5001C13.3334 10.7267 9.78008 9.83341 8.00008 9.83341Z" fill="#9A9AAF"/>
</svg>
